fira-sans_ultralight.sfdir

StartChar: exclam
Encoding: 33 33 985
Width: 240
Flags: MW
HStem: -10 64<110.5 130> 662 20G<103 136 136 136>
VStem: 87 66<13 31> 103 33<209 682>
LayerCount: 2
Fore
SplineSet
136 209 m 1xd0
 103 209 l 1
 103 682 l 1
 136 682 l 1
 136 209 l 1xd0
120 54 m 0xe0
 140 54 153 40 153 22 c 0
 153 4 140 -10 120 -10 c 0
 101 -10 87 4 87 22 c 0
 87 40 101 54 120 54 c 0xe0
EndSplineSet
EndChar

StartChar: quotedbl
Encoding: 34 34 991
Width: 336
Flags: MW
HStem: 662 20G<79 115 115 115 221 258 258 258>
VStem: 81 31.5 223.5 32
LayerCount: 2
Fore
SplineSet
79 682 m 1
 115 682 l 1
 110 438 l 1
 83 438 l 1
 79 682 l 1
221 682 m 1
 258 682 l 1
 253 438 l 1
 226 438 l 1
 221 682 l 1
EndSplineSet
EndChar
StartChar: numbersign
Encoding: 35 35 2124
Width: 493
Flags: MW
HStem: 0 21G<67 103 67 67 300 337 300 300> 192 31<15 93 15 97 133 326 367 441> 455 31<52 128 52 132 168 361 402 478>
VStem: 15 463<192 455 223 455>
LayerCount: 2
Back
Fore
SplineSet
478 455 m 1
 398 455 l 1
 367 223 l 1
 441 223 l 1
 441 192 l 1
 363 192 l 1
 337 0 l 1
 300 0 l 1
 326 192 l 1
 129 192 l 1
 103 0 l 1
 67 0 l 1
 93 192 l 1
 15 192 l 1
 15 223 l 1
 97 223 l 1
 128 455 l 1
 52 455 l 1
 52 486 l 1
 132 486 l 1
 155 662 l 1
 191 662 l 1
 168 486 l 1
 365 486 l 1
 388 662 l 1
 425 662 l 1
 402 486 l 1
 478 486 l 1
 478 455 l 1
330 223 m 1
 361 455 l 1
 164 455 l 1
 133 223 l 1
 330 223 l 1
EndSplineSet
Substitution2: "'onum' Oldstyle Figures lookup 25 subtable" numbersign.osf
Substitution2: "'tnum' Tabular Numbers lookup 24 subtable" numbersign.tf
AlternateSubs2: "'aalt' Access All Alternates lookup 1 subtable" numbersign.tf numbersign.osf
EndChar
StartChar: dollar
Encoding: 36 36 2200
Width: 522
GlyphClass: 2
Flags: MW
HStem: -10 31<244 244> -9 30<274 274> 640 31<244 244 244 274 244 290>
VStem: 74 35<477.5 553 477.5 558> 244 30<-148 -10 -10 -10 671 815> 424 34<129 223>
LayerCount: 2
Back
Fore
SplineSet
458 179 m 0xbc
 458 74 384 0 274 -9 c 1x7c
 274 -148 l 1
 244 -148 l 1
 244 -10 l 1
 161 -9 99 23 48 69 c 1
 70 92 l 1
 116 51 169 21 249 21 c 0
 353 21 424 81 424 177 c 0
 424 269 379 303 257 341 c 0
 123 384 74 427 74 515 c 0
 74 601 141 666 244 671 c 1
 244 815 l 1
 274 815 l 1
 274 671 l 1
 347 667 392 641 438 601 c 1
 416 578 l 1
 368 623 323 640 257 640 c 0
 167 640 109 590 109 516 c 0
 109 439 151 407 270 371 c 0
 399 331 458 288 458 179 c 0xbc
EndSplineSet
Substitution2: "'onum' Oldstyle Figures lookup 25 subtable" dollar.osf
Substitution2: "'tnum' Tabular Numbers lookup 24 subtable" dollar.tf
AlternateSubs2: "'aalt' Access All Alternates lookup 1 subtable" dollar.tf dollar.osf
EndChar
StartChar: percent
Encoding: 37 37 2294
Width: 770
GlyphClass: 2
Flags: MW
HStem: -10 28<532.5 608 532.5 614> -1 21G<144 144> 278 28<532.5 608> 358 28<162 237.5 162 243.5> 646 28<162 237.5>
VStem: 59 34<480.5 550.5 480.5 563> 306 34<481.5 551.5> 430 34<112.5 182.5 112.5 195> 677 34<114 184>
LayerCount: 2
Back
Fore
SplineSet
608 698 m 1xbf80
 636 680 l 1
 172 -19 l 1
 144 -1 l 1x7f80
 608 698 l 1xbf80
200 674 m 0
 283 674 340 613 340 517 c 0
 340 421 287 358 200 358 c 0
 116 358 59 419 59 515 c 0
 59 611 112 674 200 674 c 0
200 646 m 0
 124 646 93 586 93 515 c 0
 93 446 124 386 200 386 c 0
 275 386 306 446 306 517 c 0
 306 586 275 646 200 646 c 0
570 306 m 0
 654 306 711 245 711 150 c 0
 711 53 658 -10 570 -10 c 0xbf80
 487 -10 430 51 430 147 c 0
 430 243 483 306 570 306 c 0
570 278 m 0
 495 278 464 218 464 147 c 0
 464 78 495 18 570 18 c 0xbf80
 646 18 677 78 677 150 c 0
 677 218 646 278 570 278 c 0
EndSplineSet
Substitution2: "'onum' Oldstyle Figures lookup 25 subtable" percent.osf
Substitution2: "'tnum' Tabular Numbers lookup 24 subtable" percent.tf
AlternateSubs2: "'aalt' Access All Alternates lookup 1 subtable" percent.tf percent.osf
EndChar
StartChar: ampersand
Encoding: 38 38 2373
Width: 729
GlyphClass: 2
Flags: MW
HStem: -10 21G<241.5 352 645 645> -10 31<249.5 345.5 249.5 352> 663 30<261.5 333>
VStem: 97 35<125.5 207.5 125.5 214.5> 141 35<518.5 575.5 518.5 584.5> 420 35<514.5 584.5>
LayerCount: 2
Back
Fore
SplineSet
300 693 m 0x74
 391 693 455 633 455 547 c 0
 455 470 401 421 293 362 c 1
 518 152 l 1
 550 216 572 278 588 358 c 1
 621 348 l 1
 603 263 576 194 540 131 c 1
 672 9 l 1xb4
 645 -10 l 1
 522 103 l 1
 472 38 407 -10 297 -10 c 0
 186 -10 97 61 97 168 c 0x74
 97 261 153 316 243 367 c 1
 175 433 141 472 141 542 c 0x7c
 141 627 207 693 300 693 c 0x74
300 663 m 0x7c
 223 663 176 608 176 543 c 0
 176 494 185 466 271 383 c 1
 374 436 420 482 420 547 c 0
 420 622 366 663 300 663 c 0x7c
266 347 m 1x74
 180 299 132 246 132 169 c 0
 132 82 202 21 297 21 c 0
 394 21 451 61 499 124 c 1
 266 347 l 1x74
EndSplineSet
Substitution2: "'ss03' Style Set 3 lookup 35 subtable" ampersand.ss03
Substitution2: "'aalt' Access All Alternates lookup 0 subtable" ampersand.ss03
EndChar

StartChar: quotesingle
Encoding: 39 39 992
Width: 194
Flags: MW
HStem: 662 20G<79 115 115 115>
VStem: 81 31.5
LayerCount: 2
Fore
SplineSet
79 682 m 1
 115 682 l 1
 110 438 l 1
 83 438 l 1
 79 682 l 1
EndSplineSet
EndChar
StartChar: parenleft
Encoding: 40 40 2154
Width: 324
Flags: MW
HStem: -132 964<238 238>
VStem: 63 35<240 460 240 465>
LayerCount: 2
Back
Fore
SplineSet
238 832 m 1
 261 818 l 1
 172 687 98 570 98 350 c 0
 98 130 172 13 261 -118 c 1
 238 -132 l 1
 142 3 63 120 63 350 c 0
 63 580 142 697 238 832 c 1
EndSplineSet
Substitution2: "'case' Case-Sensitive Forms lookup 28 subtable" parenleft.case
Substitution2: "'dnom' Denominators lookup 16 subtable" parenleft.dnom
Substitution2: "'numr' Numerators lookup 15 subtable" parenleft.numr
Substitution2: "'sups' Superscript lookup 14 subtable" uni207D
Substitution2: "'subs' Subscript lookup 13 subtable" uni208D
AlternateSubs2: "'aalt' Access All Alternates lookup 1 subtable" uni208D uni207D parenleft.numr parenleft.dnom parenleft.case
EndChar
StartChar: parenright
Encoding: 41 41 2155
Width: 324
Flags: MW
HStem: -132 964<86 86>
VStem: 226 35<240 460>
LayerCount: 2
Back
Fore
SplineSet
86 832 m 1
 182 697 261 580 261 350 c 0
 261 120 182 3 86 -132 c 1
 63 -118 l 1
 152 13 226 130 226 350 c 0
 226 570 152 687 63 818 c 1
 86 832 l 1
EndSplineSet
Substitution2: "'case' Case-Sensitive Forms lookup 28 subtable" parenright.case
Substitution2: "'dnom' Denominators lookup 16 subtable" parenright.dnom
Substitution2: "'numr' Numerators lookup 15 subtable" parenright.numr
Substitution2: "'sups' Superscript lookup 14 subtable" uni207E
Substitution2: "'subs' Subscript lookup 13 subtable" uni208E
AlternateSubs2: "'aalt' Access All Alternates lookup 1 subtable" uni208E uni207E parenright.numr parenright.dnom parenright.case
EndChar

StartChar: asterisk
Encoding: 42 42 978
Width: 433
Flags: MW
HStem: 553 20G<203 203> 714 20G<200 234 234 234>
VStem: 201.5 31
LayerCount: 2
Fore
SplineSet
239 552 m 1
 334 425 l 1
 306 405 l 1
 217 536 l 1
 127 405 l 1
 99 425 l 1
 196 550 l 1
 43 597 l 1
 54 627 l 1
 203 573 l 1
 200 734 l 1
 234 734 l 1
 231 575 l 1
 380 627 l 1
 390 597 l 1
 239 552 l 1
EndSplineSet
EndChar
StartChar: plus
Encoding: 43 43 2296
Width: 489
GlyphClass: 2
Flags: MW
HStem: 315 32<74 228 74 228 262 415>
VStem: 228 34<161 315 161 315 347 500>
LayerCount: 2
Back
Fore
SplineSet
262 500 m 1
 262 347 l 1
 415 347 l 1
 415 315 l 1
 262 315 l 1
 262 161 l 1
 228 161 l 1
 228 315 l 1
 74 315 l 1
 74 347 l 1
 228 347 l 1
 228 500 l 1
 262 500 l 1
EndSplineSet
Substitution2: "'onum' Oldstyle Figures lookup 25 subtable" plus.osf
Substitution2: "'tnum' Tabular Numbers lookup 24 subtable" plus.tf
Substitution2: "'dnom' Denominators lookup 16 subtable" plus.dnom
Substitution2: "'numr' Numerators lookup 15 subtable" plus.numr
Substitution2: "'sups' Superscript lookup 14 subtable" uni207A
Substitution2: "'subs' Subscript lookup 13 subtable" uni208A
AlternateSubs2: "'aalt' Access All Alternates lookup 1 subtable" uni208A uni207A plus.numr plus.dnom plus.tf plus.osf
EndChar
StartChar: comma
Encoding: 44 44 2119
Width: 184
Flags: MW
HStem: -7 21G<78 78>
VStem: 59 65<15.5 31>
LayerCount: 2
Back
Fore
SplineSet
92 54 m 0
 112 54 124 40 124 22 c 0
 124 8 118 -7 112 -21 c 2
 64 -141 l 1
 38 -141 l 1
 78 -7 l 1
 66 -2 59 9 59 22 c 0
 59 40 73 54 92 54 c 0
EndSplineSet
EndChar
StartChar: hyphen
Encoding: 45 45 2166
Width: 399
Flags: MW
HStem: 297 32<74 325 74 325>
VStem: 74 251<297 329 297 329>
LayerCount: 2
Back
Fore
SplineSet
74 297 m 1
 74 329 l 1
 325 329 l 1
 325 297 l 1
 74 297 l 1
EndSplineSet
Substitution2: "'case' Case-Sensitive Forms lookup 28 subtable" hyphen.case
Substitution2: "'aalt' Access All Alternates lookup 0 subtable" hyphen.case
EndChar
StartChar: period
Encoding: 46 46 2126
Width: 184
Flags: MW
HStem: -10 64<82.5 102>
VStem: 59 65<13 31>
LayerCount: 2
Back
Fore
SplineSet
92 54 m 0
 112 54 124 40 124 22 c 0
 124 4 112 -10 92 -10 c 0
 73 -10 59 4 59 22 c 0
 59 40 73 54 92 54 c 0
EndSplineSet
EndChar

StartChar: slash
Encoding: 47 47 994
Width: 520
Flags: MW
HStem: -97 897<159 360>
VStem: 128 263
LayerCount: 2
Fore
SplineSet
391 792 m 1
 159 -97 l 1
 128 -89 l 1
 360 800 l 1
 391 792 l 1
EndSplineSet
Substitution2: "'frac' Diagonal Fractions lookup 15 subtable" fraction
Substitution2: "'aalt' Access All Alternates lookup 0 subtable" fraction
EndChar
StartChar: zero
Encoding: 48 48 2011
Width: 544
Flags: MW
HStem: -10 31<220 324.5 220 335.5> 643 31<220.5 325>
VStem: 74 35<227 437.5 227 446> 435 35<225 435.5>
LayerCount: 2
Back
Fore
SplineSet
272 674 m 0
 400 674 470 560 470 330 c 0
 470 104 399 -10 272 -10 c 0
 145 -10 74 105 74 332 c 0
 74 560 145 674 272 674 c 0
272 643 m 0
 169 643 109 543 109 332 c 0
 109 122 168 21 272 21 c 0
 377 21 435 120 435 330 c 0
 435 541 378 643 272 643 c 0
EndSplineSet
Substitution2: "'zero' Slashed Zero lookup 31 subtable" zero.zero
Substitution2: "'onum' Oldstyle Figures lookup 25 subtable" zero.osf
Substitution2: "'tnum' Tabular Numbers lookup 24 subtable" zero.tf
Substitution2: "'frac' Diagonal Fractions lookup 18 subtable" zero.numr
Substitution2: "'dnom' Denominators lookup 16 subtable" zero.dnom
Substitution2: "'numr' Numerators lookup 15 subtable" zero.numr
Substitution2: "'sups' Superscript lookup 14 subtable" uni2070
Substitution2: "'subs' Subscript lookup 13 subtable" uni2080
AlternateSubs2: "'aalt' Access All Alternates lookup 1 subtable" uni2080 uni2070 zero.numr zero.dnom zero.tf zero.osf zero.zero
EndChar

StartChar: one
Encoding: 49 49 878
Width: 398
Flags: MW
HStem: 0 21G<236 270 236 236>
VStem: 236 34<0 622 622 622>
LayerCount: 2
Fore
SplineSet
270 0 m 1
 236 0 l 1
 236 622 l 1
 66 515 l 1
 49 542 l 1
 242 662 l 1
 270 662 l 1
 270 0 l 1
EndSplineSet
Substitution2: "'onum' Oldstyle Figures lookup 22 subtable" one.osf
Substitution2: "'tnum' Tabular Numbers lookup 21 subtable" one.tf
Substitution2: "'frac' Diagonal Fractions lookup 16 subtable" one.numr
Substitution2: "'dnom' Denominators lookup 14 subtable" one.dnom
Substitution2: "'numr' Numerators lookup 13 subtable" one.numr
Substitution2: "'sups' Superscript lookup 12 subtable" onesuperior
Substitution2: "'subs' Subscript lookup 11 subtable" oneinferior
AlternateSubs2: "'aalt' Access All Alternates lookup 1 subtable" oneinferior onesuperior one.numr one.dnom one.tf one.osf
EndChar
StartChar: two
Encoding: 50 50 2013
Width: 467
Flags: MW
HStem: 0 33<88 406> 643 31<186.5 263.5>
VStem: 358 35<440.5 545>
LayerCount: 2
Back
Fore
SplineSet
222 674 m 0
 330 674 393 602 393 505 c 0
 393 367 323 289 88 33 c 1
 412 33 l 1
 406 0 l 1
 46 0 l 1
 46 32 l 1
 300 308 358 379 358 502 c 0
 358 588 306 643 221 643 c 0
 152 643 103 613 65 566 c 1
 39 584 l 1
 90 645 146 674 222 674 c 0
EndSplineSet
Substitution2: "'onum' Oldstyle Figures lookup 25 subtable" two.osf
Substitution2: "'tnum' Tabular Numbers lookup 24 subtable" two.tf
Substitution2: "'frac' Diagonal Fractions lookup 18 subtable" two.numr
Substitution2: "'dnom' Denominators lookup 16 subtable" two.dnom
Substitution2: "'numr' Numerators lookup 15 subtable" two.numr
Substitution2: "'sups' Superscript lookup 14 subtable" uni00B2
Substitution2: "'subs' Subscript lookup 13 subtable" uni2082
AlternateSubs2: "'aalt' Access All Alternates lookup 1 subtable" uni2082 uni00B2 two.numr two.dnom two.tf two.osf
EndChar
StartChar: three
Encoding: 51 51 2014
Width: 477
Flags: MW
HStem: -10 31<175.5 260 175.5 269> 336 30<177 209 209 212 172 209> 643 31<187 258.5>
VStem: 356 35<464 551> 373 35<135.5 236.5>
LayerCount: 2
Back
Fore
SplineSet
218 674 m 0xf0
 325 674 391 606 391 511 c 0xf0
 391 417 332 363 257 353 c 1
 341 352 408 292 408 184 c 0
 408 69 330 -10 208 -10 c 0
 130 -10 73 18 24 73 c 1
 48 93 l 1
 96 39 145 21 206 21 c 0
 314 21 373 88 373 183 c 0xe8
 373 290 308 336 212 336 c 2
 172 336 l 1
 177 366 l 1
 209 366 l 2
 281 366 356 409 356 510 c 0
 356 592 301 643 216 643 c 0
 158 643 112 625 62 579 c 1
 42 601 l 1
 91 649 144 674 218 674 c 0xf0
EndSplineSet
Substitution2: "'onum' Oldstyle Figures lookup 25 subtable" three.osf
Substitution2: "'tnum' Tabular Numbers lookup 24 subtable" three.tf
Substitution2: "'frac' Diagonal Fractions lookup 18 subtable" three.numr
Substitution2: "'dnom' Denominators lookup 16 subtable" three.dnom
Substitution2: "'numr' Numerators lookup 15 subtable" three.numr
Substitution2: "'sups' Superscript lookup 14 subtable" uni00B3
Substitution2: "'subs' Subscript lookup 13 subtable" uni2083
AlternateSubs2: "'aalt' Access All Alternates lookup 1 subtable" uni2083 uni00B3 three.numr three.dnom three.tf three.osf
EndChar

StartChar: four
Encoding: 52 52 881
Width: 509
Flags: MW
HStem: 0 21G<344 378 344 344> 182 31<86 344 86 344 378 469>
VStem: 346 32
LayerCount: 2
Fore
SplineSet
469 182 m 1
 378 182 l 1
 378 0 l 1
 344 0 l 1
 344 182 l 1
 49 182 l 1
 49 209 l 1
 253 674 l 1
 282 662 l 1
 86 213 l 1
 344 213 l 1
 348 418 l 1
 378 418 l 1
 378 213 l 1
 469 213 l 1
 469 182 l 1
EndSplineSet
Substitution2: "'onum' Oldstyle Figures lookup 22 subtable" four.osf
Substitution2: "'tnum' Tabular Numbers lookup 21 subtable" four.tf
Substitution2: "'frac' Diagonal Fractions lookup 16 subtable" four.numr
Substitution2: "'dnom' Denominators lookup 14 subtable" four.dnom
Substitution2: "'numr' Numerators lookup 13 subtable" four.numr
Substitution2: "'sups' Superscript lookup 12 subtable" foursuperior
Substitution2: "'subs' Subscript lookup 11 subtable" fourinferior
AlternateSubs2: "'aalt' Access All Alternates lookup 1 subtable" fourinferior foursuperior four.numr four.dnom four.tf four.osf
EndChar

StartChar: five
Encoding: 53 53 882
Width: 477
Flags: MW
HStem: -10 31<186 271.5 186 282.5> 387 31<210.5 279> 632 30<119 395 119 119>
VStem: 85 34<382 632 382 662 382 662> 386 36<155.5 272>
LayerCount: 2
Fore
SplineSet
395 632 m 1
 119 632 l 1
 119 382 l 1
 147 401 184 418 237 418 c 0
 351 418 422 340 422 214 c 0
 422 84 345 -10 220 -10 c 0
 142 -10 85 18 39 66 c 1
 63 88 l 1
 105 44 151 21 221 21 c 0
 322 21 386 97 386 214 c 0
 386 330 324 387 234 387 c 0
 183 387 153 375 112 350 c 1
 85 350 l 1
 85 662 l 1
 401 662 l 1
 395 632 l 1
EndSplineSet
Substitution2: "'onum' Oldstyle Figures lookup 22 subtable" five.osf
Substitution2: "'tnum' Tabular Numbers lookup 21 subtable" five.tf
Substitution2: "'frac' Diagonal Fractions lookup 16 subtable" five.numr
Substitution2: "'dnom' Denominators lookup 14 subtable" five.dnom
Substitution2: "'numr' Numerators lookup 13 subtable" five.numr
Substitution2: "'sups' Superscript lookup 12 subtable" fivesuperior
Substitution2: "'subs' Subscript lookup 11 subtable" fiveinferior
AlternateSubs2: "'aalt' Access All Alternates lookup 1 subtable" fiveinferior fivesuperior five.numr five.dnom five.tf five.osf
EndChar
StartChar: six
Encoding: 54 54 2017
Width: 517
Flags: MW
HStem: -10 31<216 324 216 328.5> 398 31<247.5 324.5> 643 31<242 322.5>
VStem: 74 35 423 35<163.5 282>
LayerCount: 2
Back
Fore
SplineSet
287 429 m 0
 382 429 458 363 458 222 c 0
 458 75 382 -10 275 -10 c 0
 126 -10 74 127 74 291 c 0
 74 531 162 674 304 674 c 0
 353 674 386 659 419 636 c 1
 401 611 l 1
 371 632 342 643 303 643 c 0
 181 643 113 505 109 321 c 1
 149 383 207 429 287 429 c 0
275 21 m 0
 373 21 423 106 423 221 c 0
 423 343 364 398 285 398 c 0
 210 398 149 349 109 276 c 1
 112 126 157 21 275 21 c 0
EndSplineSet
Substitution2: "'onum' Oldstyle Figures lookup 25 subtable" six.osf
Substitution2: "'tnum' Tabular Numbers lookup 24 subtable" six.tf
Substitution2: "'frac' Diagonal Fractions lookup 18 subtable" six.numr
Substitution2: "'dnom' Denominators lookup 16 subtable" six.dnom
Substitution2: "'numr' Numerators lookup 15 subtable" six.numr
Substitution2: "'sups' Superscript lookup 14 subtable" uni2076
Substitution2: "'subs' Subscript lookup 13 subtable" uni2086
AlternateSubs2: "'aalt' Access All Alternates lookup 1 subtable" uni2086 uni2076 six.numr six.dnom six.tf six.osf
EndChar

StartChar: seven
Encoding: 55 55 884
Width: 432
Flags: MW
HStem: -6 21G<122 122> 631 31<34 356 34 392>
VStem: 34 358<635 635 635 662 635 662>
LayerCount: 2
Fore
SplineSet
392 635 m 1
 122 -6 l 1
 89 5 l 1
 356 631 l 1
 34 631 l 1
 34 662 l 1
 392 662 l 1
 392 635 l 1
EndSplineSet
Substitution2: "'onum' Oldstyle Figures lookup 22 subtable" seven.osf
Substitution2: "'tnum' Tabular Numbers lookup 21 subtable" seven.tf
Substitution2: "'frac' Diagonal Fractions lookup 16 subtable" seven.numr
Substitution2: "'dnom' Denominators lookup 14 subtable" seven.dnom
Substitution2: "'numr' Numerators lookup 13 subtable" seven.numr
Substitution2: "'sups' Superscript lookup 12 subtable" sevensuperior
Substitution2: "'subs' Subscript lookup 11 subtable" seveninferior
AlternateSubs2: "'aalt' Access All Alternates lookup 1 subtable" seveninferior sevensuperior seven.numr seven.dnom seven.tf seven.osf
EndChar
StartChar: eight
Encoding: 56 56 2019
Width: 529
Flags: MW
HStem: -10 32<214 313 214 324> 644 30<225.5 304.5>
VStem: 59 35<120 211.5 120 213.5> 89 35<479.5 553.5 479.5 563> 406 35<477 554> 434 36<120.5 213>
LayerCount: 2
Back
Fore
SplineSet
316 348 m 1xe4
 422 305 470 261 470 169 c 0
 470 59 385 -10 263 -10 c 0
 138 -10 59 62 59 168 c 0xe4
 59 259 112 325 211 360 c 1
 127 395 89 434 89 512 c 0
 89 614 172 674 265 674 c 0
 355 674 441 619 441 511 c 0xd8
 441 439 402 392 316 348 c 1xe4
124 511 m 0xd8
 124 448 149 414 246 376 c 2
 287 360 l 1
 370 402 406 444 406 510 c 0
 406 598 344 644 265 644 c 0
 186 644 124 596 124 511 c 0xd8
264 22 m 0xe4
 362 22 434 72 434 169 c 0
 434 257 388 290 285 331 c 2
 245 347 l 1
 137 309 94 255 94 168 c 0
 94 72 164 22 264 22 c 0xe4
EndSplineSet
Substitution2: "'onum' Oldstyle Figures lookup 25 subtable" eight.osf
Substitution2: "'tnum' Tabular Numbers lookup 24 subtable" eight.tf
Substitution2: "'frac' Diagonal Fractions lookup 18 subtable" eight.numr
Substitution2: "'dnom' Denominators lookup 16 subtable" eight.dnom
Substitution2: "'numr' Numerators lookup 15 subtable" eight.numr
Substitution2: "'sups' Superscript lookup 14 subtable" uni2078
Substitution2: "'subs' Subscript lookup 13 subtable" uni2088
AlternateSubs2: "'aalt' Access All Alternates lookup 1 subtable" uni2088 uni2078 eight.numr eight.dnom eight.tf eight.osf
EndChar
StartChar: nine
Encoding: 57 57 2020
Width: 513
Flags: MW
HStem: 252 31<196.5 272.5> 643 31<205.5 309.5>
VStem: 59 36<402 517 402 524.5> 410 34
LayerCount: 2
Back
Fore
SplineSet
252 674 m 0
 386 674 444 571 444 400 c 0
 444 148 328 48 126 -17 c 1
 116 11 l 1
 293 68 397 157 409 354 c 1
 366 288 308 252 237 252 c 0
 134 252 59 331 59 458 c 0
 59 591 139 674 252 674 c 0
241 283 m 0
 313 283 362 323 410 395 c 1
 408 555 365 643 254 643 c 0
 157 643 95 577 95 457 c 0
 95 347 152 283 241 283 c 0
EndSplineSet
Substitution2: "'onum' Oldstyle Figures lookup 25 subtable" nine.osf
Substitution2: "'tnum' Tabular Numbers lookup 24 subtable" nine.tf
Substitution2: "'frac' Diagonal Fractions lookup 18 subtable" nine.numr
Substitution2: "'dnom' Denominators lookup 16 subtable" nine.dnom
Substitution2: "'numr' Numerators lookup 15 subtable" nine.numr
Substitution2: "'sups' Superscript lookup 14 subtable" uni2079
Substitution2: "'subs' Subscript lookup 13 subtable" uni2089
AlternateSubs2: "'aalt' Access All Alternates lookup 1 subtable" uni2089 uni2079 nine.numr nine.dnom nine.tf nine.osf
EndChar

StartChar: colon
Encoding: 58 58 982
Width: 184
Flags: MW
HStem: -10 64<82.5 102> 396 64<82.5 102>
VStem: 59 65<13 31 419 437>
LayerCount: 2
Fore
SplineSet
92 460 m 0
 112 460 124 446 124 428 c 0
 124 410 112 396 92 396 c 0
 73 396 59 410 59 428 c 0
 59 446 73 460 92 460 c 0
92 54 m 0
 112 54 124 40 124 22 c 0
 124 4 112 -10 92 -10 c 0
 73 -10 59 4 59 22 c 0
 59 40 73 54 92 54 c 0
EndSplineSet
EndChar

StartChar: semicolon
Encoding: 59 59 993
Width: 184
Flags: MW
HStem: -7 21G<78 78> 396 64<82.5 102>
VStem: 59 65<15.5 31 419 437>
LayerCount: 2
Fore
SplineSet
92 460 m 0
 112 460 124 446 124 428 c 0
 124 410 112 396 92 396 c 0
 73 396 59 410 59 428 c 0
 59 446 73 460 92 460 c 0
92 54 m 0
 112 54 124 40 124 22 c 0
 124 8 118 -7 112 -21 c 2
 64 -141 l 1
 38 -141 l 1
 78 -7 l 1
 66 -2 59 9 59 22 c 0
 59 40 73 54 92 54 c 0
EndSplineSet
EndChar

StartChar: less
Encoding: 60 60 1101
Width: 494
Flags: MW
HStem: 150 363<408 408>
VStem: 73 37<333 333 333 346 333 346>
LayerCount: 2
Fore
SplineSet
421 483 m 1
 110 333 l 1
 421 179 l 1
 408 150 l 1
 73 320 l 1
 73 346 l 1
 408 513 l 1
 421 483 l 1
EndSplineSet
Substitution2: "'onum' Oldstyle Figures lookup 22 subtable" less.osf
Substitution2: "'tnum' Tabular Numbers lookup 21 subtable" less.tf
AlternateSubs2: "'aalt' Access All Alternates lookup 1 subtable" less.tf less.osf
EndChar
StartChar: equal
Encoding: 61 61 2251
Width: 489
GlyphClass: 2
Flags: MW
HStem: 233 33<74 415 74 415> 396 32<74 415 74 415>
VStem: 74 341<233 266 233 266 396 428 233 428>
LayerCount: 2
Back
Fore
SplineSet
74 396 m 1
 74 428 l 1
 415 428 l 1
 415 396 l 1
 74 396 l 1
74 233 m 1
 74 266 l 1
 415 266 l 1
 415 233 l 1
 74 233 l 1
EndSplineSet
Substitution2: "'onum' Oldstyle Figures lookup 25 subtable" equal.osf
Substitution2: "'tnum' Tabular Numbers lookup 24 subtable" equal.tf
Substitution2: "'dnom' Denominators lookup 16 subtable" equal.dnom
Substitution2: "'numr' Numerators lookup 15 subtable" equal.numr
Substitution2: "'sups' Superscript lookup 14 subtable" uni207C
AlternateSubs2: "'aalt' Access All Alternates lookup 1 subtable" uni207C equal.numr equal.dnom equal.tf equal.osf
EndChar

StartChar: greater
Encoding: 62 62 1096
Width: 494
Flags: MW
HStem: 150 363<87 87>
VStem: 384 37<333 333>
LayerCount: 2
Fore
SplineSet
421 346 m 1
 421 320 l 1
 87 150 l 1
 73 179 l 1
 384 333 l 1
 73 483 l 1
 87 513 l 1
 421 346 l 1
EndSplineSet
Substitution2: "'onum' Oldstyle Figures lookup 22 subtable" greater.osf
Substitution2: "'tnum' Tabular Numbers lookup 21 subtable" greater.tf
AlternateSubs2: "'aalt' Access All Alternates lookup 1 subtable" greater.tf greater.osf
EndChar
StartChar: question
Encoding: 63 63 2127
Width: 439
Flags: MW
HStem: -10 64<183 203> 661 32<197 268.5>
VStem: 160 65<13 31> 174 33<209 271 209 274 209 358> 355 36<487 585.5>
LayerCount: 2
Back
Fore
SplineSet
231 693 m 0xd8
 331 693 391 630 391 553 c 0
 391 406 207 425 207 271 c 2
 207 209 l 1
 174 209 l 1
 174 274 l 2
 174 442 355 421 355 553 c 0
 355 618 306 661 231 661 c 0
 163 661 121 638 73 586 c 1
 49 605 l 1
 101 664 155 693 231 693 c 0xd8
193 54 m 0xe8
 213 54 225 40 225 22 c 0
 225 4 213 -10 193 -10 c 0
 173 -10 160 4 160 22 c 0
 160 40 173 54 193 54 c 0xe8
EndSplineSet
EndChar

StartChar: at
Encoding: 64 64 1218
Width: 1020
Flags: MW
HStem: -200 31<408.5 563 408.5 568> 15 29<726.5 788.5 726.5 796> 17 30<450.5 522> 448 31<473.5 545> 661 32<408 643.5>
VStem: 95 35<115.5 356 115.5 365.5> 322 35<170.5 300.5 170.5 317> 628 33<169 187 187 424 424 424> 890 35<203.5 404>
LayerCount: 2
Fore
SplineSet
526 693 m 0xbf80
 790 693 925 512 925 309 c 0
 925 84 837 15 755 15 c 0xdf80
 692 15 649 60 637 127 c 1
 606 57 557 17 487 17 c 0xbf80
 398 17 322 89 322 232 c 0
 322 402 413 479 524 479 c 0
 575 479 623 463 661 445 c 1
 661 187 l 2
 661 90 698 44 755 44 c 0xdf80
 822 44 890 100 890 307 c 0
 890 501 761 661 526 661 c 0
 290 661 130 468 130 244 c 0
 130 -13 292 -169 525 -169 c 0
 601 -169 657 -157 711 -136 c 1
 721 -166 l 1
 665 -185 612 -200 524 -200 c 0
 277 -200 95 -35 95 244 c 0
 95 487 268 693 526 693 c 0xbf80
489 47 m 0
 559 47 610 105 628 169 c 1
 628 424 l 1
 595 440 565 448 525 448 c 0
 422 448 357 369 357 232 c 0
 357 109 412 47 489 47 c 0
EndSplineSet
EndChar

StartChar: A
Encoding: 65 65 1
Width: 559
GlyphClass: 2
Flags: MW
HStem: 0 21G<24 59 24 24 498 498 498 535> 197 32<136 421 136 432 125 421> 654 28<279 279>
VStem: 24 511<0 0>
AnchorPoint: "Anchor-11" 0 0 basechar 0
AnchorPoint: "Anchor-10" 168 682 basechar 0
AnchorPoint: "Anchor-9" 280 682 basechar 0
AnchorPoint: "Anchor-8" 543 0 basechar 0
LayerCount: 2
Fore
SplineSet
432 197 m 1
 125 197 l 1
 59 0 l 1
 24 0 l 1
 258 682 l 1
 301 682 l 1
 535 0 l 1
 498 0 l 1
 432 197 l 1
421 229 m 1
 279 654 l 1
 136 229 l 1
 421 229 l 1
EndSplineSet
Substitution2: "Single Substitution lookup 30 subtable" ordfeminine
Substitution2: "'c2sc' Capitals to Small Capitals lookup 23 subtable" a.sc
AlternateSubs2: "'aalt' Access All Alternates lookup 1 subtable" ordfeminine a.sc
Position2: "'cpsp' Capital Spacing lookup 0 subtable" dx=5 dy=0 dh=10 dv=0
EndChar

StartChar: C
Encoding: 67 67 14
Width: 543
GlyphClass: 2
Flags: MW
HStem: -10 33<278.5 380.5 278.5 381.5> 660 33<282 377.5>
VStem: 74 36<234 454 234 459>
AnchorPoint: "Anchor-11" 341 0 basechar 0
AnchorPoint: "Anchor-10" 0 0 basechar 0
AnchorPoint: "Anchor-9" 342 682 basechar 0
AnchorPoint: "Anchor-8" 0 0 basechar 0
LayerCount: 2
Fore
SplineSet
345 693 m 0
 421 693 466 670 510 633 c 1
 491 608 l 1
 444 644 408 660 347 660 c 0
 217 660 110 567 110 341 c 0
 110 127 214 23 343 23 c 0
 418 23 457 47 498 81 c 1
 518 56 l 1
 475 18 421 -10 342 -10 c 0
 189 -10 74 112 74 341 c 0
 74 577 195 693 345 693 c 0
EndSplineSet
Substitution2: "'c2sc' Capitals to Small Capitals lookup 23 subtable" c.sc
Substitution2: "'aalt' Access All Alternates lookup 0 subtable" c.sc
Position2: "'cpsp' Capital Spacing lookup 0 subtable" dx=5 dy=0 dh=10 dv=0
EndChar

StartChar: F
Encoding: 70 70 34
Width: 473
GlyphClass: 2
Flags: MW
HStem: 0 21G<119 154 119 119> 329 31<154 400 154 400> 650 32<154 439 154 154>
VStem: 119 35<0 329 360 650>
LayerCount: 2
Fore
SplineSet
439 650 m 1
 154 650 l 1
 154 360 l 1
 400 360 l 1
 400 329 l 1
 154 329 l 1
 154 0 l 1
 119 0 l 1
 119 682 l 1
 444 682 l 1
 439 650 l 1
EndSplineSet
Substitution2: "'c2sc' Capitals to Small Capitals lookup 23 subtable" f.sc
Substitution2: "'aalt' Access All Alternates lookup 0 subtable" f.sc
Position2: "'cpsp' Capital Spacing lookup 0 subtable" dx=5 dy=0 dh=10 dv=0
EndChar

StartChar: G
Encoding: 71 71 35
Width: 609
GlyphClass: 2
Flags: MW
HStem: -10 32<280 384 280 384.5> 328 32<363 505 363 363> 660 33<291 379.5>
VStem: 74 36<235.5 458.5 235.5 464> 505 35<61 328 328 328>
AnchorPoint: "Anchor-11" 337 0 basechar 0
AnchorPoint: "Anchor-10" 0 0 basechar 0
AnchorPoint: "Anchor-9" 349 682 basechar 0
AnchorPoint: "Anchor-8" 0 0 basechar 0
LayerCount: 2
Fore
SplineSet
348 693 m 0
 423 693 472 672 525 631 c 1
 504 607 l 1
 456 644 411 660 348 660 c 0
 234 660 110 572 110 345 c 0
 110 126 208 22 352 22 c 0
 416 22 460 36 505 61 c 1
 505 328 l 1
 363 328 l 1
 359 360 l 1
 540 360 l 1
 540 42 l 1
 483 8 417 -10 352 -10 c 0
 188 -10 74 109 74 345 c 0
 74 583 214 693 348 693 c 0
EndSplineSet
Substitution2: "'c2sc' Capitals to Small Capitals lookup 23 subtable" g.sc
Substitution2: "'aalt' Access All Alternates lookup 0 subtable" g.sc
Position2: "'cpsp' Capital Spacing lookup 0 subtable" dx=5 dy=0 dh=10 dv=0
EndChar
StartChar: H
Encoding: 72 72 109
Width: 663
GlyphClass: 2
Flags: MW
HStem: 0 21G<119 154 119 119 509 544 509 509> 344 32<154 509 154 509> 662 20G<119 154 154 154 509 544 544 544>
VStem: 119 35<0 344 0 376 376 682> 509 35<0 344 344 344 376 682 0 682>
AnchorPoint: "Anchor-14" 330 341 basechar 0
AnchorPoint: "Anchor-13" 0 0 basechar 0
AnchorPoint: "Anchor-12" 330 682 basechar 0
AnchorPoint: "Anchor-11" 0 0 basechar 0
AnchorPoint: "Anchor-10" 332 0 basechar 0
LayerCount: 2
Back
Fore
SplineSet
509 0 m 1
 509 344 l 1
 154 344 l 1
 154 0 l 1
 119 0 l 1
 119 682 l 1
 154 682 l 1
 154 376 l 1
 509 376 l 1
 509 682 l 1
 544 682 l 1
 544 0 l 1
 509 0 l 1
EndSplineSet
Substitution2: "'c2sc' Capitals to Small Capitals lookup 26 subtable" h.sc
Substitution2: "'aalt' Access All Alternates lookup 0 subtable" h.sc
Position2: "'cpsp' Capital Spacing lookup 0 subtable" dx=5 dy=0 dh=10 dv=0
EndChar
StartChar: I
Encoding: 73 73 118
Width: 273
GlyphClass: 2
Flags: MW
HStem: 0 21G<119 154 119 119> 662 20G<119 154 154 154>
VStem: 119 35<0 682 0 682>
AnchorPoint: "Anchor-14" 0 0 basechar 0
AnchorPoint: "Anchor-13" 0 0 basechar 0
AnchorPoint: "Anchor-12" 136 682 basechar 0
AnchorPoint: "Anchor-11" 164 0 basechar 0
AnchorPoint: "Anchor-10" 137 0 basechar 0
LayerCount: 2
Back
Fore
SplineSet
154 682 m 1
 154 0 l 1
 119 0 l 1
 119 682 l 1
 154 682 l 1
EndSplineSet
Substitution2: "'c2sc' Capitals to Small Capitals lookup 26 subtable" i.sc
Substitution2: "'aalt' Access All Alternates lookup 0 subtable" i.sc
Position2: "'cpsp' Capital Spacing lookup 0 subtable" dx=5 dy=0 dh=10 dv=0
EndChar

StartChar: J
Encoding: 74 74 54
Width: 281
GlyphClass: 2
Flags: MW
HStem: 662 20G<133 168 168 168>
VStem: 133 35<91 682>
AnchorPoint: "Anchor-11" 0 0 basechar 0
AnchorPoint: "Anchor-10" 0 0 basechar 0
AnchorPoint: "Anchor-9" 148 682 basechar 0
AnchorPoint: "Anchor-8" 0 0 basechar 0
LayerCount: 2
Fore
SplineSet
168 89 m 2
 168 -17 141 -57 29 -106 c 1
 19 -80 l 1
 110 -37 133 -2 133 91 c 2
 133 682 l 1
 168 682 l 1
 168 89 l 2
EndSplineSet
Substitution2: "'c2sc' Capitals to Small Capitals lookup 23 subtable" j.sc
Substitution2: "'aalt' Access All Alternates lookup 0 subtable" j.sc
Position2: "'cpsp' Capital Spacing lookup 0 subtable" dx=5 dy=0 dh=10 dv=0
EndChar
StartChar: M
Encoding: 77 77 155
Width: 766
GlyphClass: 2
Flags: MW
HStem: 0 21G<74 108 74 74 657 691 657 657> 83 42<383 383 383 399 366 383> 651 31<172 172 589 589>
VStem: 74 617<0 0>
AnchorPoint: "Anchor-14" 0 0 basechar 0
AnchorPoint: "Anchor-13" 0 0 basechar 0
AnchorPoint: "Anchor-12" 382 682 basechar 0
AnchorPoint: "Anchor-11" 0 0 basechar 0
AnchorPoint: "Anchor-10" 0 0 basechar 0
LayerCount: 2
Back
Fore
SplineSet
619 682 m 1
 691 0 l 1
 657 0 l 1
 620 340 l 2
 608 452 594 585 589 651 c 1
 399 83 l 1
 366 83 l 1
 172 651 l 1
 168 592 153 456 142 348 c 2
 108 0 l 1
 74 0 l 1
 144 682 l 1
 196 682 l 1
 383 125 l 1
 566 682 l 1
 619 682 l 1
EndSplineSet
Substitution2: "'c2sc' Capitals to Small Capitals lookup 26 subtable" m.sc
Substitution2: "'aalt' Access All Alternates lookup 0 subtable" m.sc
Position2: "'cpsp' Capital Spacing lookup 0 subtable" dx=5 dy=0 dh=10 dv=0
EndChar
StartChar: P
Encoding: 80 80 218
Width: 562
GlyphClass: 2
Flags: MW
HStem: 0 21G<119 154 119 119> 276 32<154 260 154 263> 651 31<154 265 154 154>
VStem: 119 35<0 276 0 308 308 651> 472 37<415.5 544.5>
AnchorPoint: "Anchor-14" 0 0 basechar 0
AnchorPoint: "Anchor-13" 0 0 basechar 0
AnchorPoint: "Anchor-12" 282 682 basechar 0
AnchorPoint: "Anchor-11" 0 0 basechar 0
AnchorPoint: "Anchor-10" 282 0 basechar 0
LayerCount: 2
Back
Fore
SplineSet
265 682 m 2
 420 682 509 623 509 483 c 0
 509 332 406 276 260 276 c 2
 154 276 l 1
 154 0 l 1
 119 0 l 1
 119 682 l 1
 265 682 l 2
263 308 m 2
 385 308 472 349 472 482 c 0
 472 607 398 651 265 651 c 2
 154 651 l 1
 154 308 l 1
 263 308 l 2
EndSplineSet
Substitution2: "'c2sc' Capitals to Small Capitals lookup 26 subtable" p.sc
Substitution2: "'aalt' Access All Alternates lookup 0 subtable" p.sc
Position2: "'cpsp' Capital Spacing lookup 0 subtable" dx=5 dy=0 dh=10 dv=0
EndChar
StartChar: Q
Encoding: 81 81 223
Width: 675
GlyphClass: 2
Flags: MW
HStem: -8 21<264.5 405> -8 30<276 405> 660 33<275.5 415.5>
VStem: 74 36<234.5 446 234.5 452> 580 36<239.5 447.5>
LayerCount: 2
Back
Fore
SplineSet
432 13 m 1xb8
 505 11 581 -6 637 -56 c 1xb8
 613 -85 l 1
 541 -23 465 -8 345 -8 c 0x78
 184 -8 74 114 74 339 c 0
 74 565 185 693 345 693 c 0
 507 693 616 571 616 340 c 0
 616 139 536 41 432 13 c 1xb8
110 339 m 0x78
 110 130 207 22 345 22 c 0
 491 22 580 130 580 340 c 0
 580 555 486 660 345 660 c 0
 206 660 110 553 110 339 c 0x78
EndSplineSet
Substitution2: "'c2sc' Capitals to Small Capitals lookup 26 subtable" q.sc
Substitution2: "'aalt' Access All Alternates lookup 0 subtable" q.sc
Position2: "'cpsp' Capital Spacing lookup 0 subtable" dx=5 dy=0 dh=10 dv=0
EndChar

StartChar: R
Encoding: 82 82 86
Width: 579
GlyphClass: 2
Flags: MW
HStem: 0 21G<119 154 119 119 496 496 496 540> 318 32<154 281 281 313 154 281> 651 31<154 271 154 154>
VStem: 119 35<0 318 0 350 350 651> 468 37<449.5 550>
AnchorPoint: "Anchor-11" 305 0 basechar 0
AnchorPoint: "Anchor-10" 0 0 basechar 0
AnchorPoint: "Anchor-9" 291 682 basechar 0
AnchorPoint: "Anchor-8" 0 0 basechar 0
LayerCount: 2
Fore
SplineSet
313 318 m 1
 154 318 l 1
 154 0 l 1
 119 0 l 1
 119 682 l 1
 274 682 l 2
 434 682 505 618 505 502 c 0
 505 396 443 345 350 324 c 1
 540 0 l 1
 496 0 l 1
 313 318 l 1
281 350 m 2
 399 350 468 397 468 502 c 0
 468 598 415 651 271 651 c 2
 154 651 l 1
 154 350 l 1
 281 350 l 2
EndSplineSet
Substitution2: "'c2sc' Capitals to Small Capitals lookup 23 subtable" r.sc
Substitution2: "'aalt' Access All Alternates lookup 0 subtable" r.sc
Position2: "'cpsp' Capital Spacing lookup 0 subtable" dx=5 dy=0 dh=10 dv=0
EndChar
StartChar: V
Encoding: 86 86 291
Width: 539
GlyphClass: 2
Flags: MW
HStem: 0 34<270 270 270 291 248 270> 662 20G<24 61 61 61 478 515 515 515>
VStem: 24 491<682 682>
LayerCount: 2
Back
Fore
SplineSet
515 682 m 1
 291 0 l 1
 248 0 l 1
 24 682 l 1
 61 682 l 1
 270 34 l 1
 478 682 l 1
 515 682 l 1
EndSplineSet
Substitution2: "'c2sc' Capitals to Small Capitals lookup 26 subtable" v.sc
Substitution2: "'aalt' Access All Alternates lookup 0 subtable" v.sc
Position2: "'cpsp' Capital Spacing lookup 0 subtable" dx=5 dy=0 dh=10 dv=0
EndChar
StartChar: Y
Encoding: 89 89 302
Width: 503
GlyphClass: 2
Flags: MW
HStem: 0 21G<235 271 235 235> 662 20G<19 59 59 59 445 484 484 484>
VStem: 235 36<0 270 270 270>
AnchorPoint: "Anchor-14" 0 0 basechar 0
AnchorPoint: "Anchor-13" 0 0 basechar 0
AnchorPoint: "Anchor-12" 252 682 basechar 0
AnchorPoint: "Anchor-11" 0 0 basechar 0
AnchorPoint: "Anchor-10" 253 0 basechar 0
LayerCount: 2
Back
Fore
SplineSet
484 682 m 1
 271 271 l 1
 271 0 l 1
 235 0 l 1
 235 270 l 1
 19 682 l 1
 59 682 l 1
 254 300 l 1
 445 682 l 1
 484 682 l 1
EndSplineSet
Substitution2: "'c2sc' Capitals to Small Capitals lookup 26 subtable" y.sc
Substitution2: "'aalt' Access All Alternates lookup 0 subtable" y.sc
Position2: "'cpsp' Capital Spacing lookup 0 subtable" dx=5 dy=0 dh=10 dv=0
EndChar
StartChar: Z
Encoding: 90 90 315
Width: 512
GlyphClass: 2
Flags: MW
HStem: 0 33<81 446> 650 32<77 422 77 462>
VStem: 39 423
AnchorPoint: "Anchor-14" 0 0 basechar 0
AnchorPoint: "Anchor-13" 0 0 basechar 0
AnchorPoint: "Anchor-12" 257 682 basechar 0
AnchorPoint: "Anchor-11" 0 0 basechar 0
AnchorPoint: "Anchor-10" 258 0 basechar 0
LayerCount: 2
Back
Fore
SplineSet
462 682 m 1
 462 652 l 1
 81 33 l 1
 451 33 l 1
 446 0 l 1
 39 0 l 1
 39 31 l 1
 422 650 l 1
 77 650 l 1
 77 682 l 1
 462 682 l 1
EndSplineSet
Substitution2: "'c2sc' Capitals to Small Capitals lookup 26 subtable" z.sc
Substitution2: "'aalt' Access All Alternates lookup 0 subtable" z.sc
Position2: "'cpsp' Capital Spacing lookup 0 subtable" dx=5 dy=0 dh=10 dv=0
EndChar

StartChar: bracketleft
Encoding: 91 91 1005
Width: 314
Flags: MW
HStem: -109 26<129 236 129 236> 774 26<129 236 129 129>
VStem: 98 31<-83 774 -83 800 -83 800>
LayerCount: 2
Fore
SplineSet
236 774 m 1
 129 774 l 1
 129 -83 l 1
 236 -83 l 1
 236 -109 l 1
 98 -109 l 1
 98 800 l 1
 236 800 l 1
 236 774 l 1
EndSplineSet
Substitution2: "'case' Case-Sensitive Forms lookup 25 subtable" bracketleft.case
Substitution2: "'aalt' Access All Alternates lookup 0 subtable" bracketleft.case
EndChar

StartChar: backslash
Encoding: 92 92 979
Width: 520
Flags: MW
HStem: -97 897<159 360>
VStem: 128 263
LayerCount: 2
Fore
SplineSet
391 -89 m 1
 360 -97 l 1
 128 792 l 1
 159 800 l 1
 391 -89 l 1
EndSplineSet
EndChar
StartChar: bracketright
Encoding: 93 93 2143
Width: 314
Flags: MW
HStem: -109 26<78 185 78 216 78 185> 774 26<78 185 78 216>
VStem: 185 31<-83 774 774 774>
LayerCount: 2
Back
Fore
SplineSet
216 800 m 1
 216 -109 l 1
 78 -109 l 1
 78 -83 l 1
 185 -83 l 1
 185 774 l 1
 78 774 l 1
 78 800 l 1
 216 800 l 1
EndSplineSet
Substitution2: "'case' Case-Sensitive Forms lookup 28 subtable" bracketright.case
Substitution2: "'aalt' Access All Alternates lookup 0 subtable" bracketright.case
EndChar

StartChar: asciicircum
Encoding: 94 94 1228
Width: 524
Flags: MW
HStem: 527 300<68 275 68 275 250 456 250 414>
VStem: 68 388<527 527>
LayerCount: 2
Fore
SplineSet
456 527 m 1
 414 527 l 1
 262 786 l 1
 111 527 l 1
 68 527 l 1
 250 827 l 1
 275 827 l 1
 456 527 l 1
EndSplineSet
EndChar

StartChar: underscore
Encoding: 95 95 995
Width: 520
Flags: MW
HStem: -107 31<37 484 37 484>
VStem: 37 447<-107 -76 -107 -76>
LayerCount: 2
Fore
SplineSet
37 -76 m 1
 484 -76 l 1
 484 -107 l 1
 37 -107 l 1
 37 -76 l 1
EndSplineSet
EndChar
StartChar: grave
Encoding: 96 96 2531
Width: 256
Flags: MW
HStem: 714 20G<30 30>
VStem: 30 196<673 734>
LayerCount: 2
Back
Fore
SplineSet
46 769 m 1
 226 673 l 1
 214 650 l 1
 30 734 l 1
 46 769 l 1
EndSplineSet
Substitution2: "Single Substitution lookup 41 subtable" grave.case
Substitution2: "'case' Case-Sensitive Forms lookup 28 subtable" grave.case
Substitution2: "'smcp' Lowercase to Small Capitals lookup 27 subtable" grave.sc
Substitution2: "'c2sc' Capitals to Small Capitals lookup 26 subtable" grave.sc
AlternateSubs2: "'aalt' Access All Alternates lookup 1 subtable" grave.sc grave.case
EndChar

StartChar: b
Encoding: 98 98 146
Width: 572
GlyphClass: 2
Flags: MW
HStem: -10 31<268 353.5 268 367> 0 21G 500 31<275 358.5> 714 20G<114 114> 719 20G<148 148>
VStem: 114 34<112 404 443 734 734 734> 462 35<185 342.5>
LayerCount: 2
Fore
SplineSet
311 531 m 0xae
 431 531 497 436 497 264 c 0
 497 94 430 -10 304 -10 c 0
 232 -10 179 28 147 72 c 1xae
 143 0 l 1
 114 0 l 1
 114 734 l 1x76
 148 739 l 1
 148 443 l 1
 185 494 239 531 311 531 c 0xae
302 21 m 0
 405 21 462 106 462 264 c 0
 462 421 408 500 309 500 c 0
 235 500 190 461 148 404 c 1
 148 112 l 1
 184 58 234 21 302 21 c 0
EndSplineSet
Substitution2: "'smcp' Lowercase to Small Capitals lookup 24 subtable" b.sc
Substitution2: "'aalt' Access All Alternates lookup 0 subtable" b.sc
EndChar

StartChar: c
Encoding: 99 99 147
Width: 463
GlyphClass: 2
Flags: MW
HStem: -10 31<232.5 310 232.5 314.5> 499 32<233.5 310.5>
VStem: 69 36<178.5 337.5 178.5 341.5>
AnchorPoint: "Anchor-11" 283 0 basechar 0
AnchorPoint: "Anchor-10" 0 0 basechar 0
AnchorPoint: "Anchor-9" 282 520 basechar 0
AnchorPoint: "Anchor-8" 0 0 basechar 0
LayerCount: 2
Fore
SplineSet
284 531 m 0
 341 531 381 516 423 480 c 1
 404 457 l 1
 372 485 336 499 285 499 c 0
 182 499 105 418 105 257 c 0
 105 100 181 21 284 21 c 0
 336 21 375 39 410 69 c 1
 428 44 l 1
 391 11 343 -10 286 -10 c 0
 156 -10 69 87 69 257 c 0
 69 426 155 531 284 531 c 0
EndSplineSet
Substitution2: "'smcp' Lowercase to Small Capitals lookup 24 subtable" c.sc
Substitution2: "'aalt' Access All Alternates lookup 0 subtable" c.sc
EndChar

StartChar: d
Encoding: 100 100 153
Width: 576
GlyphClass: 2
Flags: MW
HStem: -10 31<221 308.5 221 310> 0 21G 500 31<230.5 317> 714 20G<463 463> 719 20G<429 429>
VStem: 74 36<182.5 258 182.5 338.5> 429 34<86 86 132 413 413 413 454 734 0 739 0 739>
LayerCount: 2
Fore
SplineSet
463 734 m 1xb6
 463 0 l 1
 433 0 l 1x6e
 429 86 l 1
 402 35 352 -10 268 -10 c 0
 151 -10 74 90 74 258 c 0
 74 419 150 531 278 531 c 0
 357 531 401 491 429 454 c 1
 429 739 l 1xae
 463 734 l 1xb6
270 21 m 0xae
 347 21 393 61 429 132 c 1
 429 413 l 1
 399 460 353 500 281 500 c 0
 180 500 109 411 110 258 c 0
 110 107 172 21 270 21 c 0xae
EndSplineSet
Substitution2: "'smcp' Lowercase to Small Capitals lookup 24 subtable" d.sc
Substitution2: "'aalt' Access All Alternates lookup 0 subtable" d.sc
EndChar
StartChar: e
Encoding: 101 101 410
Width: 530
GlyphClass: 2
Flags: MW
HStem: -10 31<233.5 313 233.5 316.5> 243 29<105 432 105 464 105 432> 500 31<228.5 328>
VStem: 69 36<243 243 243 272 243 341> 432 34<275.5 295 295 355.5>
AnchorPoint: "Anchor-14" 0 0 basechar 0
AnchorPoint: "Anchor-13" 0 0 basechar 0
AnchorPoint: "Anchor-12" 274 520 basechar 0
AnchorPoint: "Anchor-11" 377 5 basechar 0
AnchorPoint: "Anchor-10" 286 0 basechar 0
LayerCount: 2
Back
Fore
SplineSet
466 283 m 0
 466 268 465 252 464 243 c 1
 105 243 l 1
 111 89 184 21 283 21 c 0
 343 21 381 41 427 76 c 1
 445 52 l 1
 399 13 350 -10 283 -10 c 0
 152 -10 69 88 69 256 c 0
 69 426 149 531 271 531 c 0
 402 531 466 432 466 283 c 0
432 272 m 1
 432 295 l 2
 432 416 383 500 273 500 c 0
 184 500 109 431 105 272 c 1
 432 272 l 1
EndSplineSet
Substitution2: "'smcp' Lowercase to Small Capitals lookup 27 subtable" e.sc
Substitution2: "'aalt' Access All Alternates lookup 0 subtable" e.sc
EndChar
StartChar: f
Encoding: 102 102 448
Width: 312
GlyphClass: 2
Flags: MW
HStem: 0 21G<117 151 117 117> 491 29<29 117 29 117 151 291> 708 31<220.5 269>
VStem: 117 34<0 491 0 491 520 612>
AnchorPoint: "Anchor-14" 0 0 basechar 0
AnchorPoint: "Anchor-13" 0 0 basechar 0
AnchorPoint: "Anchor-12" 251 734 basechar 0
AnchorPoint: "Anchor-11" 0 0 basechar 0
AnchorPoint: "Anchor-10" 134 0 basechar 0
LayerCount: 2
Back
Fore
SplineSet
251 708 m 0
 190 708 151 681 151 612 c 2
 151 520 l 1
 296 520 l 1
 291 491 l 1
 151 491 l 1
 151 0 l 1
 117 0 l 1
 117 491 l 1
 29 491 l 1
 29 520 l 1
 117 520 l 1
 117 616 l 2
 117 694 169 739 248 739 c 0
 290 739 331 728 367 710 c 1
 354 683 l 1
 320 699 287 708 251 708 c 0
EndSplineSet
Substitution2: "'smcp' Lowercase to Small Capitals lookup 27 subtable" f.sc
Substitution2: "'aalt' Access All Alternates lookup 0 subtable" f.sc
EndChar
StartChar: h
Encoding: 104 104 469
Width: 582
GlyphClass: 2
Flags: MW
HStem: 0 21G<114 148 114 114 440 474 440 440> 501 30<293 366.5> 714 20G<114 114> 720 20G<148 148>
VStem: 114 34<0 382 423 734 734 734> 440 34<0 366 366 371 0 411>
AnchorPoint: "Anchor-14" 296 260 basechar 0
AnchorPoint: "Anchor-13" 0 0 basechar 0
AnchorPoint: "Anchor-12" 296 734 basechar 0
AnchorPoint: "Anchor-11" 0 0 basechar 0
AnchorPoint: "Anchor-10" 294 0 basechar 0
LayerCount: 2
Back
Fore
SplineSet
333 531 m 0xdc
 426 531 474 470 474 371 c 2
 474 0 l 1
 440 0 l 1
 440 366 l 2
 440 456 403 501 330 501 c 0
 250 501 196 452 148 382 c 1
 148 0 l 1
 114 0 l 1
 114 734 l 1xec
 148 740 l 1
 148 423 l 1
 194 487 253 531 333 531 c 0xdc
EndSplineSet
Substitution2: "'smcp' Lowercase to Small Capitals lookup 27 subtable" h.sc
Substitution2: "'aalt' Access All Alternates lookup 0 subtable" h.sc
EndChar

StartChar: k
Encoding: 107 107 191
Width: 472
GlyphClass: 2
Flags: MW
HStem: 0 21G<114 148 114 114 416 416 416 458> 500 20G<392 434 434 434> 714 20G<114 114> 719 20G<148 148>
VStem: 114 34<0 734 734 734>
AnchorPoint: "Anchor-11" 267 0 basechar 0
AnchorPoint: "Anchor-10" 0 0 basechar 0
AnchorPoint: "Anchor-9" 0 0 basechar 0
AnchorPoint: "Anchor-8" 0 0 basechar 0
LayerCount: 2
Fore
SplineSet
148 0 m 1xd8
 114 0 l 1
 114 734 l 1xe8
 148 739 l 1
 148 0 l 1xd8
196 286 m 1
 458 0 l 1
 416 0 l 1
 154 284 l 1
 392 520 l 1
 434 520 l 1
 196 286 l 1
EndSplineSet
Substitution2: "'smcp' Lowercase to Small Capitals lookup 24 subtable" k.sc
Substitution2: "'aalt' Access All Alternates lookup 0 subtable" k.sc
EndChar
StartChar: m
Encoding: 109 109 530
Width: 850
GlyphClass: 2
Flags: MW
HStem: 0 21G<114 148 114 114 410 444 410 410 707 741 707 707> 500 20G<114 143 143 143> 501 30<280 343 576 639.5>
VStem: 114 34<0 382 0 520> 410 34<0 366 366 382 0 411> 707 34<0 366 366 371 0 411>
AnchorPoint: "Anchor-14" 0 0 basechar 0
AnchorPoint: "Anchor-13" 0 0 basechar 0
AnchorPoint: "Anchor-12" 425 520 basechar 0
AnchorPoint: "Anchor-11" 0 0 basechar 0
AnchorPoint: "Anchor-10" 425 0 basechar 0
LayerCount: 2
Back
Fore
SplineSet
610 531 m 0xbc
 693 531 741 470 741 371 c 2
 741 0 l 1
 707 0 l 1
 707 366 l 2
 707 456 671 501 608 501 c 0
 540 501 487 452 444 382 c 1
 444 0 l 1
 410 0 l 1
 410 366 l 2
 410 456 375 501 311 501 c 0xbc
 244 501 190 452 148 382 c 1
 148 0 l 1
 114 0 l 1
 114 520 l 1
 143 520 l 1xdc
 147 424 l 1
 188 487 247 531 313 531 c 0
 382 531 427 490 440 419 c 1
 482 485 542 531 610 531 c 0xbc
EndSplineSet
Substitution2: "'smcp' Lowercase to Small Capitals lookup 27 subtable" m.sc
Substitution2: "'aalt' Access All Alternates lookup 0 subtable" m.sc
EndChar

StartChar: n
Encoding: 110 110 201
Width: 582
GlyphClass: 2
Flags: MW
HStem: 0 21G<114 148 114 114 440 474 440 440> 500 20G<114 143 143 143> 501 30<292.5 366.5>
VStem: 114 34<0 382 0 520> 440 34<0 366 366 371 0 412>
AnchorPoint: "Anchor-11" 289 0 basechar 0
AnchorPoint: "Anchor-10" 104 520 basechar 0
AnchorPoint: "Anchor-9" 297 520 basechar 0
AnchorPoint: "Anchor-8" 0 0 basechar 0
LayerCount: 2
Fore
SplineSet
333 531 m 0xb8
 427 531 474 472 474 371 c 2
 474 0 l 1
 440 0 l 1
 440 366 l 2
 440 458 403 501 330 501 c 0xb8
 250 501 196 452 148 382 c 1
 148 0 l 1
 114 0 l 1
 114 520 l 1
 143 520 l 1xd8
 147 423 l 1
 193 487 252 531 333 531 c 0xb8
EndSplineSet
Substitution2: "'smcp' Lowercase to Small Capitals lookup 24 subtable" n.sc
Substitution2: "'aalt' Access All Alternates lookup 0 subtable" n.sc
EndChar

StartChar: p
Encoding: 112 112 220
Width: 572
GlyphClass: 2
Flags: MW
HStem: -200 21G<114 114> -194 21G<148 148> -10 31<268 354 268 367> 500 20 500 31<275 359>
VStem: 114 34<-194 71 111 404> 462 35<185 342.5>
LayerCount: 2
Fore
SplineSet
311 531 m 0x6e
 432 531 497 436 497 264 c 0
 497 95 430 -10 304 -10 c 0
 232 -10 179 27 148 71 c 1
 148 -194 l 1x6e
 114 -200 l 1
 114 520 l 1
 143 520 l 1xb6
 146 442 l 1
 184 493 239 531 311 531 c 0x6e
302 21 m 0
 406 21 462 106 462 264 c 0
 462 421 409 500 309 500 c 0
 235 500 190 461 148 404 c 1
 148 111 l 1
 184 58 234 21 302 21 c 0
EndSplineSet
Substitution2: "'smcp' Lowercase to Small Capitals lookup 24 subtable" p.sc
Substitution2: "'aalt' Access All Alternates lookup 0 subtable" p.sc
EndChar
StartChar: q
Encoding: 113 113 603
Width: 571
GlyphClass: 2
Flags: MW
HStem: -200 21G<458 458> -194 21G<424 424> -10 31<216.5 304.5 216.5 305> 500 20 500 31<226 312.5>
VStem: 69 36<182.5 258 182.5 338.5> 424 34<-194 83 83 83 129 415 415 415>
AnchorPoint: "Anchor-14" 0 0 basechar 0
AnchorPoint: "Anchor-13" 0 0 basechar 0
AnchorPoint: "Anchor-12" 286 520 basechar 0
AnchorPoint: "Anchor-11" 0 0 basechar 0
AnchorPoint: "Anchor-10" 286 -194 basechar 0
LayerCount: 2
Back
Fore
SplineSet
428 520 m 1x76
 458 520 l 1
 458 -200 l 1xb6
 424 -194 l 1
 424 83 l 1
 396 33 347 -10 263 -10 c 0
 146 -10 69 90 69 258 c 0
 69 419 145 531 274 531 c 0
 353 531 398 491 425 454 c 1x6e
 428 520 l 1x76
266 21 m 0
 343 21 388 60 424 129 c 1
 424 415 l 1
 393 460 348 500 277 500 c 0x6e
 175 500 104 411 105 258 c 0
 105 107 167 21 266 21 c 0
EndSplineSet
Substitution2: "'smcp' Lowercase to Small Capitals lookup 27 subtable" q.sc
Substitution2: "'aalt' Access All Alternates lookup 0 subtable" q.sc
EndChar

StartChar: r
Encoding: 114 114 223
Width: 364
GlyphClass: 2
Flags: MW
HStem: 0 21G<114 148 114 114> 500 20 500 31<259 305.5> 505 20G<350 350>
VStem: 114 34<0 332 0 520>
AnchorPoint: "Anchor-11" 130 0 basechar 0
AnchorPoint: "Anchor-10" 0 0 basechar 0
AnchorPoint: "Anchor-9" 230 520 basechar 0
AnchorPoint: "Anchor-8" 0 0 basechar 0
LayerCount: 2
Fore
SplineSet
298 531 m 0xa8
 321 531 338 528 350 525 c 1x98
 343 494 l 1
 330 498 314 500 297 500 c 0xa8
 220 500 179 444 148 332 c 1
 148 0 l 1
 114 0 l 1
 114 520 l 1
 143 520 l 1xc8
 145 396 l 1
 173 486 220 531 298 531 c 0xa8
EndSplineSet
Substitution2: "'smcp' Lowercase to Small Capitals lookup 24 subtable" r.sc
Substitution2: "'aalt' Access All Alternates lookup 0 subtable" r.sc
EndChar
StartChar: s
Encoding: 115 115 623
Width: 461
GlyphClass: 2
Flags: MW
HStem: -10 31<193 268 193 279> 500 31<195 260.5>
VStem: 68 35<370 430 370 438.5> 368 35<98 170.5>
AnchorPoint: "Anchor-14" 0 0 basechar 0
AnchorPoint: "Anchor-13" 0 0 basechar 0
AnchorPoint: "Anchor-12" 236 520 basechar 0
AnchorPoint: "Anchor-11" 0 0 basechar 0
AnchorPoint: "Anchor-10" 230 0 basechar 0
LayerCount: 2
Back
Fore
SplineSet
231 531 m 0
 293 531 341 512 390 473 c 1
 371 450 l 1
 325 484 288 500 233 500 c 0
 157 500 103 461 103 399 c 0
 103 341 140 316 239 290 c 0
 357 258 403 223 403 136 c 0
 403 48 330 -10 228 -10 c 0
 145 -10 93 19 48 56 c 1
 68 78 l 1
 115 42 158 21 228 21 c 0
 308 21 368 61 368 135 c 0
 368 206 336 232 223 263 c 0
 113 292 68 327 68 400 c 0
 68 477 139 531 231 531 c 0
EndSplineSet
Substitution2: "'smcp' Lowercase to Small Capitals lookup 27 subtable" s.sc
Substitution2: "'sups' Superscript lookup 14 subtable" uni02E2
AlternateSubs2: "'aalt' Access All Alternates lookup 1 subtable" uni02E2 s.sc
EndChar
StartChar: t
Encoding: 116 116 638
Width: 327
GlyphClass: 2
Flags: MW
HStem: -10 31<201 246.5 201 247.5> 491 29<24 109 24 109 143 280>
VStem: 109 34<119 121 121 491 520 650 650 650>
AnchorPoint: "Anchor-14" 158 260 basechar 0
AnchorPoint: "Anchor-13" 158 736 basechar 0
AnchorPoint: "Anchor-12" 126 650 basechar 0
AnchorPoint: "Anchor-11" 0 0 basechar 0
AnchorPoint: "Anchor-10" 223 0 basechar 0
LayerCount: 2
Back
Fore
SplineSet
317 46 m 1
 332 20 l 1
 303 2 268 -10 227 -10 c 0
 155 -10 109 33 109 119 c 2
 109 491 l 1
 24 491 l 1
 24 520 l 1
 109 520 l 1
 109 650 l 1
 143 653 l 1
 143 520 l 1
 285 520 l 1
 280 491 l 1
 143 491 l 1
 143 121 l 2
 143 55 172 21 230 21 c 0
 263 21 291 31 317 46 c 1
EndSplineSet
Substitution2: "'smcp' Lowercase to Small Capitals lookup 27 subtable" t.sc
Substitution2: "'aalt' Access All Alternates lookup 0 subtable" t.sc
EndChar
StartChar: u
Encoding: 117 117 661
Width: 577
GlyphClass: 2
Flags: MW
HStem: -10 31<223.5 299.5> 0 21G 500 20G<109 143 143 143 430 464 464 464>
VStem: 109 34<149 152 152 520> 430 34<139 520 0 520>
AnchorPoint: "Anchor-14" 0 0 basechar 0
AnchorPoint: "Anchor-13" 474 520 basechar 0
AnchorPoint: "Anchor-12" 286 520 basechar 0
AnchorPoint: "Anchor-11" 474 0 basechar 0
AnchorPoint: "Anchor-10" 286 0 basechar 0
LayerCount: 2
Back
Fore
SplineSet
464 520 m 1xb8
 464 0 l 1
 434 0 l 1x78
 433 101 l 1
 399 40 342 -10 257 -10 c 0
 163 -10 109 46 109 149 c 2
 109 520 l 1
 143 520 l 1
 143 152 l 2
 143 61 185 21 262 21 c 0
 339 21 390 70 430 139 c 1
 430 520 l 1
 464 520 l 1xb8
EndSplineSet
Substitution2: "'smcp' Lowercase to Small Capitals lookup 27 subtable" u.sc
Substitution2: "'aalt' Access All Alternates lookup 0 subtable" u.sc
EndChar
StartChar: v
Encoding: 118 118 690
Width: 455
GlyphClass: 2
Flags: MW
HStem: 0 30<231 231 231 254 210 231> 500 20G<19 58 58 58 398 435 435 435>
VStem: 19 416<520 520>
AnchorPoint: "Anchor-14" 0 0 basechar 0
AnchorPoint: "Anchor-13" 0 0 basechar 0
AnchorPoint: "Anchor-12" 228 520 basechar 0
AnchorPoint: "Anchor-11" 0 0 basechar 0
AnchorPoint: "Anchor-10" 232 0 basechar 0
LayerCount: 2
Back
Fore
SplineSet
435 520 m 1
 254 0 l 1
 210 0 l 1
 19 520 l 1
 58 520 l 1
 231 30 l 1
 398 520 l 1
 435 520 l 1
EndSplineSet
Substitution2: "'smcp' Lowercase to Small Capitals lookup 27 subtable" v.sc
Substitution2: "'aalt' Access All Alternates lookup 0 subtable" v.sc
EndChar

StartChar: x
Encoding: 120 120 256
Width: 440
GlyphClass: 2
Flags: MW
HStem: 0 21G<14 54 14 14 385 426 385 385> 500 20G<39 79 79 79 362 401 401 401>
VStem: 14 412<0 0>
LayerCount: 2
Fore
SplineSet
426 0 m 1
 385 0 l 1
 218 258 l 1
 54 0 l 1
 14 0 l 1
 198 278 l 1
 39 520 l 1
 79 520 l 1
 220 299 l 1
 362 520 l 1
 401 520 l 1
 240 279 l 1
 426 0 l 1
EndSplineSet
Substitution2: "'smcp' Lowercase to Small Capitals lookup 24 subtable" x.sc
Substitution2: "'aalt' Access All Alternates lookup 0 subtable" x.sc
EndChar

StartChar: y
Encoding: 121 121 257
Width: 451
GlyphClass: 2
Flags: MW
HStem: -198 21G<58 58> 0 21G<204 217 204 204> 0 26<204 227 204 227> 500 20G<19 57 57 57 394 431 431 431>
VStem: 19 412<520 520>
AnchorPoint: "Anchor-11" 0 0 basechar 0
AnchorPoint: "Anchor-10" 0 0 basechar 0
AnchorPoint: "Anchor-9" 218 520 basechar 0
AnchorPoint: "Anchor-8" 0 0 basechar 0
LayerCount: 2
Fore
SplineSet
249 -2 m 2xd8
 209 -117 172 -167 58 -198 c 1
 54 -171 l 1
 158 -141 181 -99 217 0 c 1
 204 0 l 1
 19 520 l 1
 57 520 l 1
 227 26 l 1xb8
 394 520 l 1
 431 520 l 1
 249 -2 l 2xd8
EndSplineSet
Substitution2: "'smcp' Lowercase to Small Capitals lookup 24 subtable" y.sc
Substitution2: "'aalt' Access All Alternates lookup 0 subtable" y.sc
EndChar
StartChar: z
Encoding: 122 122 716
Width: 412
GlyphClass: 2
Flags: MW
HStem: 0 31<72 368> 489 31<55 335 55 377>
VStem: 30 347
AnchorPoint: "Anchor-14" 0 0 basechar 0
AnchorPoint: "Anchor-13" 0 0 basechar 0
AnchorPoint: "Anchor-12" 214 520 basechar 0
AnchorPoint: "Anchor-11" 0 0 basechar 0
AnchorPoint: "Anchor-10" 208 0 basechar 0
LayerCount: 2
Back
Fore
SplineSet
377 520 m 1
 377 493 l 1
 72 31 l 1
 371 31 l 1
 368 0 l 1
 30 0 l 1
 30 28 l 1
 335 489 l 1
 55 489 l 1
 55 520 l 1
 377 520 l 1
EndSplineSet
Substitution2: "'smcp' Lowercase to Small Capitals lookup 27 subtable" z.sc
Substitution2: "'aalt' Access All Alternates lookup 0 subtable" z.sc
EndChar
StartChar: braceleft
Encoding: 123 123 2140
Width: 329
Flags: MW
HStem: -125 26<220.5 251 220.5 251> 333 32<58 81.5> 797 26<220.5 251>
VStem: 138 31<-16 -12 -12 251 436 447 447 710>
LayerCount: 2
Back
Fore
SplineSet
251 823 m 1
 251 797 l 1
 190 797 169 769 169 710 c 2
 169 447 l 2
 169 380 145 359 94 349 c 1
 145 339 169 318 169 251 c 2
 169 -12 l 2
 169 -70 190 -99 251 -99 c 1
 251 -125 l 1
 180 -125 138 -92 138 -16 c 2
 138 262 l 2
 138 315 105 333 58 333 c 1
 58 365 l 1
 105 365 138 383 138 436 c 2
 138 714 l 2
 138 790 180 823 251 823 c 1
EndSplineSet
Substitution2: "'case' Case-Sensitive Forms lookup 28 subtable" braceleft.case
Substitution2: "'aalt' Access All Alternates lookup 0 subtable" braceleft.case
EndChar
StartChar: bar
Encoding: 124 124 2370
Width: 410
GlyphClass: 2
Flags: MW
HStem: -99 901<188 221 188 221>
VStem: 188 33<-99 802 -99 802>
LayerCount: 2
Back
Fore
SplineSet
221 802 m 1
 221 -99 l 1
 188 -99 l 1
 188 802 l 1
 221 802 l 1
EndSplineSet
EndChar
StartChar: braceright
Encoding: 125 125 2141
Width: 329
Flags: MW
HStem: -125 26<78 108 78 113> 333 32<247 271> 797 26<78 108>
VStem: 160 31<-12 251 251 262 447 710 710 714>
LayerCount: 2
Back
Fore
SplineSet
78 823 m 1
 148 823 191 790 191 714 c 2
 191 436 l 2
 191 383 223 365 271 365 c 1
 271 333 l 1
 223 333 191 315 191 262 c 2
 191 -16 l 2
 191 -92 148 -125 78 -125 c 1
 78 -99 l 1
 138 -99 160 -70 160 -12 c 2
 160 251 l 2
 160 318 184 339 235 349 c 1
 184 359 160 380 160 447 c 2
 160 710 l 2
 160 769 138 797 78 797 c 1
 78 823 l 1
EndSplineSet
Substitution2: "'case' Case-Sensitive Forms lookup 28 subtable" braceright.case
Substitution2: "'aalt' Access All Alternates lookup 0 subtable" braceright.case
EndChar

StartChar: exclamdown
Encoding: 161 161 986
Width: 240
Flags: MW
HStem: -194 21G<104 137 104 104> 396 64<110 129.5>
VStem: 87 66<419.5 437.5> 104 33<-194 251>
LayerCount: 2
Fore
SplineSet
120 460 m 0xe0
 139 460 153 446 153 429 c 0
 153 410 139 396 120 396 c 0
 100 396 87 410 87 429 c 0
 87 446 100 460 120 460 c 0xe0
137 -194 m 1xd0
 104 -194 l 1
 104 251 l 1
 137 251 l 1
 137 -194 l 1xd0
EndSplineSet
Substitution2: "'case' Case-Sensitive Forms lookup 25 subtable" exclamdown.case
Substitution2: "'aalt' Access All Alternates lookup 0 subtable" exclamdown.case
EndChar

StartChar: cent
Encoding: 162 162 1060
Width: 463
Flags: MW
HStem: -10 31<298 298> -9 30<268 268> 499 32<269 269 269 298 269 310.5>
VStem: 69 36<178.5 337.5 178.5 338> 269 29<531 677>
LayerCount: 2
Fore
SplineSet
428 44 m 1xb8
 394 13 350 -7 298 -10 c 1xb8
 298 -147 l 1
 268 -147 l 1
 268 -9 l 1x78
 148 -1 69 95 69 257 c 0
 69 419 148 523 269 531 c 1
 269 677 l 1
 298 677 l 1
 298 531 l 1
 348 528 385 513 423 480 c 1
 404 457 l 1
 372 485 336 499 285 499 c 0
 182 499 105 418 105 257 c 0
 105 100 181 21 284 21 c 0
 336 21 375 39 410 69 c 1
 428 44 l 1xb8
EndSplineSet
Substitution2: "'onum' Oldstyle Figures lookup 22 subtable" cent.osf
Substitution2: "'tnum' Tabular Numbers lookup 21 subtable" cent.tf
AlternateSubs2: "'aalt' Access All Alternates lookup 1 subtable" cent.tf cent.osf
EndChar

StartChar: yen
Encoding: 165 165 1066
Width: 495
Flags: MW
HStem: 0 21G<231 266 231 231> 160 31<98 231 98 231 266 400> 303 30<98 217 98 231 98 217 280 400>
VStem: 231 35<0 160 0 160 191 303>
LayerCount: 2
Fore
SplineSet
280 333 m 1
 400 333 l 1
 400 303 l 1
 266 303 l 1
 266 191 l 1
 400 191 l 1
 400 160 l 1
 266 160 l 1
 266 0 l 1
 231 0 l 1
 231 160 l 1
 98 160 l 1
 98 191 l 1
 231 191 l 1
 231 303 l 1
 98 303 l 1
 98 333 l 1
 217 333 l 1
 19 662 l 1
 59 662 l 1
 249 336 l 1
 437 662 l 1
 476 662 l 1
 280 333 l 1
EndSplineSet
Substitution2: "'onum' Oldstyle Figures lookup 22 subtable" yen.osf
Substitution2: "'tnum' Tabular Numbers lookup 21 subtable" yen.tf
AlternateSubs2: "'aalt' Access All Alternates lookup 1 subtable" yen.tf yen.osf
EndChar

StartChar: brokenbar
Encoding: 166 166 1217
Width: 410
Flags: MW
HStem: -64 831<188 221 188 221>
VStem: 188 33<-64 297 408 767>
LayerCount: 2
Fore
SplineSet
221 408 m 1
 188 408 l 1
 188 767 l 1
 221 767 l 1
 221 408 l 1
221 -64 m 1
 188 -64 l 1
 188 297 l 1
 221 297 l 1
 221 -64 l 1
EndSplineSet
EndChar
StartChar: dieresis
Encoding: 168 168 2529
Width: 291
Flags: MW
HStem: 669 54<49 65.5 223.5 240.5>
VStem: 30 55<688.5 703.5> 204 56<688.5 703.5>
LayerCount: 2
Back
Fore
SplineSet
57 723 m 0
 74 723 85 711 85 696 c 0
 85 681 74 669 57 669 c 0
 41 669 30 681 30 696 c 0
 30 711 41 723 57 723 c 0
232 723 m 0
 249 723 260 711 260 696 c 0
 260 681 249 669 232 669 c 0
 215 669 204 681 204 696 c 0
 204 711 215 723 232 723 c 0
EndSplineSet
Substitution2: "Single Substitution lookup 41 subtable" dieresis.case
Substitution2: "'case' Case-Sensitive Forms lookup 28 subtable" dieresis.case
Substitution2: "'smcp' Lowercase to Small Capitals lookup 27 subtable" dieresis.sc
Substitution2: "'c2sc' Capitals to Small Capitals lookup 26 subtable" dieresis.sc
AlternateSubs2: "'aalt' Access All Alternates lookup 1 subtable" dieresis.sc dieresis.case
EndChar

StartChar: copyright
Encoding: 169 169 1221
Width: 810
Flags: MW
HStem: 143 29<332.5 478.5 332.5 486.5> 261 30<377.5 426.5 377.5 428> 579 30<384.5 423> 698 29<332.5 478.5>
VStem: 120 33<356.5 512 356.5 520> 268 34<387.5 492.5 387.5 497> 657 33<358 513.5>
LayerCount: 2
Fore
SplineSet
405 727 m 0
 568 727 690 607 690 435 c 0
 690 265 568 143 405 143 c 0
 242 143 120 263 120 435 c 0
 120 605 242 727 405 727 c 0
406 698 m 0
 259 698 153 589 153 435 c 0
 153 278 259 172 406 172 c 0
 551 172 657 281 657 435 c 0
 657 592 551 698 406 698 c 0
406 609 m 0
 445 609 471 598 497 578 c 1
 481 556 l 1
 459 571 440 579 406 579 c 0
 363 579 302 548 302 437 c 0
 302 338 348 291 407 291 c 0
 446 291 469 304 490 319 c 1
 506 296 l 1
 482 277 450 261 406 261 c 0
 325 261 268 330 268 437 c 0
 268 557 342 609 406 609 c 0
EndSplineSet
EndChar

StartChar: ordfeminine
Encoding: 170 170 415
Width: 500
GlyphClass: 2
Flags: MW
HStem: 0 32<87 427 87 427> 276 30<190 245.5> 489 29<255 261 261 344> 652 30<225 281.5>
VStem: 88 36<364 425.5 364 433> 344 34<381 489 489 489 518 559 559 562>
LayerCount: 2
Fore
SplineSet
217 276 m 0
 137 276 88 321 88 392 c 0
 88 474 156 518 255 518 c 2
 344 518 l 1
 344 559 l 2
 344 623 320 652 243 652 c 0
 207 652 170 643 131 629 c 1
 121 657 l 1
 163 673 201 682 244 682 c 0
 337 682 378 643 378 562 c 2
 378 368 l 2
 378 319 390 308 412 299 c 1
 404 276 l 1
 371 284 352 302 348 342 c 1
 318 298 274 276 217 276 c 0
261 489 m 2
 176 489 124 459 124 392 c 0
 124 336 162 306 218 306 c 0
 277 306 317 335 344 381 c 1
 344 489 l 1
 261 489 l 2
427 32 m 1
 427 0 l 1
 87 0 l 1
 87 32 l 1
 427 32 l 1
EndSplineSet
EndChar

StartChar: guillemotleft
Encoding: 171 171 1034
Width: 541
Flags: MW
HStem: 68 441<238 238 238 436>
VStem: 83 375<83 299 83 299>
LayerCount: 2
Fore
SplineSet
261 494 m 1
 122 288 l 1
 261 83 l 1
 238 68 l 1
 83 277 l 1
 83 299 l 1
 238 509 l 1
 261 494 l 1
458 494 m 1
 320 288 l 1
 458 83 l 1
 436 68 l 1
 281 277 l 1
 281 299 l 1
 436 509 l 1
 458 494 l 1
EndSplineSet
Substitution2: "'case' Case-Sensitive Forms lookup 25 subtable" guillemotleft.case
Substitution2: "'aalt' Access All Alternates lookup 0 subtable" guillemotleft.case
EndChar
StartChar: logicalnot
Encoding: 172 172 2261
Width: 498
GlyphClass: 2
Flags: MW
HStem: 304 33<74 389 74 424>
VStem: 389 35<188 304 304 304>
LayerCount: 2
Back
Fore
SplineSet
424 337 m 1
 424 188 l 1
 389 188 l 1
 389 304 l 1
 74 304 l 1
 74 337 l 1
 424 337 l 1
EndSplineSet
Substitution2: "'onum' Oldstyle Figures lookup 25 subtable" logicalnot.osf
Substitution2: "'tnum' Tabular Numbers lookup 24 subtable" logicalnot.tf
AlternateSubs2: "'aalt' Access All Alternates lookup 1 subtable" logicalnot.tf logicalnot.osf
EndChar
StartChar: uni00AD
Encoding: 173 173 2168
Width: 399
Flags: MW
HStem: 297 32<74 325 74 325>
VStem: 74 251<297 329 297 329>
LayerCount: 2
Back
Fore
SplineSet
74 297 m 1
 74 329 l 1
 325 329 l 1
 325 297 l 1
 74 297 l 1
EndSplineSet
Substitution2: "'case' Case-Sensitive Forms lookup 28 subtable" uni00AD.case
Substitution2: "'aalt' Access All Alternates lookup 0 subtable" uni00AD.case
EndChar
StartChar: registered
Encoding: 174 174 2376
Width: 638
GlyphClass: 2
Flags: MW
HStem: 270 27<264 374.5 264 383.5> 483 27<274 318 274 319> 609 28<274 274 274 305 305 310> 700 28<264 375.5>
VStem: 89 29<439.5 553.5 439.5 560.5> 242 32<367 483 367 510 510 609> 380 32<540 578> 520 30<443.5 557.5>
LayerCount: 2
Back
Fore
SplineSet
319 728 m 0
 448 728 550 631 550 500 c 0
 550 373 448 270 319 270 c 0
 190 270 89 366 89 497 c 0
 89 624 190 728 319 728 c 0
319 297 m 0
 430 297 520 387 520 500 c 0
 520 615 432 700 319 700 c 0
 209 700 118 610 118 497 c 0
 118 382 209 297 319 297 c 0
412 558 m 0
 412 518 389 496 350 487 c 1
 424 367 l 1
 385 367 l 1
 318 483 l 1
 274 483 l 1
 274 367 l 1
 242 367 l 1
 242 637 l 1
 305 637 l 2
 378 637 412 611 412 558 c 0
274 609 m 1
 274 510 l 1
 319 510 l 2
 356 510 380 522 380 558 c 0
 380 598 355 609 310 609 c 2
 274 609 l 1
EndSplineSet
EndChar

StartChar: macron
Encoding: 175 175 1259
Width: 278
Flags: MW
HStem: 682 32<30 248 30 248>
VStem: 30 218<682 714 682 714>
LayerCount: 2
Fore
SplineSet
30 682 m 1
 30 714 l 1
 248 714 l 1
 248 682 l 1
 30 682 l 1
EndSplineSet
Substitution2: "'case' Case-Sensitive Forms lookup 25 subtable" macron.case
Substitution2: "'smcp' Lowercase to Small Capitals lookup 24 subtable" macron.sc
Substitution2: "'c2sc' Capitals to Small Capitals lookup 23 subtable" macron.sc
AlternateSubs2: "'aalt' Access All Alternates lookup 1 subtable" macron.sc macron.case
EndChar

StartChar: degree
Encoding: 176 176 1225
Width: 519
Flags: MW
HStem: 405 31<189 252.5 189 258> 662 31<189 252.5>
VStem: 78 34<516 582.5 516 593> 327 34<515.5 582>
LayerCount: 2
Fore
SplineSet
219 405 m 0
 147 405 78 459 78 549 c 0
 78 637 147 693 219 693 c 0
 297 693 361 637 361 548 c 0
 361 462 297 405 219 405 c 0
219 436 m 0
 286 436 327 483 327 548 c 0
 327 616 286 662 219 662 c 0
 159 662 112 616 112 549 c 0
 112 483 159 436 219 436 c 0
EndSplineSet
Substitution2: "'onum' Oldstyle Figures lookup 22 subtable" degree.osf
Substitution2: "'tnum' Tabular Numbers lookup 21 subtable" degree.tf
AlternateSubs2: "'aalt' Access All Alternates lookup 1 subtable" degree.tf degree.osf
EndChar
StartChar: plusminus
Encoding: 177 177 2298
Width: 489
GlyphClass: 2
Flags: MW
HStem: 0 32<74 415 74 415> 316 32<74 228 74 228 262 415>
VStem: 228 34<162 316 162 316 348 502>
LayerCount: 2
Back
Fore
SplineSet
262 502 m 1
 262 348 l 1
 415 348 l 1
 415 316 l 1
 262 316 l 1
 262 162 l 1
 228 162 l 1
 228 316 l 1
 74 316 l 1
 74 348 l 1
 228 348 l 1
 228 502 l 1
 262 502 l 1
74 0 m 1
 74 32 l 1
 415 32 l 1
 415 0 l 1
 74 0 l 1
EndSplineSet
Substitution2: "'onum' Oldstyle Figures lookup 25 subtable" plusminus.osf
Substitution2: "'tnum' Tabular Numbers lookup 24 subtable" plusminus.tf
AlternateSubs2: "'aalt' Access All Alternates lookup 1 subtable" plusminus.tf plusminus.osf
EndChar

StartChar: twosuperior
Encoding: 178 178 970
Width: 400
Flags: MW
HStem: 323 30<121 320> 662 20G<74 74> 710 30<174.5 221.5>
VStem: 279 34<594.5 656>
LayerCount: 2
Fore
SplineSet
198 740 m 0
 270 740 313 694 313 633 c 0
 313 548 268 501 121 353 c 1
 326 353 l 1
 320 323 l 1
 81 323 l 1
 81 352 l 1
 244 517 279 559 279 630 c 0
 279 682 247 710 196 710 c 0xb0
 153 710 122 692 98 664 c 1xf0
 74 682 l 1
 110 723 148 740 198 740 c 0
EndSplineSet
EndChar

StartChar: threesuperior
Encoding: 179 179 971
Width: 400
Flags: MW
HStem: 316 29<173.5 225.5 173.5 234> 526 28<173 192 192 196 169 192> 713 29<180.5 224.5>
VStem: 285 33<611.5 662> 295 33<410.5 470>
LayerCount: 2
Fore
SplineSet
201 742 m 0xf0
 271 742 318 700 318 639 c 0xf0
 318 584 283 550 233 542 c 1
 285 540 328 504 328 438 c 0
 328 366 276 316 192 316 c 0
 141 316 103 335 71 369 c 1
 92 387 l 1
 124 355 156 345 191 345 c 0
 260 345 295 383 295 438 c 0
 295 502 255 526 196 526 c 2xe8
 169 526 l 1
 173 554 l 1
 192 554 l 2
 236 554 285 578 285 638 c 0
 285 686 250 713 199 713 c 0
 162 713 135 703 100 675 c 1
 82 696 l 1
 116 725 149 742 201 742 c 0xf0
EndSplineSet
EndChar
StartChar: acute
Encoding: 180 180 2511
Width: 258
Flags: MW
HStem: 650 119
VStem: 30 196<673 734>
LayerCount: 2
Back
Fore
SplineSet
210 769 m 1
 226 734 l 1
 42 650 l 1
 30 673 l 1
 210 769 l 1
EndSplineSet
Substitution2: "Single Substitution lookup 41 subtable" acute.case
Substitution2: "'case' Case-Sensitive Forms lookup 28 subtable" acute.case
Substitution2: "'smcp' Lowercase to Small Capitals lookup 27 subtable" acute.sc
Substitution2: "'c2sc' Capitals to Small Capitals lookup 26 subtable" acute.sc
Substitution2: "'locl' Localized Forms in Latin lookup 7 subtable" acute.loclPLK
AlternateSubs2: "'aalt' Access All Alternates lookup 1 subtable" acute.loclPLK acute.sc acute.case
EndChar
StartChar: uni00B5
Encoding: 181 181 2262
Width: 583
GlyphClass: 2
Flags: MW
HStem: -194 21G<148 148> -10 31<230.5 295.5 230.5 301> -7 21G<459 459> -4 21G<490 490> 500 20G<114 148 148 148 427 461 461 461>
VStem: 114 34<-194 -69 100 146 146 520> 427 34<153 174 174 520>
LayerCount: 2
Back
Fore
SplineSet
490 -4 m 1x9e
 459 -7 l 1xae
 443 35 436 61 432 113 c 1
 394 45 343 -10 259 -10 c 0
 197 -10 161 19 142 61 c 1
 146 16 148 -19 148 -69 c 2
 148 -194 l 1
 114 -196 l 1
 114 520 l 1
 148 520 l 1
 148 146 l 2
 148 54 202 21 259 21 c 0xce
 332 21 386 73 427 153 c 1
 427 520 l 1
 461 520 l 1
 461 174 l 2
 461 97 472 47 490 -4 c 1x9e
EndSplineSet
EndChar
StartChar: paragraph
Encoding: 182 182 2374
Width: 690
GlyphClass: 2
Flags: MW
HStem: -200 21G<326 326 498 498> -194 21G<360 360 531 531> 651 31
VStem: 326 34<-194 303 303 303> 498 33<-194 651 651 651>
LayerCount: 2
Back
Fore
SplineSet
330 681 m 2x78
 531 682 l 1
 531 -194 l 1x78
 498 -200 l 1xb8
 498 651 l 1
 360 651 l 1
 360 -194 l 1x78
 326 -200 l 1xb8
 326 303 l 1
 163 307 109 392 109 492 c 0
 109 613 189 681 330 681 c 2x78
EndSplineSet
EndChar
StartChar: periodcentered
Encoding: 183 183 2114
Width: 184
Flags: MW
HStem: 292 65<82.5 102>
VStem: 59 65<315.5 333>
LayerCount: 2
Back
Fore
SplineSet
92 357 m 0
 112 357 124 342 124 324 c 0
 124 307 112 292 92 292 c 0
 73 292 59 307 59 324 c 0
 59 342 73 357 92 357 c 0
EndSplineSet
EndChar
StartChar: cedilla
Encoding: 184 184 2527
Width: 224
Flags: MW
HStem: -218 30<89 118 89 127> -198 21G<30 30> -93 23
VStem: 75.5 27.5 161 33<-156.5 -124>
LayerCount: 2
Back
Fore
SplineSet
103 16 m 1x78
 103 -70 l 1
 166 -74 194 -99 194 -140 c 0
 194 -189 152 -218 102 -218 c 0xb8
 70 -218 47 -209 30 -198 c 1x78
 44 -173 l 1
 57 -182 76 -188 102 -188 c 0xb8
 134 -188 161 -173 161 -140 c 0
 161 -108 134 -94 72 -93 c 1
 79 16 l 1
 103 16 l 1x78
EndSplineSet
Substitution2: "Single Substitution lookup 41 subtable" cedilla.case
Substitution2: "'case' Case-Sensitive Forms lookup 28 subtable" cedilla.case
Substitution2: "'smcp' Lowercase to Small Capitals lookup 27 subtable" cedilla.sc
Substitution2: "'c2sc' Capitals to Small Capitals lookup 26 subtable" cedilla.sc
AlternateSubs2: "'aalt' Access All Alternates lookup 1 subtable" cedilla.sc cedilla.case
EndChar

StartChar: onesuperior
Encoding: 185 185 969
Width: 400
Flags: MW
HStem: 697 37<215 247> 714 20G<221 247 247 247>
VStem: 215 32<323 697 697 697>
LayerCount: 2
Fore
SplineSet
247 323 m 1x60
 215 323 l 1
 215 697 l 1
 108 635 l 1
 92 659 l 1xa0
 221 734 l 1
 247 734 l 1
 247 323 l 1x60
EndSplineSet
EndChar
StartChar: ordmasculine
Encoding: 186 186 1051
Width: 500
GlyphClass: 2
Flags: MW
HStem: 0 32<78 418 78 418> 276 30<206 290.5 206 299.5> 652 30<207 292.5>
VStem: 76 36<423 537 423 543> 385 36<423 537.5>
LayerCount: 2
Back
Fore
SplineSet
248 682 m 0
 354 682 421 613 421 481 c 0
 421 351 352 276 247 276 c 0
 141 276 76 352 76 479 c 0
 76 607 144 682 248 682 c 0
249 652 m 0
 165 652 112 595 112 479 c 0
 112 367 164 306 248 306 c 0
 333 306 385 365 385 481 c 0
 385 594 336 652 249 652 c 0
78 0 m 1
 78 32 l 1
 418 32 l 1
 418 0 l 1
 78 0 l 1
EndSplineSet
EndChar
StartChar: guillemotright
Encoding: 187 187 2176
Width: 531
Flags: MW
HStem: 68 441<105 105 105 293>
VStem: 83 365<83 299 277 494>
LayerCount: 2
Back
Fore
SplineSet
293 509 m 1
 448 299 l 1
 448 277 l 1
 293 68 l 1
 271 83 l 1
 409 288 l 1
 271 494 l 1
 293 509 l 1
105 509 m 1
 261 299 l 1
 261 277 l 1
 105 68 l 1
 83 83 l 1
 222 288 l 1
 83 494 l 1
 105 509 l 1
EndSplineSet
Substitution2: "'case' Case-Sensitive Forms lookup 28 subtable" guillemotright.case
Substitution2: "'aalt' Access All Alternates lookup 0 subtable" guillemotright.case
EndChar
StartChar: onequarter
Encoding: 188 188 2060
Width: 902
Flags: MW
HStem: 0 137<596 784 596 752> 108 29<596 752 596 752 784 841> 645 37<215 247> 662 20G<221 247 247 247> 725 20G<642 642>
VStem: 215 32<271 645 645 645> 752 32<0 108 0 108 0 137>
LayerCount: 2
Back
Fore
SplineSet
642 745 m 1x5e
 669 732 l 1
 260 -66 l 1
 233 -53 l 1
 642 745 l 1x5e
247 271 m 1
 215 271 l 1
 215 645 l 1
 108 583 l 1
 92 607 l 1x6e
 221 682 l 1
 247 682 l 1
 247 271 l 1
841 137 m 1
 841 108 l 1
 784 108 l 1x5e
 784 0 l 1
 752 0 l 1x9e
 752 108 l 1
 562 108 l 1
 562 133 l 1
 693 419 l 1
 720 408 l 1
 596 137 l 1
 752 137 l 1
 756 259 l 1
 784 259 l 1
 784 137 l 1
 841 137 l 1
EndSplineSet
EndChar

StartChar: onehalf
Encoding: 189 189 923
Width: 902
Flags: MW
HStem: 0 30<623 822> 387 30<676.5 723.5> 645 37<215 247> 662 20G<221 247 247 247> 725 20G<642 642>
VStem: 215 32<271 645 645 645> 781 34<271.5 333>
LayerCount: 2
Fore
SplineSet
669 732 m 1xde
 260 -66 l 1
 233 -53 l 1
 642 745 l 1
 669 732 l 1xde
247 271 m 1
 215 271 l 1
 215 645 l 1
 108 583 l 1
 92 607 l 1xee
 221 682 l 1
 247 682 l 1
 247 271 l 1
700 417 m 0
 772 417 815 371 815 310 c 0
 815 225 770 178 623 30 c 1
 828 30 l 1
 822 0 l 1
 583 0 l 1
 583 29 l 1
 746 194 781 236 781 307 c 0
 781 359 749 387 698 387 c 0
 655 387 624 369 600 341 c 1
 576 359 l 1
 612 400 650 417 700 417 c 0
EndSplineSet
EndChar
StartChar: threequarters
Encoding: 190 190 2061
Width: 902
Flags: MW
HStem: 0 137<596 784 596 752> 108 29<596 752 596 752 784 841> 264 29<173.5 225.5 173.5 234> 474 28<173 192 192 196 169 192> 661 29<180.5 224.5> 725 20G<642 642>
VStem: 285 33<559.5 610> 295 33<358.5 418> 752 32<0 108 0 108 0 137>
LayerCount: 2
Back
Fore
SplineSet
642 745 m 1x7d80
 669 732 l 1
 260 -66 l 1
 233 -53 l 1
 642 745 l 1x7d80
328 386 m 0
 328 314 276 264 192 264 c 0
 141 264 103 283 71 317 c 1
 92 335 l 1
 124 303 156 293 191 293 c 0
 260 293 295 331 295 386 c 0
 295 450 255 474 196 474 c 2x7d80
 169 474 l 1
 173 502 l 1
 192 502 l 2
 236 502 285 526 285 586 c 0
 285 634 250 661 199 661 c 0
 162 661 135 651 100 623 c 1
 82 644 l 1
 116 673 149 690 201 690 c 0
 271 690 318 648 318 587 c 0x7e80
 318 532 283 498 233 490 c 1
 285 488 328 452 328 386 c 0
841 137 m 1
 841 108 l 1
 784 108 l 1x7d80
 784 0 l 1
 752 0 l 1xbd80
 752 108 l 1
 562 108 l 1
 562 133 l 1
 693 419 l 1
 720 408 l 1
 596 137 l 1
 752 137 l 1
 756 259 l 1
 784 259 l 1
 784 137 l 1
 841 137 l 1
EndSplineSet
EndChar

StartChar: questiondown
Encoding: 191 191 990
Width: 439
Flags: MW
HStem: -200 31<170.5 242 170.5 246> 396 64<236.5 256.5>
VStem: 49 36<-96.5 -3 -96.5 6> 214 65<419.5 437.5> 232 33<202 251>
LayerCount: 2
Fore
SplineSet
247 396 m 0xf0
 226 396 214 410 214 429 c 0
 214 446 226 460 247 460 c 0
 266 460 279 446 279 429 c 0
 279 410 266 396 247 396 c 0xf0
208 -200 m 0
 108 -200 49 -136 49 -68 c 0
 49 80 232 67 232 202 c 2
 232 251 l 1
 265 251 l 1
 265 199 l 2xa8
 265 48 85 62 85 -68 c 0
 85 -125 133 -169 208 -169 c 0
 276 -169 318 -145 366 -93 c 1
 391 -112 l 1
 338 -172 284 -200 208 -200 c 0
EndSplineSet
Substitution2: "'case' Case-Sensitive Forms lookup 25 subtable" questiondown.case
Substitution2: "'aalt' Access All Alternates lookup 0 subtable" questiondown.case
EndChar
StartChar: Aacute
Encoding: 193 193 3
Width: 559
GlyphClass: 2
Flags: MW
HStem: 0 21G<24 59 24 24 498 535 498 498> 197 32<136 421 136 432 125 421> 654 28<279 279>
VStem: 24 511<0 0>
AnchorPoint: "Anchor-14" 0 0 basechar 0
AnchorPoint: "Anchor-13" 0 0 basechar 0
AnchorPoint: "Anchor-12" 281 872 basechar 0
AnchorPoint: "Anchor-11" 543 0 basechar 0
AnchorPoint: "Anchor-10" 280 0 basechar 0
LayerCount: 2
Back
Fore
SplineSet
377 837 m 1
 191 761 l 1
 181 783 l 1
 359 872 l 1
 377 837 l 1
498 0 m 1
 432 197 l 1
 125 197 l 1
 59 0 l 1
 24 0 l 1
 258 682 l 1
 301 682 l 1
 535 0 l 1
 498 0 l 1
136 229 m 1
 421 229 l 1
 279 654 l 1
 136 229 l 1
EndSplineSet
Substitution2: "'c2sc' Capitals to Small Capitals lookup 26 subtable" aacute.sc
Substitution2: "'aalt' Access All Alternates lookup 0 subtable" aacute.sc
Position2: "'cpsp' Capital Spacing lookup 0 subtable" dx=5 dy=0 dh=10 dv=0
EndChar

StartChar: Acircumflex
Encoding: 194 194 4
Width: 559
GlyphClass: 2
Flags: MW
HStem: 0 21G<24 59 24 24 498 498 498 535> 197 32<136 421 136 432 125 421> 654 28<279 279>
VStem: 24 511<0 0>
AnchorPoint: "Anchor-11" 0 0 basechar 0
AnchorPoint: "Anchor-10" 168 682 basechar 0
AnchorPoint: "Anchor-9" 280 682 basechar 0
AnchorPoint: "Anchor-8" 543 0 basechar 0
LayerCount: 2
Fore
SplineSet
161 765 m 1
 144 784 l 1
 270 879 l 1
 289 879 l 1
 413 784 l 1
 397 765 l 1
 279 844 l 1
 161 765 l 1
432 197 m 1
 125 197 l 1
 59 0 l 1
 24 0 l 1
 258 682 l 1
 301 682 l 1
 535 0 l 1
 498 0 l 1
 432 197 l 1
421 229 m 1
 279 654 l 1
 136 229 l 1
 421 229 l 1
EndSplineSet
Substitution2: "'c2sc' Capitals to Small Capitals lookup 23 subtable" acircumflex.sc
Substitution2: "'aalt' Access All Alternates lookup 0 subtable" acircumflex.sc
Position2: "'cpsp' Capital Spacing lookup 0 subtable" dx=5 dy=0 dh=10 dv=0
EndChar

StartChar: Atilde
Encoding: 195 195 10
Width: 559
GlyphClass: 2
Flags: MW
HStem: 0 21G<24 59 24 24 498 498 498 535> 197 32<136 421 136 432 125 421> 654 28<279 279> 800 30<319.5 350 319.5 356> 843 30<206 238>
VStem: 24 511<0 0>
AnchorPoint: "Anchor-11" 0 0 basechar 0
AnchorPoint: "Anchor-10" 168 682 basechar 0
AnchorPoint: "Anchor-9" 280 682 basechar 0
AnchorPoint: "Anchor-8" 543 0 basechar 0
LayerCount: 2
Fore
SplineSet
221 843 m 0
 191 843 182 833 162 807 c 1
 141 819 l 1
 162 853 186 873 221 873 c 0xfc
 261 873 299 830 340 830 c 0
 360 830 375 841 397 873 c 1
 418 861 l 1
 396 817 369 800 343 800 c 0xf4
 287 800 255 843 221 843 c 0
432 197 m 1xf4
 125 197 l 1
 59 0 l 1
 24 0 l 1
 258 682 l 1
 301 682 l 1
 535 0 l 1
 498 0 l 1
 432 197 l 1xf4
421 229 m 1
 279 654 l 1
 136 229 l 1
 421 229 l 1
EndSplineSet
Substitution2: "'c2sc' Capitals to Small Capitals lookup 23 subtable" atilde.sc
Substitution2: "'aalt' Access All Alternates lookup 0 subtable" atilde.sc
Position2: "'cpsp' Capital Spacing lookup 0 subtable" dx=5 dy=0 dh=10 dv=0
EndChar

StartChar: Aring
Encoding: 197 197 9
Width: 559
GlyphClass: 2
Flags: MW
HStem: 0 21G<24 59 24 24 498 498 498 535> 197 32<136 421 136 432 125 421> 654 28<279 279> 765 26<261.5 298 261.5 306> 910 26<261.5 298.5>
VStem: 192 31<831.5 869 831.5 876> 337 31<831.5 869>
AnchorPoint: "Anchor-11" 0 0 basechar 0
AnchorPoint: "Anchor-10" 168 682 basechar 0
AnchorPoint: "Anchor-9" 280 682 basechar 0
AnchorPoint: "Anchor-8" 543 0 basechar 0
LayerCount: 2
Fore
SplineSet
280 765 m 0
 228 765 192 799 192 850 c 0
 192 902 228 936 280 936 c 0
 332 936 368 902 368 850 c 0
 368 799 332 765 280 765 c 0
280 910 m 0
 243 910 223 888 223 850 c 0
 223 813 243 791 280 791 c 0
 316 791 337 813 337 850 c 0
 337 888 317 910 280 910 c 0
432 197 m 1
 125 197 l 1
 59 0 l 1
 24 0 l 1
 258 682 l 1
 301 682 l 1
 535 0 l 1
 498 0 l 1
 432 197 l 1
421 229 m 1
 279 654 l 1
 136 229 l 1
 421 229 l 1
EndSplineSet
Substitution2: "'c2sc' Capitals to Small Capitals lookup 23 subtable" aring.sc
Substitution2: "'aalt' Access All Alternates lookup 0 subtable" aring.sc
Position2: "'cpsp' Capital Spacing lookup 0 subtable" dx=5 dy=0 dh=10 dv=0
EndChar

StartChar: Ccedilla
Encoding: 199 199 17
Width: 543
GlyphClass: 2
Flags: MW
HStem: -218 30<333 362 333 371> -198 21G<274 274> -93 23 -10 33<347 347> -9 32<321 321> 660 33<282 377.5>
VStem: 74 36<234 454 234 459> 318.5 28.5 405 33<-156.5 -124>
AnchorPoint: "Anchor-11" 341 0 basechar 0
AnchorPoint: "Anchor-10" 0 0 basechar 0
AnchorPoint: "Anchor-9" 342 682 basechar 0
AnchorPoint: "Anchor-8" 0 0 basechar 0
LayerCount: 2
Fore
SplineSet
347 -70 m 1x7780
 410 -74 438 -99 438 -140 c 0
 438 -189 396 -218 346 -218 c 0xb780
 314 -218 291 -209 274 -198 c 1x7780
 288 -173 l 1
 301 -182 320 -188 346 -188 c 0
 378 -188 405 -173 405 -140 c 0
 405 -108 378 -94 316 -93 c 1
 321 -9 l 1xaf80
 179 1 74 122 74 341 c 0
 74 577 195 693 345 693 c 0
 421 693 466 670 510 633 c 1
 491 608 l 1
 444 644 408 660 347 660 c 0
 217 660 110 567 110 341 c 0
 110 127 214 23 343 23 c 0
 418 23 457 47 498 81 c 1
 518 56 l 1
 476 19 423 -9 347 -10 c 1
 347 -70 l 1x7780
EndSplineSet
Substitution2: "'c2sc' Capitals to Small Capitals lookup 23 subtable" ccedilla.sc
Substitution2: "'aalt' Access All Alternates lookup 0 subtable" ccedilla.sc
Position2: "'cpsp' Capital Spacing lookup 0 subtable" dx=5 dy=0 dh=10 dv=0
EndChar
StartChar: Igrave
Encoding: 204 204 129
Width: 273
GlyphClass: 2
Flags: MW
HStem: 0 21G<119 154 119 119> 662 20G<119 154 154 154>
VStem: 119 35<0 682 0 682>
AnchorPoint: "Anchor-14" 0 0 basechar 0
AnchorPoint: "Anchor-13" 0 0 basechar 0
AnchorPoint: "Anchor-12" 138 872 basechar 0
AnchorPoint: "Anchor-11" 164 0 basechar 0
AnchorPoint: "Anchor-10" 137 0 basechar 0
LayerCount: 2
Back
Fore
SplineSet
54 872 m 1
 233 783 l 1
 223 761 l 1
 37 837 l 1
 54 872 l 1
154 682 m 1
 154 0 l 1
 119 0 l 1
 119 682 l 1
 154 682 l 1
EndSplineSet
Substitution2: "'c2sc' Capitals to Small Capitals lookup 26 subtable" igrave.sc
Substitution2: "'aalt' Access All Alternates lookup 0 subtable" igrave.sc
Position2: "'cpsp' Capital Spacing lookup 0 subtable" dx=5 dy=0 dh=10 dv=0
EndChar
StartChar: Iacute
Encoding: 205 205 120
Width: 273
GlyphClass: 2
Flags: MW
HStem: 0 21G<119 154 119 119> 662 20G<119 154 154 154>
VStem: 119 35<0 682 0 682>
AnchorPoint: "Anchor-14" 0 0 basechar 0
AnchorPoint: "Anchor-13" 0 0 basechar 0
AnchorPoint: "Anchor-12" 137 872 basechar 0
AnchorPoint: "Anchor-11" 164 0 basechar 0
AnchorPoint: "Anchor-10" 137 0 basechar 0
LayerCount: 2
Back
Fore
SplineSet
215 872 m 1
 233 837 l 1
 47 761 l 1
 37 783 l 1
 215 872 l 1
154 682 m 1
 154 0 l 1
 119 0 l 1
 119 682 l 1
 154 682 l 1
EndSplineSet
Substitution2: "'c2sc' Capitals to Small Capitals lookup 26 subtable" iacute.sc
Substitution2: "'aalt' Access All Alternates lookup 0 subtable" iacute.sc
Position2: "'cpsp' Capital Spacing lookup 0 subtable" dx=5 dy=0 dh=10 dv=0
EndChar
StartChar: Icircumflex
Encoding: 206 206 123
Width: 273
GlyphClass: 2
Flags: MW
HStem: 0 21G<119 154 119 119> 662 20G<119 154 154 154>
VStem: 119 35<0 682 0 682>
AnchorPoint: "Anchor-14" 0 0 basechar 0
AnchorPoint: "Anchor-13" 222 734 basechar 0
AnchorPoint: "Anchor-12" 135 879 basechar 0
AnchorPoint: "Anchor-11" 164 0 basechar 0
AnchorPoint: "Anchor-10" 137 0 basechar 0
LayerCount: 2
Back
Fore
SplineSet
254 765 m 1
 136 844 l 1
 18 765 l 1
 1 784 l 1
 127 879 l 1
 146 879 l 1
 270 784 l 1
 254 765 l 1
154 682 m 1
 154 0 l 1
 119 0 l 1
 119 682 l 1
 154 682 l 1
EndSplineSet
Substitution2: "'c2sc' Capitals to Small Capitals lookup 26 subtable" icircumflex.sc
Substitution2: "'aalt' Access All Alternates lookup 0 subtable" icircumflex.sc
Position2: "'cpsp' Capital Spacing lookup 0 subtable" dx=5 dy=0 dh=10 dv=0
EndChar

StartChar: Idieresis
Encoding: 207 207 48
Width: 273
GlyphClass: 2
Flags: MW
HStem: 0 21G<119 154 119 119> 662 20G<119 154 154 154> 795 54<40 56.5 214.5 231.5>
VStem: 21 55<814.5 829.5> 119 35<0 682> 195 56<814.5 829.5>
AnchorPoint: "Anchor-11" 0 0 basechar 0
AnchorPoint: "Anchor-10" 90 682 basechar 0
AnchorPoint: "Anchor-9" 136 759 basechar 0
AnchorPoint: "Anchor-8" 164 0 basechar 0
LayerCount: 2
Fore
SplineSet
48 849 m 0
 65 849 76 837 76 822 c 0
 76 807 65 795 48 795 c 0
 32 795 21 807 21 822 c 0
 21 837 32 849 48 849 c 0
223 849 m 0
 240 849 251 837 251 822 c 0
 251 807 240 795 223 795 c 0
 206 795 195 807 195 822 c 0
 195 837 206 849 223 849 c 0
154 0 m 1
 119 0 l 1
 119 682 l 1
 154 682 l 1
 154 0 l 1
EndSplineSet
Substitution2: "'c2sc' Capitals to Small Capitals lookup 23 subtable" idieresis.sc
Substitution2: "'aalt' Access All Alternates lookup 0 subtable" idieresis.sc
Position2: "'cpsp' Capital Spacing lookup 0 subtable" dx=5 dy=0 dh=10 dv=0
EndChar

StartChar: Eth
Encoding: 208 208 21
Width: 620
GlyphClass: 2
Flags: MW
HStem: 0 32<151 250> 338 30<25 116 25 116 151 339> 650 32<151 244 151 151>
VStem: 116 35<32 338 32 338 32 338 368 650> 510 37<218.5 480>
AnchorPoint: "Anchor-11" 0 0 basechar 0
AnchorPoint: "Anchor-10" 0 0 basechar 0
AnchorPoint: "Anchor-9" 294 682 basechar 0
AnchorPoint: "Anchor-8" 0 0 basechar 0
LayerCount: 2
Fore
SplineSet
246 682 m 2
 394 682 547 627 547 348 c 0
 547 61 385 0 250 0 c 2
 116 0 l 1
 116 338 l 1
 25 338 l 1
 25 368 l 1
 116 368 l 1
 116 682 l 1
 246 682 l 2
251 32 m 2
 377 32 510 89 510 348 c 0
 510 612 372 650 244 650 c 2
 151 650 l 1
 151 368 l 1
 339 368 l 1
 339 338 l 1
 151 338 l 1
 151 32 l 1
 251 32 l 2
EndSplineSet
Substitution2: "'c2sc' Capitals to Small Capitals lookup 23 subtable" eth.sc
Substitution2: "'aalt' Access All Alternates lookup 0 subtable" eth.sc
Position2: "'cpsp' Capital Spacing lookup 0 subtable" dx=5 dy=0 dh=10 dv=0
EndChar

StartChar: Ntilde
Encoding: 209 209 70
Width: 665
GlyphClass: 2
Flags: MW
HStem: 0 39<517 517 517 547 503 517> 643 39<148 148> 800 30<379.5 410 379.5 416> 843 30<266 298>
VStem: 119 34<0 430 0 682> 513 34<237 682>
AnchorPoint: "Anchor-11" 333 0 basechar 0
AnchorPoint: "Anchor-10" 0 0 basechar 0
AnchorPoint: "Anchor-9" 340 682 basechar 0
AnchorPoint: "Anchor-8" 0 0 basechar 0
LayerCount: 2
Fore
SplineSet
403 800 m 0
 347 800 315 843 281 843 c 0
 251 843 242 833 222 807 c 1
 201 819 l 1
 222 853 246 873 281 873 c 0xfc
 321 873 359 830 400 830 c 0
 420 830 435 841 457 873 c 1
 478 861 l 1
 456 817 429 800 403 800 c 0
547 0 m 1
 503 0 l 1
 148 643 l 1
 151 603 153 550 153 430 c 2
 153 0 l 1
 119 0 l 1
 119 682 l 1
 163 682 l 1
 517 39 l 1
 515 78 513 146 513 237 c 2
 513 682 l 1
 547 682 l 1
 547 0 l 1
EndSplineSet
Substitution2: "'c2sc' Capitals to Small Capitals lookup 23 subtable" ntilde.sc
Substitution2: "'aalt' Access All Alternates lookup 0 subtable" ntilde.sc
Position2: "'cpsp' Capital Spacing lookup 0 subtable" dx=5 dy=0 dh=10 dv=0
EndChar

StartChar: Oacute
Encoding: 211 211 72
Width: 690
GlyphClass: 2
Flags: MW
HStem: -10 32<276 418 276 428.5> 660 33<275.5 415.5>
VStem: 74 36<234.5 446 234.5 452> 580 36<235 447.5>
AnchorPoint: "Anchor-11" 0 0 basechar 0
AnchorPoint: "Anchor-10" 104 682 basechar 0
AnchorPoint: "Anchor-9" 331 682 basechar 0
AnchorPoint: "Anchor-8" 0 0 basechar 0
LayerCount: 2
Fore
SplineSet
435 837 m 1
 249 761 l 1
 239 783 l 1
 417 872 l 1
 435 837 l 1
345 693 m 0
 507 693 616 571 616 340 c 0
 616 118 512 -10 345 -10 c 0
 184 -10 74 114 74 339 c 0
 74 565 185 693 345 693 c 0
345 660 m 0
 206 660 110 553 110 339 c 0
 110 130 207 22 345 22 c 0
 491 22 580 130 580 340 c 0
 580 555 486 660 345 660 c 0
EndSplineSet
Substitution2: "'c2sc' Capitals to Small Capitals lookup 23 subtable" oacute.sc
Substitution2: "'locl' Localized Forms in Latin lookup 7 subtable" Oacute.loclPLK
AlternateSubs2: "'aalt' Access All Alternates lookup 1 subtable" Oacute.loclPLK oacute.sc
Position2: "'cpsp' Capital Spacing lookup 0 subtable" dx=5 dy=0 dh=10 dv=0
EndChar

StartChar: Ocircumflex
Encoding: 212 212 74
Width: 690
GlyphClass: 2
Flags: MW
HStem: -10 32<276 418 276 428.5> 660 33<275.5 415.5>
VStem: 74 36<234.5 446 234.5 452> 580 36<235 447.5>
AnchorPoint: "Anchor-11" 0 0 basechar 0
AnchorPoint: "Anchor-10" 104 682 basechar 0
AnchorPoint: "Anchor-9" 331 682 basechar 0
AnchorPoint: "Anchor-8" 0 0 basechar 0
LayerCount: 2
Fore
SplineSet
331 844 m 1
 213 765 l 1
 196 784 l 1
 322 879 l 1
 341 879 l 1
 465 784 l 1
 449 765 l 1
 331 844 l 1
345 693 m 0
 507 693 616 571 616 340 c 0
 616 118 512 -10 345 -10 c 0
 184 -10 74 114 74 339 c 0
 74 565 185 693 345 693 c 0
345 660 m 0
 206 660 110 553 110 339 c 0
 110 130 207 22 345 22 c 0
 491 22 580 130 580 340 c 0
 580 555 486 660 345 660 c 0
EndSplineSet
Substitution2: "'c2sc' Capitals to Small Capitals lookup 23 subtable" ocircumflex.sc
Substitution2: "'aalt' Access All Alternates lookup 0 subtable" ocircumflex.sc
Position2: "'cpsp' Capital Spacing lookup 0 subtable" dx=5 dy=0 dh=10 dv=0
EndChar
StartChar: Otilde
Encoding: 213 213 214
Width: 690
GlyphClass: 2
Flags: MW
HStem: -10 32<276 418 276 428.5> 660 33<275.5 415.5> 800 30<384 414.5 384 419> 843 30<274.5 302.5>
VStem: 74 36<234.5 446 234.5 452> 580 36<235 447.5>
AnchorPoint: "Anchor-14" 0 0 basechar 0
AnchorPoint: "Anchor-13" 537 682 basechar 0
AnchorPoint: "Anchor-12" 347 873 basechar 0
AnchorPoint: "Anchor-11" 431 0 basechar 0
AnchorPoint: "Anchor-10" 345 0 basechar 0
LayerCount: 2
Back
Fore
SplineSet
404 800 m 0
 355 800 319 843 286 843 c 0
 263 843 247 833 227 807 c 1
 206 819 l 1
 227 853 254 873 286 873 c 0xfc
 326 873 364 830 404 830 c 0
 425 830 440 841 462 873 c 1
 483 861 l 1
 461 817 434 800 404 800 c 0
345 693 m 0
 507 693 616 571 616 340 c 0
 616 118 512 -10 345 -10 c 0
 184 -10 74 114 74 339 c 0
 74 565 185 693 345 693 c 0
345 660 m 0
 206 660 110 553 110 339 c 0
 110 130 207 22 345 22 c 0
 491 22 580 130 580 340 c 0
 580 555 486 660 345 660 c 0
EndSplineSet
Substitution2: "'c2sc' Capitals to Small Capitals lookup 26 subtable" otilde.sc
Substitution2: "'aalt' Access All Alternates lookup 0 subtable" otilde.sc
Position2: "'cpsp' Capital Spacing lookup 0 subtable" dx=5 dy=0 dh=10 dv=0
EndChar
StartChar: Odieresis
Encoding: 214 214 190
Width: 690
GlyphClass: 2
Flags: MW
HStem: -10 32<276 418 276 428.5> 660 33<275.5 415.5> 795 54<249 265.5 423.5 440.5>
VStem: 74 36<234.5 446 234.5 452> 230 55<814.5 829.5> 404 56<814.5 829.5> 580 36<235 447.5>
AnchorPoint: "Anchor-14" 0 0 basechar 0
AnchorPoint: "Anchor-13" 537 682 basechar 0
AnchorPoint: "Anchor-12" 347 849 basechar 0
AnchorPoint: "Anchor-11" 431 0 basechar 0
AnchorPoint: "Anchor-10" 345 0 basechar 0
LayerCount: 2
Back
Fore
SplineSet
257 849 m 0
 274 849 285 837 285 822 c 0
 285 807 274 795 257 795 c 0
 241 795 230 807 230 822 c 0
 230 837 241 849 257 849 c 0
432 849 m 0
 449 849 460 837 460 822 c 0
 460 807 449 795 432 795 c 0
 415 795 404 807 404 822 c 0
 404 837 415 849 432 849 c 0
345 693 m 0
 507 693 616 571 616 340 c 0
 616 118 512 -10 345 -10 c 0
 184 -10 74 114 74 339 c 0
 74 565 185 693 345 693 c 0
345 660 m 0
 206 660 110 553 110 339 c 0
 110 130 207 22 345 22 c 0
 491 22 580 130 580 340 c 0
 580 555 486 660 345 660 c 0
EndSplineSet
Substitution2: "'c2sc' Capitals to Small Capitals lookup 26 subtable" odieresis.sc
Substitution2: "'aalt' Access All Alternates lookup 0 subtable" odieresis.sc
Position2: "'cpsp' Capital Spacing lookup 0 subtable" dx=5 dy=0 dh=10 dv=0
EndChar

StartChar: multiply
Encoding: 215 215 1108
Width: 489
Flags: MW
HStem: 154 307<118 118 118 371>
VStem: 94 301<177 177 177 438>
LayerCount: 2
Fore
SplineSet
395 438 m 1
 266 307 l 1
 395 177 l 1
 371 154 l 1
 243 285 l 1
 118 154 l 1
 94 177 l 1
 221 307 l 1
 94 438 l 1
 118 461 l 1
 243 329 l 1
 371 461 l 1
 395 438 l 1
EndSplineSet
Substitution2: "'onum' Oldstyle Figures lookup 22 subtable" multiply.osf
Substitution2: "'tnum' Tabular Numbers lookup 21 subtable" multiply.tf
AlternateSubs2: "'aalt' Access All Alternates lookup 1 subtable" multiply.tf multiply.osf
EndChar

StartChar: Ugrave
Encoding: 217 217 106
Width: 644
GlyphClass: 2
Flags: MW
HStem: -10 32<259.5 386.5 259.5 396.5> 662 20G<109 144 144 144 500 536 536 536>
VStem: 109 35<209 212 212 682> 500 36<212 682>
AnchorPoint: "Anchor-11" 0 0 basechar 0
AnchorPoint: "Anchor-10" 0 0 basechar 0
AnchorPoint: "Anchor-9" 325 682 basechar 0
AnchorPoint: "Anchor-8" 408 0 basechar 0
LayerCount: 2
Fore
SplineSet
418 783 m 1
 408 761 l 1
 222 837 l 1
 239 872 l 1
 418 783 l 1
536 209 m 2
 536 81 470 -10 323 -10 c 0
 173 -10 109 81 109 209 c 2
 109 682 l 1
 144 682 l 1
 144 212 l 2
 144 99 196 22 323 22 c 0
 450 22 500 101 500 212 c 2
 500 682 l 1
 536 682 l 1
 536 209 l 2
EndSplineSet
Substitution2: "'c2sc' Capitals to Small Capitals lookup 23 subtable" ugrave.sc
Substitution2: "'aalt' Access All Alternates lookup 0 subtable" ugrave.sc
Position2: "'cpsp' Capital Spacing lookup 0 subtable" dx=5 dy=0 dh=10 dv=0
EndChar
StartChar: Uacute
Encoding: 218 218 263
Width: 644
GlyphClass: 2
Flags: MW
HStem: -10 32<259.5 386.5 259.5 396.5> 662 20G<109 144 144 144 500 536 536 536>
VStem: 109 35<209 212 212 682> 500 36<212 682>
AnchorPoint: "Anchor-14" 0 0 basechar 0
AnchorPoint: "Anchor-13" 546 682 basechar 0
AnchorPoint: "Anchor-12" 324 872 basechar 0
AnchorPoint: "Anchor-11" 408 0 basechar 0
AnchorPoint: "Anchor-10" 323 0 basechar 0
LayerCount: 2
Back
Fore
SplineSet
402 872 m 1
 420 837 l 1
 234 761 l 1
 224 783 l 1
 402 872 l 1
536 682 m 1
 536 209 l 2
 536 81 470 -10 323 -10 c 0
 174 -10 109 81 109 209 c 2
 109 682 l 1
 144 682 l 1
 144 212 l 2
 144 99 196 22 323 22 c 0
 450 22 500 101 500 212 c 2
 500 682 l 1
 536 682 l 1
EndSplineSet
Substitution2: "'c2sc' Capitals to Small Capitals lookup 26 subtable" uacute.sc
Substitution2: "'aalt' Access All Alternates lookup 0 subtable" uacute.sc
Position2: "'cpsp' Capital Spacing lookup 0 subtable" dx=5 dy=0 dh=10 dv=0
EndChar
StartChar: Udieresis
Encoding: 220 220 269
Width: 644
GlyphClass: 2
Flags: MW
HStem: -10 32<259.5 386.5 259.5 396.5> 662 20G<109 144 144 144 500 536 536 536> 795 54<226 242.5 400.5 417.5>
VStem: 109 35<209 212 212 682> 207 55<814.5 829.5> 381 56<814.5 829.5> 500 36<212 682>
AnchorPoint: "Anchor-14" 0 0 basechar 0
AnchorPoint: "Anchor-13" 546 682 basechar 0
AnchorPoint: "Anchor-12" 324 849 basechar 0
AnchorPoint: "Anchor-11" 408 0 basechar 0
AnchorPoint: "Anchor-10" 323 0 basechar 0
LayerCount: 2
Back
Fore
SplineSet
234 849 m 0
 251 849 262 837 262 822 c 0
 262 807 251 795 234 795 c 0
 218 795 207 807 207 822 c 0
 207 837 218 849 234 849 c 0
409 849 m 0
 426 849 437 837 437 822 c 0
 437 807 426 795 409 795 c 0
 392 795 381 807 381 822 c 0
 381 837 392 849 409 849 c 0
536 682 m 1
 536 209 l 2
 536 81 470 -10 323 -10 c 0
 174 -10 109 81 109 209 c 2
 109 682 l 1
 144 682 l 1
 144 212 l 2
 144 99 196 22 323 22 c 0
 450 22 500 101 500 212 c 2
 500 682 l 1
 536 682 l 1
EndSplineSet
Substitution2: "'c2sc' Capitals to Small Capitals lookup 26 subtable" udieresis.sc
Substitution2: "'aalt' Access All Alternates lookup 0 subtable" udieresis.sc
Position2: "'cpsp' Capital Spacing lookup 0 subtable" dx=5 dy=0 dh=10 dv=0
EndChar

StartChar: Thorn
Encoding: 222 222 84
Width: 562
GlyphClass: 2
Flags: MW
HStem: 0 21G<119 154 119 119> 143 32<154 260 154 263> 525 32<154 265 154 265> 525 157<119 265 119 154>
VStem: 119 35<0 143 0 175 175 525 557 682> 472 37<285.5 419>
AnchorPoint: "Anchor-11" 0 0 basechar 0
AnchorPoint: "Anchor-10" 0 0 basechar 0
AnchorPoint: "Anchor-9" -147 -498 basechar 0
AnchorPoint: "Anchor-8" 0 0 basechar 0
LayerCount: 2
Fore
SplineSet
265 557 m 2xec
 420 557 509 497 509 357 c 0
 509 199 406 143 260 143 c 2
 154 143 l 1
 154 0 l 1
 119 0 l 1
 119 682 l 1
 154 682 l 1xdc
 154 557 l 1
 265 557 l 2xec
263 175 m 2
 385 175 472 215 472 356 c 0
 472 482 398 525 265 525 c 2
 154 525 l 1
 154 175 l 1
 263 175 l 2
EndSplineSet
Substitution2: "'c2sc' Capitals to Small Capitals lookup 23 subtable" thorn.sc
Substitution2: "'aalt' Access All Alternates lookup 0 subtable" thorn.sc
Position2: "'cpsp' Capital Spacing lookup 0 subtable" dx=5 dy=0 dh=10 dv=0
EndChar
StartChar: germandbls
Encoding: 223 223 634
Width: 574
GlyphClass: 2
Flags: MW
HStem: -10 21G<347 415> -10 31<348 402.5 348 415> 0 21G 708 31<251 327.5>
VStem: 114 34<0 537 0 541 0 605.5> 291 34<378 455 378 462> 410 35<559.5 639.5> 485 35<109 233.5>
LayerCount: 2
Back
Fore
SplineSet
292 739 m 0x5f
 382 739 445 685 445 610 c 0
 445 502 325 489 325 421 c 0
 325 335 520 328 520 151 c 0
 520 56 462 -10 368 -10 c 0x5f
 326 -10 299 0 276 12 c 1x9f
 289 38 l 1
 307 29 329 21 367 21 c 0x5f
 438 21 485 67 485 151 c 0
 485 316 291 310 291 421 c 0
 291 503 410 510 410 609 c 0
 410 670 363 708 292 708 c 0
 210 708 148 656 148 537 c 2
 148 0 l 1
 114 0 l 1x3f
 114 541 l 2
 114 670 190 739 292 739 c 0x5f
EndSplineSet
Substitution2: "'smcp' Lowercase to Small Capitals lookup 27 subtable" germandbls.sc
Substitution2: "'aalt' Access All Alternates lookup 0 subtable" germandbls.sc
EndChar
StartChar: agrave
Encoding: 224 224 356
Width: 531
GlyphClass: 2
Flags: MW
HStem: -10 31<186 259> 281 29<270 277 277 384> 500 31<232.5 303.5> 714 20G<158 158>
VStem: 64 36<105.5 190.5 105.5 198> 384 34<123 281 281 281 310 368 368 371>
AnchorPoint: "Anchor-14" 0 0 basechar 0
AnchorPoint: "Anchor-13" 0 0 basechar 0
AnchorPoint: "Anchor-12" 258 769 basechar 0
AnchorPoint: "Anchor-11" 464 -10 basechar 0
AnchorPoint: "Anchor-10" 256 0 basechar 0
LayerCount: 2
Back
Fore
SplineSet
354 673 m 1
 342 650 l 1
 158 734 l 1
 174 769 l 1
 354 673 l 1
418 111 m 2
 418 44 432 26 462 14 c 1
 454 -10 l 1
 413 2 391 27 389 84 c 1
 351 22 296 -10 222 -10 c 0
 123 -10 64 51 64 144 c 0
 64 252 146 310 270 310 c 2
 384 310 l 1
 384 368 l 2
 384 456 352 500 255 500 c 0
 210 500 164 488 113 468 c 1
 104 496 l 1
 156 518 204 531 257 531 c 0
 370 531 418 476 418 371 c 2
 418 111 l 2
224 21 m 0
 300 21 350 59 384 123 c 1
 384 281 l 1
 277 281 l 2
 167 281 100 236 100 145 c 0
 100 66 148 21 224 21 c 0
EndSplineSet
Substitution2: "'smcp' Lowercase to Small Capitals lookup 27 subtable" agrave.sc
Substitution2: "'aalt' Access All Alternates lookup 0 subtable" agrave.sc
EndChar

StartChar: aacute
Encoding: 225 225 135
Width: 531
GlyphClass: 2
Flags: MW
HStem: -10 31<186 259> 281 30<270 277 277 384> 500 31<232.5 303.5>
VStem: 64 36<105.5 190.5 105.5 198> 384 34<122 281 281 281 311 368 368 371>
AnchorPoint: "Anchor-11" 0 0 basechar 0
AnchorPoint: "Anchor-10" 0 0 basechar 0
AnchorPoint: "Anchor-9" 256 520 basechar 0
AnchorPoint: "Anchor-8" 464 -10 basechar 0
LayerCount: 2
Fore
SplineSet
160 650 m 1
 148 673 l 1
 328 769 l 1
 344 734 l 1
 160 650 l 1
418 111 m 2
 418 44 432 26 462 14 c 1
 454 -10 l 1
 413 1 391 26 388 83 c 1
 351 22 296 -10 222 -10 c 0
 123 -10 64 51 64 144 c 0
 64 252 146 311 270 311 c 2
 384 311 l 1
 384 368 l 2
 384 456 352 500 255 500 c 0
 210 500 164 488 113 468 c 1
 104 496 l 1
 156 518 204 531 257 531 c 0
 370 531 418 476 418 371 c 2
 418 111 l 2
224 21 m 0
 299 21 350 59 384 122 c 1
 384 281 l 1
 277 281 l 2
 167 281 100 236 100 145 c 0
 100 66 148 21 224 21 c 0
EndSplineSet
Substitution2: "'smcp' Lowercase to Small Capitals lookup 24 subtable" aacute.sc
Substitution2: "'aalt' Access All Alternates lookup 0 subtable" aacute.sc
EndChar
StartChar: atilde
Encoding: 227 227 366
Width: 531
GlyphClass: 2
Flags: MW
HStem: -10 31<186 259> 281 29<270 277 277 384> 500 31<232.5 303.5> 673 20G<117 117> 674 30<295 325.5 295 330> 715 20G<394 394> 717 30<185.5 213.5>
VStem: 64 36<105.5 190.5 105.5 198> 384 34<123 281 281 281 310 368 368 371>
AnchorPoint: "Anchor-14" 0 0 basechar 0
AnchorPoint: "Anchor-13" 0 0 basechar 0
AnchorPoint: "Anchor-12" 256 704 basechar 0
AnchorPoint: "Anchor-11" 464 -10 basechar 0
AnchorPoint: "Anchor-10" 256 0 basechar 0
LayerCount: 2
Back
Fore
SplineSet
197 717 m 0xf380
 174 717 158 707 138 681 c 1
 117 693 l 1
 138 727 165 747 197 747 c 0xf380
 237 747 275 704 315 704 c 0
 336 704 351 715 373 747 c 1
 394 735 l 1
 372 691 345 674 315 674 c 0xed80
 266 674 230 717 197 717 c 0xf380
418 111 m 2xf580
 418 44 432 26 462 14 c 1
 454 -10 l 1
 413 2 391 27 389 84 c 1
 351 22 296 -10 222 -10 c 0
 123 -10 64 51 64 144 c 0
 64 252 146 310 270 310 c 2
 384 310 l 1
 384 368 l 2
 384 456 352 500 255 500 c 0
 210 500 164 488 113 468 c 1
 104 496 l 1
 156 518 204 531 257 531 c 0
 370 531 418 476 418 371 c 2
 418 111 l 2xf580
224 21 m 0
 300 21 350 59 384 123 c 1
 384 281 l 1
 277 281 l 2
 167 281 100 236 100 145 c 0
 100 66 148 21 224 21 c 0
EndSplineSet
Substitution2: "'smcp' Lowercase to Small Capitals lookup 27 subtable" atilde.sc
Substitution2: "'aalt' Access All Alternates lookup 0 subtable" atilde.sc
EndChar
StartChar: aring
Encoding: 229 229 363
Width: 531
GlyphClass: 2
Flags: MW
HStem: -10 31<186 259> 281 29<270 277 277 384> 500 31<232.5 303.5> 639 26<238.5 275 238.5 283> 784 26<238.5 275.5>
VStem: 64 36<105.5 190.5 105.5 198> 169 31<705.5 743 705.5 750> 314 31<705.5 743> 384 34<123 281 281 281 310 368 368 371>
AnchorPoint: "Anchor-14" 0 0 basechar 0
AnchorPoint: "Anchor-13" 0 0 basechar 0
AnchorPoint: "Anchor-12" 259 810 basechar 0
AnchorPoint: "Anchor-11" 464 -10 basechar 0
AnchorPoint: "Anchor-10" 256 0 basechar 0
LayerCount: 2
Back
Fore
SplineSet
257 639 m 0
 205 639 169 673 169 724 c 0
 169 776 205 810 257 810 c 0
 309 810 345 776 345 724 c 0
 345 673 309 639 257 639 c 0
257 784 m 0
 220 784 200 762 200 724 c 0
 200 687 220 665 257 665 c 0
 293 665 314 687 314 724 c 0
 314 762 294 784 257 784 c 0
418 111 m 2
 418 44 432 26 462 14 c 1
 454 -10 l 1
 413 2 391 27 389 84 c 1
 351 22 296 -10 222 -10 c 0
 123 -10 64 51 64 144 c 0
 64 252 146 310 270 310 c 2
 384 310 l 1
 384 368 l 2
 384 456 352 500 255 500 c 0
 210 500 164 488 113 468 c 1
 104 496 l 1
 156 518 204 531 257 531 c 0
 370 531 418 476 418 371 c 2
 418 111 l 2
224 21 m 0
 300 21 350 59 384 123 c 1
 384 281 l 1
 277 281 l 2
 167 281 100 236 100 145 c 0
 100 66 148 21 224 21 c 0
EndSplineSet
Substitution2: "'smcp' Lowercase to Small Capitals lookup 27 subtable" aring.sc
Substitution2: "'aalt' Access All Alternates lookup 0 subtable" aring.sc
EndChar
StartChar: ccedilla
Encoding: 231 231 384
Width: 463
GlyphClass: 2
Flags: MW
HStem: -218 30<278 307 278 316> -198 21G<219 219> -93 23 -10 31<292 292> -9 30<266 266> 499 32<233.5 310.5>
VStem: 69 36<178.5 337.5 178.5 341.5> 263.5 28.5 350 33<-156.5 -124>
AnchorPoint: "Anchor-14" 0 0 basechar 0
AnchorPoint: "Anchor-13" 0 0 basechar 0
AnchorPoint: "Anchor-12" 282 520 basechar 0
AnchorPoint: "Anchor-11" 0 0 basechar 0
AnchorPoint: "Anchor-10" 304 -218 basechar 0
LayerCount: 2
Back
Fore
SplineSet
292 -70 m 1x7780
 355 -74 383 -99 383 -140 c 0
 383 -189 341 -218 291 -218 c 0xb780
 259 -218 236 -209 219 -198 c 1x7780
 233 -173 l 1
 246 -182 265 -188 291 -188 c 0
 323 -188 350 -173 350 -140 c 0
 350 -108 323 -94 261 -93 c 1
 266 -9 l 1xaf80
 147 0 69 96 69 257 c 0
 69 426 155 531 284 531 c 0
 341 531 381 516 423 480 c 1
 404 457 l 1
 372 485 336 499 285 499 c 0
 182 499 105 418 105 257 c 0
 105 100 181 21 284 21 c 0
 336 21 375 39 409 68 c 1
 428 44 l 1
 392 12 347 -9 292 -10 c 1
 292 -70 l 1x7780
EndSplineSet
Substitution2: "'smcp' Lowercase to Small Capitals lookup 27 subtable" ccedilla.sc
Substitution2: "'aalt' Access All Alternates lookup 0 subtable" ccedilla.sc
EndChar
StartChar: ecircumflex
Encoding: 234 234 415
Width: 530
GlyphClass: 2
Flags: MW
HStem: -10 31<233.5 313 233.5 316.5> 243 29<105 432 105 464 105 432> 500 31<228.5 328>
VStem: 69 36<243 243 243 272 243 341> 432 34<275.5 295 295 355.5>
AnchorPoint: "Anchor-14" 0 0 basechar 0
AnchorPoint: "Anchor-13" 0 0 basechar 0
AnchorPoint: "Anchor-12" 276 770 basechar 0
AnchorPoint: "Anchor-11" 377 5 basechar 0
AnchorPoint: "Anchor-10" 286 0 basechar 0
LayerCount: 2
Back
Fore
SplineSet
273 735 m 1
 156 650 l 1
 139 670 l 1
 264 770 l 1
 283 770 l 1
 408 670 l 1
 392 650 l 1
 273 735 l 1
466 283 m 0
 466 268 465 252 464 243 c 1
 105 243 l 1
 111 89 184 21 283 21 c 0
 343 21 381 41 427 76 c 1
 445 52 l 1
 399 13 350 -10 283 -10 c 0
 152 -10 69 88 69 256 c 0
 69 426 149 531 271 531 c 0
 402 531 466 432 466 283 c 0
432 272 m 1
 432 295 l 2
 432 416 383 500 273 500 c 0
 184 500 109 431 105 272 c 1
 432 272 l 1
EndSplineSet
Substitution2: "'smcp' Lowercase to Small Capitals lookup 27 subtable" ecircumflex.sc
Substitution2: "'aalt' Access All Alternates lookup 0 subtable" ecircumflex.sc
EndChar

StartChar: igrave
Encoding: 236 236 183
Width: 261
GlyphClass: 2
Flags: MW
HStem: 0 21G<114 148 114 114> 500 20G<114 148 148 148> 714 20G<38 38>
VStem: 114 34<0 520>
AnchorPoint: "Anchor-11" 0 0 basechar 0
AnchorPoint: "Anchor-10" 0 0 basechar 0
AnchorPoint: "Anchor-9" 131 520 basechar 0
AnchorPoint: "Anchor-8" 158 0 basechar 0
LayerCount: 2
Fore
SplineSet
234 673 m 1
 222 650 l 1
 38 734 l 1
 54 769 l 1
 234 673 l 1
148 0 m 1
 114 0 l 1
 114 520 l 1
 148 520 l 1
 148 0 l 1
EndSplineSet
Substitution2: "'smcp' Lowercase to Small Capitals lookup 24 subtable" igrave.sc
Substitution2: "'aalt' Access All Alternates lookup 0 subtable" igrave.sc
EndChar
StartChar: iacute
Encoding: 237 237 480
Width: 261
GlyphClass: 2
Flags: MW
HStem: 0 21G<114 148 114 114> 500 20G<114 148 148 148>
VStem: 114 34<0 520 0 520>
AnchorPoint: "Anchor-14" 0 0 basechar 0
AnchorPoint: "Anchor-13" 0 0 basechar 0
AnchorPoint: "Anchor-12" 131 769 basechar 0
AnchorPoint: "Anchor-11" 158 0 basechar 0
AnchorPoint: "Anchor-10" 131 0 basechar 0
LayerCount: 2
Back
Fore
SplineSet
203 769 m 1
 219 734 l 1
 35 650 l 1
 23 673 l 1
 203 769 l 1
148 520 m 1
 148 0 l 1
 114 0 l 1
 114 520 l 1
 148 520 l 1
EndSplineSet
Substitution2: "'smcp' Lowercase to Small Capitals lookup 27 subtable" iacute.sc
Substitution2: "'aalt' Access All Alternates lookup 0 subtable" iacute.sc
EndChar
StartChar: icircumflex
Encoding: 238 238 483
Width: 261
GlyphClass: 2
Flags: MW
HStem: 0 21G<114 148 114 114> 500 20G<114 148 148 148>
VStem: 114 34<0 520 0 520>
AnchorPoint: "Anchor-14" 0 0 basechar 0
AnchorPoint: "Anchor-13" 0 0 basechar 0
AnchorPoint: "Anchor-12" 133 770 basechar 0
AnchorPoint: "Anchor-11" 158 0 basechar 0
AnchorPoint: "Anchor-10" 131 0 basechar 0
LayerCount: 2
Back
Fore
SplineSet
13 650 m 1
 -4 670 l 1
 121 770 l 1
 140 770 l 1
 265 670 l 1
 249 650 l 1
 130 735 l 1
 13 650 l 1
148 520 m 1
 148 0 l 1
 114 0 l 1
 114 520 l 1
 148 520 l 1
EndSplineSet
Substitution2: "'smcp' Lowercase to Small Capitals lookup 27 subtable" icircumflex.sc
Substitution2: "'aalt' Access All Alternates lookup 0 subtable" icircumflex.sc
EndChar

StartChar: idieresis
Encoding: 239 239 181
Width: 261
GlyphClass: 2
Flags: MW
HStem: 0 21G<114 148 114 114> 500 20G<114 148 148 148> 669 54<34 50.5 208.5 225.5>
VStem: 15 55<688.5 703.5> 114 34<0 520> 189 56<688.5 703.5>
AnchorPoint: "Anchor-11" 0 0 basechar 0
AnchorPoint: "Anchor-10" 0 0 basechar 0
AnchorPoint: "Anchor-9" 130 633 basechar 0
AnchorPoint: "Anchor-8" 158 0 basechar 0
LayerCount: 2
Fore
SplineSet
42 723 m 0
 59 723 70 711 70 696 c 0
 70 681 59 669 42 669 c 0
 26 669 15 681 15 696 c 0
 15 711 26 723 42 723 c 0
217 723 m 0
 234 723 245 711 245 696 c 0
 245 681 234 669 217 669 c 0
 200 669 189 681 189 696 c 0
 189 711 200 723 217 723 c 0
148 0 m 1
 114 0 l 1
 114 520 l 1
 148 520 l 1
 148 0 l 1
EndSplineSet
Substitution2: "'smcp' Lowercase to Small Capitals lookup 24 subtable" idieresis.sc
Substitution2: "'aalt' Access All Alternates lookup 0 subtable" idieresis.sc
EndChar

StartChar: eth
Encoding: 240 240 154
Width: 555
GlyphClass: 2
Flags: MW
HStem: -10 31<217.5 322.5 217.5 330> 433 31<212.5 296> 551 20G<183 183> 661 20G<289 289> 713 20G<380 380> 720 20G<147 147>
VStem: 69 36<164.5 287 164.5 292> 437 35<203.5 303>
LayerCount: 2
Fore
SplineSet
313 665 m 1xfb
 412 586 472 479 472 290 c 0
 472 85 390 -10 270 -10 c 0
 141 -10 69 84 69 231 c 0
 69 353 137 464 260 464 c 0
 332 464 387 429 433 373 c 1
 421 485 377 573 291 642 c 1
 210 561 l 1
 183 571 l 1
 268 658 l 1
 233 680 185 702 139 711 c 1xfb
 147 740 l 1xf7
 195 730 243 710 289 681 c 1
 358 752 l 1
 380 733 l 1
 313 665 l 1xfb
270 21 m 0xf7
 375 21 437 114 437 293 c 0
 437 313 436 325 435 336 c 1
 387 396 329 433 263 433 c 0
 162 433 105 344 105 230 c 0
 105 99 165 21 270 21 c 0xf7
EndSplineSet
Substitution2: "'smcp' Lowercase to Small Capitals lookup 24 subtable" eth.sc
Substitution2: "'aalt' Access All Alternates lookup 0 subtable" eth.sc
EndChar
StartChar: ntilde
Encoding: 241 241 552
Width: 582
GlyphClass: 2
Flags: MW
HStem: 0 21G<114 148 114 114 440 474 440 440> 500 20G<114 143 143 143> 501 30<292.5 366.5> 673 20G<158 158> 674 30<336 366.5 336 371> 715 20G<435 435> 717 30<226.5 254.5>
VStem: 114 34<0 382 0 520> 440 34<0 366 366 371 0 412>
AnchorPoint: "Anchor-14" 0 0 basechar 0
AnchorPoint: "Anchor-13" 0 0 basechar 0
AnchorPoint: "Anchor-12" 297 704 basechar 0
AnchorPoint: "Anchor-11" 0 0 basechar 0
AnchorPoint: "Anchor-10" 289 0 basechar 0
LayerCount: 2
Back
Fore
SplineSet
238 717 m 0xb380
 215 717 199 707 179 681 c 1
 158 693 l 1
 179 727 206 747 238 747 c 0xb380
 278 747 316 704 356 704 c 0
 377 704 392 715 414 747 c 1
 435 735 l 1
 413 691 386 674 356 674 c 0xad80
 307 674 271 717 238 717 c 0xb380
333 531 m 0xb580
 427 531 474 472 474 371 c 2
 474 0 l 1
 440 0 l 1
 440 366 l 2
 440 458 403 501 330 501 c 0xb580
 250 501 196 452 148 382 c 1
 148 0 l 1
 114 0 l 1
 114 520 l 1
 143 520 l 1xd580
 147 423 l 1
 192 487 252 531 333 531 c 0xb580
EndSplineSet
Substitution2: "'smcp' Lowercase to Small Capitals lookup 27 subtable" ntilde.sc
Substitution2: "'aalt' Access All Alternates lookup 0 subtable" ntilde.sc
EndChar

StartChar: oacute
Encoding: 243 243 209
Width: 562
GlyphClass: 2
Flags: MW
HStem: -10 31<226 335 226 345.5> 500 31<228 337>
VStem: 69 36<182.5 338.5 182.5 345> 458 35<183 339.5>
AnchorPoint: "Anchor-11" 0 0 basechar 0
AnchorPoint: "Anchor-10" 0 0 basechar 0
AnchorPoint: "Anchor-9" 282 520 basechar 0
AnchorPoint: "Anchor-8" 0 0 basechar 0
LayerCount: 2
Fore
SplineSet
369 734 m 1
 185 650 l 1
 173 673 l 1
 353 769 l 1
 369 734 l 1
282 531 m 0
 412 531 493 436 493 262 c 0
 493 90 410 -10 281 -10 c 0
 149 -10 69 91 69 259 c 0
 69 431 153 531 282 531 c 0
282 500 m 0
 174 500 105 418 105 259 c 0
 105 106 171 21 281 21 c 0
 389 21 458 104 458 262 c 0
 458 417 392 500 282 500 c 0
EndSplineSet
Substitution2: "'smcp' Lowercase to Small Capitals lookup 24 subtable" oacute.sc
Substitution2: "'locl' Localized Forms in Latin lookup 7 subtable" oacute.loclPLK
AlternateSubs2: "'aalt' Access All Alternates lookup 1 subtable" oacute.loclPLK oacute.sc
EndChar

StartChar: ocircumflex
Encoding: 244 244 211
Width: 562
GlyphClass: 2
Flags: MW
HStem: -10 31<226 335 226 345.5> 500 31<228 337>
VStem: 69 36<182.5 338.5 182.5 345> 458 35<183 339.5>
AnchorPoint: "Anchor-11" 0 0 basechar 0
AnchorPoint: "Anchor-10" 0 0 basechar 0
AnchorPoint: "Anchor-9" 282 520 basechar 0
AnchorPoint: "Anchor-8" 0 0 basechar 0
LayerCount: 2
Fore
SplineSet
150 670 m 1
 275 770 l 1
 294 770 l 1
 419 670 l 1
 403 650 l 1
 284 735 l 1
 167 650 l 1
 150 670 l 1
282 531 m 0
 412 531 493 436 493 262 c 0
 493 90 410 -10 281 -10 c 0
 149 -10 69 91 69 259 c 0
 69 431 153 531 282 531 c 0
282 500 m 0
 174 500 105 418 105 259 c 0
 105 106 171 21 281 21 c 0
 389 21 458 104 458 262 c 0
 458 417 392 500 282 500 c 0
EndSplineSet
Substitution2: "'smcp' Lowercase to Small Capitals lookup 24 subtable" ocircumflex.sc
Substitution2: "'aalt' Access All Alternates lookup 0 subtable" ocircumflex.sc
EndChar

StartChar: otilde
Encoding: 245 245 218
Width: 562
GlyphClass: 2
Flags: MW
HStem: -10 31<226 335 226 345.5> 500 31<228 337> 674 30<321.5 352 321.5 358> 715 20G<420 420> 717 30<208 240>
VStem: 69 36<182.5 338.5 182.5 345> 458 35<183 339.5>
AnchorPoint: "Anchor-11" 0 0 basechar 0
AnchorPoint: "Anchor-10" 0 0 basechar 0
AnchorPoint: "Anchor-9" 282 520 basechar 0
AnchorPoint: "Anchor-8" 0 0 basechar 0
LayerCount: 2
Fore
SplineSet
345 674 m 0xf6
 289 674 257 717 223 717 c 0
 193 717 184 707 164 681 c 1
 143 693 l 1
 164 727 188 747 223 747 c 0xce
 263 747 301 704 342 704 c 0xee
 362 704 377 715 399 747 c 1xce
 420 735 l 1
 398 691 371 674 345 674 c 0xf6
282 531 m 0xce
 412 531 493 436 493 262 c 0
 493 90 410 -10 281 -10 c 0
 149 -10 69 91 69 259 c 0
 69 431 153 531 282 531 c 0xce
282 500 m 0
 174 500 105 418 105 259 c 0
 105 106 171 21 281 21 c 0
 389 21 458 104 458 262 c 0
 458 417 392 500 282 500 c 0
EndSplineSet
Substitution2: "'smcp' Lowercase to Small Capitals lookup 24 subtable" otilde.sc
Substitution2: "'aalt' Access All Alternates lookup 0 subtable" otilde.sc
EndChar
StartChar: divide
Encoding: 247 247 2244
Width: 489
GlyphClass: 2
Flags: MW
HStem: 86 65<234.5 254.5> 315 32<74 415 74 415> 511 64<234.5 254.5>
VStem: 212 65<109.5 127 533.5 551.5>
LayerCount: 2
Back
Fore
SplineSet
244 575 m 0
 265 575 277 561 277 542 c 0
 277 525 265 511 244 511 c 0
 225 511 212 525 212 542 c 0
 212 561 225 575 244 575 c 0
74 315 m 1
 74 347 l 1
 415 347 l 1
 415 315 l 1
 74 315 l 1
244 151 m 0
 265 151 277 136 277 118 c 0
 277 101 265 86 244 86 c 0
 225 86 212 101 212 118 c 0
 212 136 225 151 244 151 c 0
EndSplineSet
Substitution2: "'onum' Oldstyle Figures lookup 25 subtable" divide.osf
Substitution2: "'tnum' Tabular Numbers lookup 24 subtable" divide.tf
AlternateSubs2: "'aalt' Access All Alternates lookup 1 subtable" divide.tf divide.osf
EndChar

StartChar: oslash
Encoding: 248 248 216
Width: 562
GlyphClass: 2
Flags: MW
HStem: -10 31<270 335 270 345.5> 1 20 500 20 500 31<228 293.5>
VStem: 69 36<204.5 338.5 204.5 345> 458 35<183 316.5>
AnchorPoint: "Anchor-11" 0 0 basechar 0
AnchorPoint: "Anchor-10" 0 0 basechar 0
AnchorPoint: "Anchor-9" 282 520 basechar 0
AnchorPoint: "Anchor-8" 0 0 basechar 0
LayerCount: 2
Fore
SplineSet
381 508 m 1x9c
 452 470 493 386 493 262 c 0
 493 90 410 -10 281 -10 c 0x9c
 256 -10 233 -6 212 1 c 1
 169 -122 l 1
 139 -113 l 1
 183 13 l 1
 110 52 69 138 69 259 c 0
 69 431 153 531 282 531 c 0x5c
 307 531 331 527 352 520 c 1xac
 392 643 l 1
 422 634 l 1
 381 508 l 1x9c
105 259 m 0
 105 150 138 76 196 42 c 1
 344 490 l 1
 325 497 305 500 282 500 c 0
 174 500 105 418 105 259 c 0
281 21 m 0
 389 21 458 104 458 262 c 0
 458 371 426 444 368 478 c 1
 220 31 l 1
 238 24 259 21 281 21 c 0
EndSplineSet
Substitution2: "'smcp' Lowercase to Small Capitals lookup 24 subtable" oslash.sc
Substitution2: "'aalt' Access All Alternates lookup 0 subtable" oslash.sc
EndChar

StartChar: ugrave
Encoding: 249 249 244
Width: 577
GlyphClass: 2
Flags: MW
HStem: -10 31<223.5 299.5> 0 21G 500 20G<109 143 143 143 430 464 464 464> 714 20G<193 193>
VStem: 109 34<149 152 152 520> 430 34<139 520>
AnchorPoint: "Anchor-11" 0 0 basechar 0
AnchorPoint: "Anchor-10" 0 0 basechar 0
AnchorPoint: "Anchor-9" 286 520 basechar 0
AnchorPoint: "Anchor-8" 474 0 basechar 0
LayerCount: 2
Fore
SplineSet
389 673 m 1xbc
 377 650 l 1
 193 734 l 1
 209 769 l 1
 389 673 l 1xbc
464 0 m 1x7c
 434 0 l 1x7c
 433 101 l 1
 399 40 342 -10 257 -10 c 0
 163 -10 109 46 109 149 c 2
 109 520 l 1
 143 520 l 1
 143 152 l 2
 143 61 185 21 262 21 c 0xbc
 339 21 390 70 430 139 c 1
 430 520 l 1
 464 520 l 1
 464 0 l 1x7c
EndSplineSet
Substitution2: "'smcp' Lowercase to Small Capitals lookup 24 subtable" ugrave.sc
Substitution2: "'aalt' Access All Alternates lookup 0 subtable" ugrave.sc
EndChar
StartChar: ucircumflex
Encoding: 251 251 666
Width: 577
GlyphClass: 2
Flags: MW
HStem: -10 31<223.5 299.5> 0 21G 500 20G<109 143 143 143 430 464 464 464>
VStem: 109 34<149 152 152 520> 430 34<139 520 0 520>
AnchorPoint: "Anchor-14" 0 0 basechar 0
AnchorPoint: "Anchor-13" 474 520 basechar 0
AnchorPoint: "Anchor-12" 288 770 basechar 0
AnchorPoint: "Anchor-11" 474 0 basechar 0
AnchorPoint: "Anchor-10" 286 0 basechar 0
LayerCount: 2
Back
Fore
SplineSet
168 650 m 1xb8
 151 670 l 1
 276 770 l 1
 295 770 l 1
 420 670 l 1
 404 650 l 1
 285 735 l 1
 168 650 l 1xb8
464 520 m 1
 464 0 l 1
 434 0 l 1x78
 433 101 l 1
 399 40 342 -10 257 -10 c 0
 163 -10 109 46 109 149 c 2
 109 520 l 1
 143 520 l 1
 143 152 l 2
 143 61 185 21 262 21 c 0
 339 21 390 70 430 139 c 1
 430 520 l 1
 464 520 l 1
EndSplineSet
Substitution2: "'smcp' Lowercase to Small Capitals lookup 27 subtable" ucircumflex.sc
Substitution2: "'aalt' Access All Alternates lookup 0 subtable" ucircumflex.sc
EndChar

StartChar: udieresis
Encoding: 252 252 243
Width: 577
GlyphClass: 2
Flags: MW
HStem: -10 31<223.5 299.5> 0 21G 500 20G<109 143 143 143 430 464 464 464> 669 54<190 206.5 364.5 381.5>
VStem: 109 34<149 152 152 520> 171 55<688.5 703.5> 345 56<688.5 703.5> 430 34<139 520>
AnchorPoint: "Anchor-11" 0 0 basechar 0
AnchorPoint: "Anchor-10" 0 0 basechar 0
AnchorPoint: "Anchor-9" 286 633 basechar 0
AnchorPoint: "Anchor-8" 474 0 basechar 0
LayerCount: 2
Fore
SplineSet
198 723 m 0xbf
 215 723 226 711 226 696 c 0
 226 681 215 669 198 669 c 0
 182 669 171 681 171 696 c 0
 171 711 182 723 198 723 c 0xbf
373 723 m 0
 390 723 401 711 401 696 c 0
 401 681 390 669 373 669 c 0
 356 669 345 681 345 696 c 0
 345 711 356 723 373 723 c 0
464 0 m 1x79
 434 0 l 1x79
 433 101 l 1
 399 40 342 -10 257 -10 c 0
 163 -10 109 46 109 149 c 2
 109 520 l 1
 143 520 l 1
 143 152 l 2
 143 61 185 21 262 21 c 0xb9
 339 21 390 70 430 139 c 1
 430 520 l 1
 464 520 l 1
 464 0 l 1x79
EndSplineSet
Substitution2: "'smcp' Lowercase to Small Capitals lookup 24 subtable" udieresis.sc
Substitution2: "'aalt' Access All Alternates lookup 0 subtable" udieresis.sc
EndChar

StartChar: thorn
Encoding: 254 254 221
Width: 572
GlyphClass: 2
Flags: MW
HStem: -200 21G<114 114> -193 21G<148 148> -10 31<268 354 268 367> 500 31<275 359> 714 20G<114 114> 719 20G<148 148>
VStem: 114 34<-193 71 111 404 443 734 734 734> 462 35<185 342.5>
LayerCount: 2
Fore
SplineSet
311 531 m 0x77
 432 531 497 436 497 264 c 0
 497 95 430 -10 304 -10 c 0
 232 -10 179 27 148 71 c 1
 148 -193 l 1x77
 114 -200 l 1
 114 734 l 1xbb
 148 739 l 1
 148 443 l 1
 186 495 239 531 311 531 c 0x77
302 21 m 0
 406 21 462 106 462 264 c 0
 462 421 409 500 309 500 c 0
 235 500 190 461 148 404 c 1
 148 111 l 1
 184 58 234 21 302 21 c 0
EndSplineSet
Substitution2: "'smcp' Lowercase to Small Capitals lookup 24 subtable" thorn.sc
Substitution2: "'aalt' Access All Alternates lookup 0 subtable" thorn.sc
EndChar
StartChar: ydieresis
Encoding: 255 255 706
Width: 451
GlyphClass: 2
Flags: MW
HStem: -198 21G<58 58> 0 21G<204 217 204 204> 0 26<204 227 204 227> 500 20G<19 57 57 57 394 431 431 431> 669 54<129 145.5 303.5 320.5>
VStem: 110 55<688.5 703.5> 284 56<688.5 703.5>
AnchorPoint: "Anchor-14" 0 0 basechar 0
AnchorPoint: "Anchor-13" 0 0 basechar 0
AnchorPoint: "Anchor-12" 227 723 basechar 0
AnchorPoint: "Anchor-11" 0 0 basechar 0
AnchorPoint: "Anchor-10" 227 -194 basechar 0
LayerCount: 2
Back
Fore
SplineSet
137 723 m 0xde
 154 723 165 711 165 696 c 0
 165 681 154 669 137 669 c 0
 121 669 110 681 110 696 c 0
 110 711 121 723 137 723 c 0xde
312 723 m 0
 329 723 340 711 340 696 c 0
 340 681 329 669 312 669 c 0
 295 669 284 681 284 696 c 0
 284 711 295 723 312 723 c 0
431 520 m 1
 249 -2 l 2
 209 -117 172 -167 58 -198 c 1
 54 -171 l 1
 158 -141 181 -99 217 0 c 1
 204 0 l 1
 19 520 l 1
 57 520 l 1
 227 26 l 1xbe
 394 520 l 1
 431 520 l 1
EndSplineSet
Substitution2: "'smcp' Lowercase to Small Capitals lookup 27 subtable" ydieresis.sc
Substitution2: "'aalt' Access All Alternates lookup 0 subtable" ydieresis.sc
EndChar
StartChar: Aogonek
Encoding: 260 260 28
Width: 559
GlyphClass: 2
Flags: MW
HStem: -208 33<455.5 487> -202 21G<532 532> 0 21G<24 59 24 24 533 533 533 535> 197 32<136 421 136 432 125 421> 654 28<279 279>
VStem: 376 36<-137 -95>
AnchorPoint: "Anchor-14" 0 0 basechar 0
AnchorPoint: "Anchor-13" 0 0 basechar 0
AnchorPoint: "Anchor-12" 280 682 basechar 0
AnchorPoint: "Anchor-11" 543 0 basechar 0
AnchorPoint: "Anchor-10" 280 0 basechar 0
LayerCount: 2
Back
Fore
SplineSet
412 -121 m 0xbc
 412 -153 432 -175 479 -175 c 0
 497 -175 514 -173 535 -169 c 1xbc
 532 -202 l 1x7c
 512 -206 497 -208 477 -208 c 0
 407 -208 376 -170 376 -123 c 0
 376 -67 417 -28 495 8 c 1
 432 197 l 1
 125 197 l 1
 59 0 l 1
 24 0 l 1
 258 682 l 1
 301 682 l 1
 535 0 l 1
 533 0 l 1
 454 -37 412 -66 412 -121 c 0xbc
136 229 m 1
 421 229 l 1
 279 654 l 1
 136 229 l 1
EndSplineSet
Substitution2: "'c2sc' Capitals to Small Capitals lookup 26 subtable" aogonek.sc
Substitution2: "'aalt' Access All Alternates lookup 0 subtable" aogonek.sc
Position2: "'cpsp' Capital Spacing lookup 0 subtable" dx=5 dy=0 dh=10 dv=0
EndChar

StartChar: Cacute
Encoding: 262 262 15
Width: 543
GlyphClass: 2
Flags: MW
HStem: -10 33<278.5 380.5 278.5 381.5> 660 33<282 377.5>
VStem: 74 36<234 454 234 459>
AnchorPoint: "Anchor-11" 341 0 basechar 0
AnchorPoint: "Anchor-10" 0 0 basechar 0
AnchorPoint: "Anchor-9" 342 682 basechar 0
AnchorPoint: "Anchor-8" 0 0 basechar 0
LayerCount: 2
Fore
SplineSet
446 837 m 1
 260 761 l 1
 250 783 l 1
 428 872 l 1
 446 837 l 1
345 693 m 0
 421 693 466 670 510 633 c 1
 491 608 l 1
 444 644 408 660 347 660 c 0
 217 660 110 567 110 341 c 0
 110 127 214 23 343 23 c 0
 418 23 457 47 498 81 c 1
 518 56 l 1
 475 18 421 -10 342 -10 c 0
 189 -10 74 112 74 341 c 0
 74 577 195 693 345 693 c 0
EndSplineSet
Substitution2: "'c2sc' Capitals to Small Capitals lookup 23 subtable" cacute.sc
Substitution2: "'locl' Localized Forms in Latin lookup 7 subtable" Cacute.loclPLK
AlternateSubs2: "'aalt' Access All Alternates lookup 1 subtable" Cacute.loclPLK cacute.sc
Position2: "'cpsp' Capital Spacing lookup 0 subtable" dx=5 dy=0 dh=10 dv=0
EndChar
StartChar: cacute
Encoding: 263 263 381
Width: 463
GlyphClass: 2
Flags: MW
HStem: -10 31<232.5 310 232.5 314.5> 499 32<233.5 310.5>
VStem: 69 36<178.5 337.5 178.5 341.5>
AnchorPoint: "Anchor-14" 0 0 basechar 0
AnchorPoint: "Anchor-13" 0 0 basechar 0
AnchorPoint: "Anchor-12" 283 769 basechar 0
AnchorPoint: "Anchor-11" 0 0 basechar 0
AnchorPoint: "Anchor-10" 283 0 basechar 0
LayerCount: 2
Back
Fore
SplineSet
355 769 m 1
 371 734 l 1
 187 650 l 1
 175 673 l 1
 355 769 l 1
284 531 m 0
 341 531 381 516 423 480 c 1
 404 457 l 1
 372 485 336 499 285 499 c 0
 182 499 105 418 105 257 c 0
 105 100 181 21 284 21 c 0
 336 21 375 39 409 68 c 1
 428 44 l 1
 391 11 343 -10 286 -10 c 0
 156 -10 69 87 69 257 c 0
 69 426 155 531 284 531 c 0
EndSplineSet
Substitution2: "'smcp' Lowercase to Small Capitals lookup 27 subtable" cacute.sc
Substitution2: "'locl' Localized Forms in Latin lookup 7 subtable" cacute.loclPLK
AlternateSubs2: "'aalt' Access All Alternates lookup 1 subtable" cacute.loclPLK cacute.sc
EndChar
StartChar: ccircumflex
Encoding: 265 265 385
Width: 463
GlyphClass: 2
Flags: MW
HStem: -10 31<232.5 310 232.5 314.5> 499 32<233.5 310.5>
VStem: 69 36<178.5 337.5 178.5 341.5>
AnchorPoint: "Anchor-14" 0 0 basechar 0
AnchorPoint: "Anchor-13" 0 0 basechar 0
AnchorPoint: "Anchor-12" 284 770 basechar 0
AnchorPoint: "Anchor-11" 0 0 basechar 0
AnchorPoint: "Anchor-10" 283 0 basechar 0
LayerCount: 2
Back
Fore
SplineSet
164 650 m 1
 147 670 l 1
 272 770 l 1
 291 770 l 1
 416 670 l 1
 400 650 l 1
 281 735 l 1
 164 650 l 1
284 531 m 0
 341 531 381 516 423 480 c 1
 404 457 l 1
 372 485 336 499 285 499 c 0
 182 499 105 418 105 257 c 0
 105 100 181 21 284 21 c 0
 336 21 375 39 409 68 c 1
 428 44 l 1
 391 11 343 -10 286 -10 c 0
 156 -10 69 87 69 257 c 0
 69 426 155 531 284 531 c 0
EndSplineSet
Substitution2: "'smcp' Lowercase to Small Capitals lookup 27 subtable" ccircumflex.sc
Substitution2: "'aalt' Access All Alternates lookup 0 subtable" ccircumflex.sc
EndChar

StartChar: Cdotaccent
Encoding: 266 266 19
Width: 543
GlyphClass: 2
Flags: MW
HStem: -10 33<278.5 380.5 278.5 381.5> 660 33<282 377.5> 805 55<333.5 351.5>
VStem: 74 36<234 454 234 459> 314 57<825.5 840>
AnchorPoint: "Anchor-11" 341 0 basechar 0
AnchorPoint: "Anchor-10" 0 0 basechar 0
AnchorPoint: "Anchor-9" 342 682 basechar 0
AnchorPoint: "Anchor-8" 0 0 basechar 0
LayerCount: 2
Fore
SplineSet
342 860 m 0
 361 860 371 847 371 833 c 0
 371 818 361 805 342 805 c 0
 325 805 314 818 314 833 c 0
 314 847 325 860 342 860 c 0
345 693 m 0
 421 693 466 670 510 633 c 1
 491 608 l 1
 444 644 408 660 347 660 c 0
 217 660 110 567 110 341 c 0
 110 127 214 23 343 23 c 0
 418 23 457 47 498 81 c 1
 518 56 l 1
 475 18 421 -10 342 -10 c 0
 189 -10 74 112 74 341 c 0
 74 577 195 693 345 693 c 0
EndSplineSet
Substitution2: "'c2sc' Capitals to Small Capitals lookup 23 subtable" cdotaccent.sc
Substitution2: "'aalt' Access All Alternates lookup 0 subtable" cdotaccent.sc
Position2: "'cpsp' Capital Spacing lookup 0 subtable" dx=5 dy=0 dh=10 dv=0
EndChar

StartChar: cdotaccent
Encoding: 267 267 152
Width: 463
GlyphClass: 2
Flags: MW
HStem: -10 31<232.5 310 232.5 314.5> 499 32<233.5 310.5> 679 55<273.5 291.5>
VStem: 69 36<178.5 337.5 178.5 341.5> 254 57<699.5 714>
AnchorPoint: "Anchor-11" 283 0 basechar 0
AnchorPoint: "Anchor-10" 0 0 basechar 0
AnchorPoint: "Anchor-9" 282 520 basechar 0
AnchorPoint: "Anchor-8" 0 0 basechar 0
LayerCount: 2
Fore
SplineSet
282 734 m 0
 301 734 311 721 311 707 c 0
 311 692 301 679 282 679 c 0
 265 679 254 692 254 707 c 0
 254 721 265 734 282 734 c 0
284 531 m 0
 341 531 381 516 423 480 c 1
 404 457 l 1
 372 485 336 499 285 499 c 0
 182 499 105 418 105 257 c 0
 105 100 181 21 284 21 c 0
 336 21 375 39 410 69 c 1
 428 44 l 1
 391 11 343 -10 286 -10 c 0
 156 -10 69 87 69 257 c 0
 69 426 155 531 284 531 c 0
EndSplineSet
Substitution2: "'smcp' Lowercase to Small Capitals lookup 24 subtable" cdotaccent.sc
Substitution2: "'aalt' Access All Alternates lookup 0 subtable" cdotaccent.sc
EndChar
StartChar: ccaron
Encoding: 269 269 383
Width: 463
GlyphClass: 2
Flags: MW
HStem: -10 31<232.5 310 232.5 314.5> 499 32<233.5 310.5> 718 20G<147 147 416 416>
VStem: 69 36<178.5 337.5 178.5 341.5>
AnchorPoint: "Anchor-14" 0 0 basechar 0
AnchorPoint: "Anchor-13" 0 0 basechar 0
AnchorPoint: "Anchor-12" 284 758 basechar 0
AnchorPoint: "Anchor-11" 0 0 basechar 0
AnchorPoint: "Anchor-10" 283 0 basechar 0
LayerCount: 2
Back
Fore
SplineSet
400 758 m 1
 416 738 l 1
 292 637 l 1
 273 637 l 1
 147 738 l 1
 164 758 l 1
 282 673 l 1
 400 758 l 1
284 531 m 0
 341 531 381 516 423 480 c 1
 404 457 l 1
 372 485 336 499 285 499 c 0
 182 499 105 418 105 257 c 0
 105 100 181 21 284 21 c 0
 336 21 375 39 409 68 c 1
 428 44 l 1
 391 11 343 -10 286 -10 c 0
 156 -10 69 87 69 257 c 0
 69 426 155 531 284 531 c 0
EndSplineSet
Substitution2: "'smcp' Lowercase to Small Capitals lookup 27 subtable" ccaron.sc
Substitution2: "'aalt' Access All Alternates lookup 0 subtable" ccaron.sc
EndChar

StartChar: Dcaron
Encoding: 270 270 22
Width: 623
GlyphClass: 2
Flags: MW
HStem: 0 32<154 253> 650 32<154 154 154 247>
VStem: 119 35<32 650 32 682 32 682> 513 37<218.5 480>
AnchorPoint: "Anchor-11" 0 0 basechar 0
AnchorPoint: "Anchor-10" 0 0 basechar 0
AnchorPoint: "Anchor-9" 297 682 basechar 0
AnchorPoint: "Anchor-8" 0 0 basechar 0
LayerCount: 2
Fore
SplineSet
436 853 m 1
 312 758 l 1
 293 758 l 1
 167 853 l 1
 184 873 l 1
 302 793 l 1
 420 873 l 1
 436 853 l 1
249 682 m 2
 397 682 550 627 550 348 c 0
 550 61 388 0 253 0 c 2
 119 0 l 1
 119 682 l 1
 249 682 l 2
154 650 m 1
 154 32 l 1
 254 32 l 2
 380 32 513 89 513 348 c 0
 513 612 375 650 247 650 c 2
 154 650 l 1
EndSplineSet
Substitution2: "'c2sc' Capitals to Small Capitals lookup 23 subtable" dcaron.sc
Substitution2: "'aalt' Access All Alternates lookup 0 subtable" dcaron.sc
Position2: "'cpsp' Capital Spacing lookup 0 subtable" dx=5 dy=0 dh=10 dv=0
EndChar

StartChar: dcaron
Encoding: 271 271 155
Width: 576
GlyphClass: 2
Flags: MW
HStem: -10 31<221 308.5 221 310> 0 21G 500 31<230.5 317> 714 20G<463 463 587 587> 718 20G<551 551> 719 20G<429 429>
VStem: 74 36<182.5 258 182.5 338.5> 429 34<86 86 132 413 413 413 454 734 0 739 0 739>
LayerCount: 2
Fore
SplineSet
429 739 m 1xa7
 463 734 l 1
 463 0 l 1
 433 0 l 1x73
 429 86 l 1
 402 35 352 -10 268 -10 c 0
 151 -10 74 90 74 258 c 0
 74 419 150 531 278 531 c 0
 357 531 401 491 429 454 c 1
 429 739 l 1xa7
587 734 m 1
 556 584 l 1
 533 587 l 1
 551 738 l 1xab
 587 734 l 1
270 21 m 0
 347 21 393 61 429 132 c 1
 429 413 l 1
 399 460 353 500 281 500 c 0
 180 500 109 411 110 258 c 0
 110 107 172 21 270 21 c 0
EndSplineSet
Substitution2: "'smcp' Lowercase to Small Capitals lookup 24 subtable" dcaron.sc
Substitution2: "'aalt' Access All Alternates lookup 0 subtable" dcaron.sc
EndChar

StartChar: dcroat
Encoding: 273 273 156
Width: 582
GlyphClass: 2
Flags: MW
HStem: -10 31<221 308.5 221 310> 0 21G 500 31<230.5 317> 624 30<263 429 263 263 463 538> 714 20G<463 463> 719 20G<429 429>
VStem: 74 36<182.5 258 182.5 338.5> 431 32
LayerCount: 2
Fore
SplineSet
538 654 m 1xb7
 538 624 l 1
 463 624 l 1
 463 0 l 1
 433 0 l 1x77
 429 86 l 1
 402 35 352 -10 268 -10 c 0
 151 -10 74 90 74 258 c 0
 74 419 150 531 278 531 c 0
 357 531 401 491 429 454 c 1
 429 624 l 1
 263 624 l 1
 258 654 l 1
 429 654 l 1
 429 739 l 1xb7
 463 734 l 1xbb
 463 654 l 1
 538 654 l 1xb7
270 21 m 0xb7
 347 21 393 61 429 132 c 1
 429 413 l 1
 399 460 353 500 281 500 c 0
 180 500 109 411 110 258 c 0
 110 107 172 21 270 21 c 0xb7
EndSplineSet
Substitution2: "'smcp' Lowercase to Small Capitals lookup 24 subtable" dcroat.sc
Substitution2: "'aalt' Access All Alternates lookup 0 subtable" dcroat.sc
EndChar

StartChar: Ebreve
Encoding: 276 276 26
Width: 496
GlyphClass: 2
Flags: MW
HStem: 0 32<154 455 154 455> 343 31<154 405 154 405> 650 32<154 444 154 154> 769 32<264.5 311.5 264.5 319>
VStem: 119 35<32 343 374 650>
AnchorPoint: "Anchor-11" 284 0 basechar 0
AnchorPoint: "Anchor-10" 90 682 basechar 0
AnchorPoint: "Anchor-9" 288 682 basechar 0
AnchorPoint: "Anchor-8" 439 0 basechar 0
LayerCount: 2
Fore
SplineSet
288 769 m 0
 227 769 182 808 173 854 c 1
 198 859 l 1
 210 825 241 801 288 801 c 0
 335 801 367 825 379 859 c 1
 404 854 l 1
 395 808 350 769 288 769 c 0
444 650 m 1
 154 650 l 1
 154 374 l 1
 405 374 l 1
 405 343 l 1
 154 343 l 1
 154 32 l 1
 455 32 l 1
 455 0 l 1
 119 0 l 1
 119 682 l 1
 449 682 l 1
 444 650 l 1
EndSplineSet
Substitution2: "'c2sc' Capitals to Small Capitals lookup 23 subtable" ebreve.sc
Substitution2: "'aalt' Access All Alternates lookup 0 subtable" ebreve.sc
Position2: "'cpsp' Capital Spacing lookup 0 subtable" dx=5 dy=0 dh=10 dv=0
EndChar
StartChar: Edotaccent
Encoding: 278 278 80
Width: 496
GlyphClass: 2
Flags: MW
HStem: 0 32<154 455 154 455> 343 31<154 405 154 405> 650 32<154 444 154 154> 805 55<279.5 297.5>
VStem: 119 35<32 343 374 650> 260 57<825.5 840>
AnchorPoint: "Anchor-14" 0 0 basechar 0
AnchorPoint: "Anchor-13" 0 0 basechar 0
AnchorPoint: "Anchor-12" 291 860 basechar 0
AnchorPoint: "Anchor-11" 439 0 basechar 0
AnchorPoint: "Anchor-10" 284 0 basechar 0
LayerCount: 2
Back
Fore
SplineSet
288 860 m 0
 307 860 317 847 317 833 c 0
 317 818 307 805 288 805 c 0
 271 805 260 818 260 833 c 0
 260 847 271 860 288 860 c 0
449 682 m 1
 444 650 l 1
 154 650 l 1
 154 374 l 1
 405 374 l 1
 405 343 l 1
 154 343 l 1
 154 32 l 1
 455 32 l 1
 455 0 l 1
 119 0 l 1
 119 682 l 1
 449 682 l 1
EndSplineSet
Substitution2: "'c2sc' Capitals to Small Capitals lookup 26 subtable" edotaccent.sc
Substitution2: "'aalt' Access All Alternates lookup 0 subtable" edotaccent.sc
Position2: "'cpsp' Capital Spacing lookup 0 subtable" dx=5 dy=0 dh=10 dv=0
EndChar

StartChar: Eogonek
Encoding: 280 280 33
Width: 496
GlyphClass: 2
Flags: MW
HStem: -208 33<354.5 383> -202 21G<428 428> 0 32<154 375 429 455 429 429> 343 31<154 405 154 405> 650 32<154 444 154 154>
VStem: 119 35<32 343 374 650> 272 36<-137 -97>
AnchorPoint: "Anchor-11" 284 0 basechar 0
AnchorPoint: "Anchor-10" 90 682 basechar 0
AnchorPoint: "Anchor-9" 288 682 basechar 0
AnchorPoint: "Anchor-8" 439 0 basechar 0
LayerCount: 2
Fore
SplineSet
429 0 m 1xbe
 350 -37 308 -66 308 -121 c 0
 308 -153 331 -175 378 -175 c 0
 396 -175 410 -173 431 -169 c 1xbe
 428 -202 l 1x7e
 408 -206 393 -208 373 -208 c 0
 303 -208 272 -170 272 -123 c 0
 272 -71 307 -34 375 0 c 1
 119 0 l 1
 119 682 l 1
 449 682 l 1
 444 650 l 1
 154 650 l 1
 154 374 l 1
 405 374 l 1
 405 343 l 1
 154 343 l 1
 154 32 l 1
 455 32 l 1
 455 0 l 1
 429 0 l 1xbe
EndSplineSet
Substitution2: "'c2sc' Capitals to Small Capitals lookup 23 subtable" eogonek.sc
Substitution2: "'aalt' Access All Alternates lookup 0 subtable" eogonek.sc
Position2: "'cpsp' Capital Spacing lookup 0 subtable" dx=5 dy=0 dh=10 dv=0
EndChar

StartChar: eogonek
Encoding: 281 281 166
Width: 530
GlyphClass: 2
Flags: MW
HStem: -203 33<292.5 321> -10 31<233.5 283 283 292> 243 29<104 432 104 464 104 432> 500 31<228.5 328>
VStem: 69 35<243 243 243 272 243 341> 210 36<-132 -95.5> 432 34<275.5 295 295 355.5>
AnchorPoint: "Anchor-11" 286 0 basechar 0
AnchorPoint: "Anchor-10" 0 0 basechar 0
AnchorPoint: "Anchor-9" 274 520 basechar 0
AnchorPoint: "Anchor-8" 377 5 basechar 0
LayerCount: 2
Fore
SplineSet
466 283 m 0
 466 268 465 252 464 243 c 1
 104 243 l 1
 111 89 184 21 283 21 c 0
 343 21 381 41 427 76 c 1
 445 52 l 1
 419 30 393 13 362 3 c 1
 286 -33 246 -62 246 -116 c 0
 246 -148 269 -170 316 -170 c 0
 334 -170 348 -168 369 -164 c 1
 366 -197 l 1
 346 -201 331 -203 311 -203 c 0
 241 -203 210 -165 210 -118 c 0
 210 -73 237 -39 292 -10 c 1
 283 -10 l 2
 152 -10 69 88 69 256 c 0
 69 426 149 531 271 531 c 0
 402 531 466 432 466 283 c 0
432 272 m 1
 432 295 l 2
 432 416 383 500 273 500 c 0
 184 500 109 431 104 272 c 1
 432 272 l 1
EndSplineSet
Substitution2: "'smcp' Lowercase to Small Capitals lookup 24 subtable" eogonek.sc
Substitution2: "'aalt' Access All Alternates lookup 0 subtable" eogonek.sc
EndChar
StartChar: Gcircumflex
Encoding: 284 284 103
Width: 609
GlyphClass: 2
Flags: MW
HStem: -10 32<280 384 280 384.5> 328 32<363 505 363 363> 660 33<291 379.5>
VStem: 74 36<235.5 458.5 235.5 464> 505 35<61 328 328 328>
AnchorPoint: "Anchor-14" 0 0 basechar 0
AnchorPoint: "Anchor-13" 435 734 basechar 0
AnchorPoint: "Anchor-12" 348 879 basechar 0
AnchorPoint: "Anchor-11" 0 0 basechar 0
AnchorPoint: "Anchor-10" 337 0 basechar 0
LayerCount: 2
Back
Fore
SplineSet
467 765 m 1
 349 844 l 1
 231 765 l 1
 214 784 l 1
 340 879 l 1
 359 879 l 1
 483 784 l 1
 467 765 l 1
348 693 m 0
 423 693 472 672 525 631 c 1
 504 607 l 1
 456 644 411 660 348 660 c 0
 234 660 110 572 110 345 c 0
 110 126 208 22 352 22 c 0
 416 22 460 36 505 61 c 1
 505 328 l 1
 363 328 l 1
 359 360 l 1
 540 360 l 1
 540 42 l 1
 483 8 417 -10 352 -10 c 0
 188 -10 74 109 74 345 c 0
 74 583 214 693 348 693 c 0
EndSplineSet
Substitution2: "'c2sc' Capitals to Small Capitals lookup 26 subtable" gcircumflex.sc
Substitution2: "'aalt' Access All Alternates lookup 0 subtable" gcircumflex.sc
Position2: "'cpsp' Capital Spacing lookup 0 subtable" dx=5 dy=0 dh=10 dv=0
EndChar
StartChar: Gbreve
Encoding: 286 286 101
Width: 609
GlyphClass: 2
Flags: MW
HStem: -10 32<280 384 280 384.5> 328 32<363 505 363 363> 660 33<291 379.5> 769 32<325.5 372.5 325.5 380>
VStem: 74 36<235.5 458.5 235.5 464> 505 35<61 328 328 328>
AnchorPoint: "Anchor-14" 0 0 basechar 0
AnchorPoint: "Anchor-13" 0 0 basechar 0
AnchorPoint: "Anchor-12" 352 859 basechar 0
AnchorPoint: "Anchor-11" 0 0 basechar 0
AnchorPoint: "Anchor-10" 337 0 basechar 0
LayerCount: 2
Back
Fore
SplineSet
349 769 m 0
 288 769 243 808 234 854 c 1
 259 859 l 1
 271 825 302 801 349 801 c 0
 396 801 428 825 440 859 c 1
 465 854 l 1
 456 808 411 769 349 769 c 0
348 693 m 0
 423 693 472 672 525 631 c 1
 504 607 l 1
 456 644 411 660 348 660 c 0
 234 660 110 572 110 345 c 0
 110 126 208 22 352 22 c 0
 416 22 460 36 505 61 c 1
 505 328 l 1
 363 328 l 1
 359 360 l 1
 540 360 l 1
 540 42 l 1
 483 8 417 -10 352 -10 c 0
 188 -10 74 109 74 345 c 0
 74 583 214 693 348 693 c 0
EndSplineSet
Substitution2: "'c2sc' Capitals to Small Capitals lookup 26 subtable" gbreve.sc
Substitution2: "'aalt' Access All Alternates lookup 0 subtable" gbreve.sc
Position2: "'cpsp' Capital Spacing lookup 0 subtable" dx=5 dy=0 dh=10 dv=0
EndChar
StartChar: gbreve
Encoding: 287 287 454
Width: 491
GlyphClass: 2
Flags: MW
HStem: -200 31<185 314.5 185 323.5> 38 31<175 305 219 302> 188 29<231 290.5 201.5 300.5> 501 30<194.5 245 188 294.5> 505 26 660 31<221.5 268.5 221.5 276>
VStem: 39 33<-108 -57> 61 35<323.5 400.5 312 410> 91 35<112.5 142> 390 35<312 396 305.5 398.5> 428 35<-92 -28>
AnchorPoint: "Anchor-14" 0 0 basechar 0
AnchorPoint: "Anchor-13" 0 0 basechar 0
AnchorPoint: "Anchor-12" 248 760 basechar 0
AnchorPoint: "Anchor-11" 0 0 basechar 0
AnchorPoint: "Anchor-10" 252 -194 basechar 0
LayerCount: 2
Back
Fore
SplineSet
245 660 m 0xf540
 184 660 139 699 130 754 c 1
 155 760 l 1
 167 716 198 691 245 691 c 0
 292 691 324 716 336 760 c 1
 361 754 l 1
 352 699 307 660 245 660 c 0xf540
466 555 m 1
 477 519 l 1
 447 511 404 506 339 505 c 1
 389 480 425 436 425 356 c 0
 425 255 357 188 244 188 c 0
 218 188 195 192 175 199 c 1
 145 182 126 159 126 130 c 0
 126 95 150 69 219 69 c 2xecc0
 305 69 l 2
 405 69 463 18 463 -56 c 0
 463 -145 396 -200 251 -200 c 0
 102 -200 39 -159 39 -57 c 1
 72 -57 l 1xf620
 74 -139 119 -169 251 -169 c 0
 378 -169 428 -126 428 -58 c 0
 428 2 382 38 302 38 c 2
 216 38 l 2
 134 38 91 76 91 124 c 0xf4a0
 91 160 114 189 149 210 c 1
 90 240 61 288 61 359 c 0
 61 461 131 531 245 531 c 0
 391 529 422 539 466 555 c 1
245 501 m 0xf540
 144 501 96 442 96 359 c 0
 96 265 159 217 244 217 c 0
 337 217 390 268 390 356 c 0
 390 441 344 501 245 501 c 0xf540
EndSplineSet
Substitution2: "'smcp' Lowercase to Small Capitals lookup 27 subtable" gbreve.sc
Substitution2: "'aalt' Access All Alternates lookup 0 subtable" gbreve.sc
EndChar

StartChar: Gdotaccent
Encoding: 288 288 39
Width: 609
GlyphClass: 2
Flags: MW
HStem: -10 32<280 384 280 384.5> 328 32<363 505 363 363> 660 33<291 379.5> 805 55<340.5 358.5>
VStem: 74 36<235.5 458.5 235.5 464> 321 57<825.5 840> 505 35<61 328 328 328>
AnchorPoint: "Anchor-11" 337 0 basechar 0
AnchorPoint: "Anchor-10" 0 0 basechar 0
AnchorPoint: "Anchor-9" 349 682 basechar 0
AnchorPoint: "Anchor-8" 0 0 basechar 0
LayerCount: 2
Fore
SplineSet
349 860 m 0
 368 860 378 847 378 833 c 0
 378 818 368 805 349 805 c 0
 332 805 321 818 321 833 c 0
 321 847 332 860 349 860 c 0
348 693 m 0
 423 693 472 672 525 631 c 1
 504 607 l 1
 456 644 411 660 348 660 c 0
 234 660 110 572 110 345 c 0
 110 126 208 22 352 22 c 0
 416 22 460 36 505 61 c 1
 505 328 l 1
 363 328 l 1
 359 360 l 1
 540 360 l 1
 540 42 l 1
 483 8 417 -10 352 -10 c 0
 188 -10 74 109 74 345 c 0
 74 583 214 693 348 693 c 0
EndSplineSet
Substitution2: "'c2sc' Capitals to Small Capitals lookup 23 subtable" gdotaccent.sc
Substitution2: "'aalt' Access All Alternates lookup 0 subtable" gdotaccent.sc
Position2: "'cpsp' Capital Spacing lookup 0 subtable" dx=5 dy=0 dh=10 dv=0
EndChar
StartChar: Gcommaaccent
Encoding: 290 290 104
Width: 609
GlyphClass: 2
Flags: MW
HStem: -10 32<280 384 280 384.5> 328 32<363 505 363 363> 660 33<291 379.5>
VStem: 74 36<235.5 458.5 235.5 464> 301 68<-131 -114> 505 35<61 328 328 328>
AnchorPoint: "Anchor-14" 0 0 basechar 0
AnchorPoint: "Anchor-13" 0 0 basechar 0
AnchorPoint: "Anchor-12" 349 682 basechar 0
AnchorPoint: "Anchor-11" 0 0 basechar 0
AnchorPoint: "Anchor-10" 337 0 basechar 0
LayerCount: 2
Back
Fore
SplineSet
348 693 m 0
 423 693 472 672 525 631 c 1
 504 607 l 1
 456 644 411 660 348 660 c 0
 234 660 110 572 110 345 c 0
 110 126 208 22 352 22 c 0
 416 22 460 36 505 61 c 1
 505 328 l 1
 363 328 l 1
 359 360 l 1
 540 360 l 1
 540 42 l 1
 483 8 417 -10 352 -10 c 0
 188 -10 74 109 74 345 c 0
 74 583 214 693 348 693 c 0
335 -90 m 0
 357 -90 369 -105 369 -123 c 0
 369 -139 364 -149 350 -181 c 2
 311 -267 l 1
 287 -267 l 1
 321 -154 l 1
 308 -148 301 -139 301 -123 c 0
 301 -105 315 -90 335 -90 c 0
EndSplineSet
Substitution2: "'c2sc' Capitals to Small Capitals lookup 26 subtable" gcommaaccent.sc
Substitution2: "'aalt' Access All Alternates lookup 0 subtable" gcommaaccent.sc
Position2: "'cpsp' Capital Spacing lookup 0 subtable" dx=5 dy=0 dh=10 dv=0
EndChar
StartChar: Hcircumflex
Encoding: 292 292 112
Width: 663
GlyphClass: 2
Flags: MW
HStem: 0 21G<119 154 119 119 509 544 509 509> 344 32<154 509 154 509> 662 20G<119 154 154 154 509 544 544 544>
VStem: 119 35<0 344 0 376 376 682> 509 35<0 344 344 344 376 682 0 682>
AnchorPoint: "Anchor-14" 330 341 basechar 0
AnchorPoint: "Anchor-13" 416 734 basechar 0
AnchorPoint: "Anchor-12" 329 879 basechar 0
AnchorPoint: "Anchor-11" 0 0 basechar 0
AnchorPoint: "Anchor-10" 332 0 basechar 0
LayerCount: 2
Back
Fore
SplineSet
448 765 m 1
 330 844 l 1
 212 765 l 1
 195 784 l 1
 321 879 l 1
 340 879 l 1
 464 784 l 1
 448 765 l 1
509 0 m 1
 509 344 l 1
 154 344 l 1
 154 0 l 1
 119 0 l 1
 119 682 l 1
 154 682 l 1
 154 376 l 1
 509 376 l 1
 509 682 l 1
 544 682 l 1
 544 0 l 1
 509 0 l 1
EndSplineSet
Substitution2: "'c2sc' Capitals to Small Capitals lookup 26 subtable" hcircumflex.sc
Substitution2: "'aalt' Access All Alternates lookup 0 subtable" hcircumflex.sc
Position2: "'cpsp' Capital Spacing lookup 0 subtable" dx=5 dy=0 dh=10 dv=0
EndChar
StartChar: hcircumflex
Encoding: 293 293 472
Width: 582
GlyphClass: 2
Flags: MW
HStem: 0 21G<114 148 114 114 440 474 440 440> 501 30<293 366.5> 714 20G<114 114> 720 20G<148 148>
VStem: 114 34<0 382 423 734 734 734> 440 34<0 366 366 371 0 411>
AnchorPoint: "Anchor-14" 296 260 basechar 0
AnchorPoint: "Anchor-13" 382 786 basechar 0
AnchorPoint: "Anchor-12" 295 931 basechar 0
AnchorPoint: "Anchor-11" 0 0 basechar 0
AnchorPoint: "Anchor-10" 294 0 basechar 0
LayerCount: 2
Back
Fore
SplineSet
296 896 m 1xdc
 178 817 l 1
 161 836 l 1
 287 931 l 1
 306 931 l 1
 430 836 l 1
 414 817 l 1
 296 896 l 1xdc
333 531 m 0
 426 531 474 470 474 371 c 2
 474 0 l 1
 440 0 l 1
 440 366 l 2
 440 456 403 501 330 501 c 0
 250 501 196 452 148 382 c 1
 148 0 l 1
 114 0 l 1
 114 734 l 1xec
 148 740 l 1
 148 423 l 1
 194 487 253 531 333 531 c 0
EndSplineSet
Substitution2: "'smcp' Lowercase to Small Capitals lookup 27 subtable" hcircumflex.sc
Substitution2: "'aalt' Access All Alternates lookup 0 subtable" hcircumflex.sc
EndChar
StartChar: Hbar
Encoding: 294 294 110
Width: 664
GlyphClass: 2
Flags: MW
HStem: 0 21G<119 154 119 119 510 545 510 510> 344 32<154 510 154 510> 517 27<56 119 56 119 154 510 545 608> 517 165<56 154 56 154 119 154 119 510>
VStem: 119 35<0 344 0 376 376 517 544 682> 510 35<0 344 344 344 376 517 0 517 544 682>
AnchorPoint: "Anchor-14" 330 341 basechar 0
AnchorPoint: "Anchor-13" 0 0 basechar 0
AnchorPoint: "Anchor-12" 330 682 basechar 0
AnchorPoint: "Anchor-11" 0 0 basechar 0
AnchorPoint: "Anchor-10" 332 0 basechar 0
LayerCount: 2
Back
Fore
SplineSet
608 544 m 1xec
 608 517 l 1
 545 517 l 1
 545 0 l 1
 510 0 l 1
 510 344 l 1
 154 344 l 1
 154 0 l 1
 119 0 l 1
 119 517 l 1
 56 517 l 1
 56 544 l 1
 119 544 l 1xec
 119 682 l 1
 154 682 l 1xdc
 154 544 l 1
 510 544 l 1xec
 510 682 l 1
 545 682 l 1xdc
 545 544 l 1
 608 544 l 1xec
510 376 m 1
 510 517 l 1
 154 517 l 1
 154 376 l 1
 510 376 l 1
EndSplineSet
Substitution2: "'c2sc' Capitals to Small Capitals lookup 26 subtable" hbar.sc
Substitution2: "'aalt' Access All Alternates lookup 0 subtable" hbar.sc
Position2: "'cpsp' Capital Spacing lookup 0 subtable" dx=5 dy=0 dh=10 dv=0
EndChar

StartChar: hbar
Encoding: 295 295 174
Width: 587
GlyphClass: 2
Flags: MW
HStem: 0 21G<119 153 119 119 445 479 445 445> 501 30<298 371.5> 624 30<44 119 44 119 153 327> 714 20G<119 119> 720 20G<153 153>
VStem: 119 34<0 382 423 624 654 734 734 734> 445 34<0 366 366 371 0 411>
AnchorPoint: "Anchor-11" 0 0 basechar 0
AnchorPoint: "Anchor-10" 0 0 basechar 0
AnchorPoint: "Anchor-9" 301 734 basechar 0
AnchorPoint: "Anchor-8" 0 0 basechar 0
LayerCount: 2
Fore
SplineSet
338 531 m 0xee
 431 531 479 470 479 371 c 2
 479 0 l 1
 445 0 l 1
 445 366 l 2
 445 456 408 501 335 501 c 0
 255 501 201 452 153 382 c 1
 153 0 l 1
 119 0 l 1
 119 624 l 1
 44 624 l 1
 44 654 l 1
 119 654 l 1
 119 734 l 1xf6
 153 740 l 1
 153 654 l 1
 333 654 l 1
 327 624 l 1
 153 624 l 1
 153 423 l 1
 199 488 258 531 338 531 c 0xee
EndSplineSet
Substitution2: "'smcp' Lowercase to Small Capitals lookup 24 subtable" hbar.sc
Substitution2: "'aalt' Access All Alternates lookup 0 subtable" hbar.sc
EndChar
StartChar: Itilde
Encoding: 296 296 136
Width: 273
GlyphClass: 2
Flags: MW
HStem: 0 21G<119 154 119 119> 662 20G<119 154 154 154> 800 30<175 205.5 175 210> 843 30<65.5 93.5>
VStem: 119 35<0 682 0 682>
AnchorPoint: "Anchor-14" 0 0 basechar 0
AnchorPoint: "Anchor-13" 0 0 basechar 0
AnchorPoint: "Anchor-12" 138 873 basechar 0
AnchorPoint: "Anchor-11" 164 0 basechar 0
AnchorPoint: "Anchor-10" 137 0 basechar 0
LayerCount: 2
Back
Fore
SplineSet
195 800 m 0
 146 800 110 843 77 843 c 0
 54 843 38 833 18 807 c 1
 -3 819 l 1
 18 853 45 873 77 873 c 0xf8
 117 873 155 830 195 830 c 0
 216 830 231 841 253 873 c 1
 274 861 l 1
 252 817 225 800 195 800 c 0
154 682 m 1
 154 0 l 1
 119 0 l 1
 119 682 l 1
 154 682 l 1
EndSplineSet
Substitution2: "'c2sc' Capitals to Small Capitals lookup 26 subtable" itilde.sc
Substitution2: "'aalt' Access All Alternates lookup 0 subtable" itilde.sc
Position2: "'cpsp' Capital Spacing lookup 0 subtable" dx=5 dy=0 dh=10 dv=0
EndChar
StartChar: itilde
Encoding: 297 297 497
Width: 261
GlyphClass: 2
Flags: MW
HStem: 0 21G<114 148 114 114> 500 20G<114 148 148 148> 673 20G<-8 -8> 674 30<170 200.5 170 205> 715 20G<269 269> 717 30<60.5 88.5>
VStem: 114 34<0 520 0 520>
AnchorPoint: "Anchor-14" 0 0 basechar 0
AnchorPoint: "Anchor-13" 0 0 basechar 0
AnchorPoint: "Anchor-12" 131 704 basechar 0
AnchorPoint: "Anchor-11" 158 0 basechar 0
AnchorPoint: "Anchor-10" 131 0 basechar 0
LayerCount: 2
Back
Fore
SplineSet
190 674 m 0xda
 141 674 105 717 72 717 c 0
 49 717 33 707 13 681 c 1
 -8 693 l 1
 13 727 40 747 72 747 c 0xe6
 112 747 150 704 190 704 c 0
 211 704 226 715 248 747 c 1
 269 735 l 1
 247 691 220 674 190 674 c 0xda
148 520 m 1xea
 148 0 l 1
 114 0 l 1
 114 520 l 1
 148 520 l 1xea
EndSplineSet
Substitution2: "'smcp' Lowercase to Small Capitals lookup 27 subtable" itilde.sc
Substitution2: "'aalt' Access All Alternates lookup 0 subtable" itilde.sc
EndChar
StartChar: Imacron
Encoding: 298 298 132
Width: 273
GlyphClass: 2
Flags: MW
HStem: 0 21G<119 154 119 119> 662 20G<119 154 154 154> 808 32<27 245 27 245>
VStem: 119 35<0 682 0 682>
AnchorPoint: "Anchor-14" 0 0 basechar 0
AnchorPoint: "Anchor-13" 0 0 basechar 0
AnchorPoint: "Anchor-12" 138 840 basechar 0
AnchorPoint: "Anchor-11" 164 0 basechar 0
AnchorPoint: "Anchor-10" 137 0 basechar 0
LayerCount: 2
Back
Fore
SplineSet
245 808 m 1
 27 808 l 1
 27 840 l 1
 245 840 l 1
 245 808 l 1
154 682 m 1
 154 0 l 1
 119 0 l 1
 119 682 l 1
 154 682 l 1
EndSplineSet
Substitution2: "'c2sc' Capitals to Small Capitals lookup 26 subtable" imacron.sc
Substitution2: "'aalt' Access All Alternates lookup 0 subtable" imacron.sc
Position2: "'cpsp' Capital Spacing lookup 0 subtable" dx=5 dy=0 dh=10 dv=0
EndChar

StartChar: imacron
Encoding: 299 299 185
Width: 261
GlyphClass: 2
Flags: MW
HStem: 0 21G<114 148 114 114> 500 20G<114 148 148 148> 682 32<22 240 22 240>
VStem: 22 218<682 714 682 714> 114 34<0 520>
AnchorPoint: "Anchor-11" 0 0 basechar 0
AnchorPoint: "Anchor-10" 0 0 basechar 0
AnchorPoint: "Anchor-9" 131 520 basechar 0
AnchorPoint: "Anchor-8" 158 0 basechar 0
LayerCount: 2
Fore
SplineSet
22 682 m 1xf0
 22 714 l 1
 240 714 l 1
 240 682 l 1
 22 682 l 1xf0
148 0 m 1xe8
 114 0 l 1
 114 520 l 1
 148 520 l 1
 148 0 l 1xe8
EndSplineSet
Substitution2: "'smcp' Lowercase to Small Capitals lookup 24 subtable" imacron.sc
Substitution2: "'aalt' Access All Alternates lookup 0 subtable" imacron.sc
EndChar

StartChar: Ibreve
Encoding: 300 300 46
Width: 273
GlyphClass: 2
Flags: MW
HStem: 0 21G<119 154 119 119> 662 20G<119 154 154 154> 769 32<111.5 158.5 111.5 166>
VStem: 119 35<0 682>
AnchorPoint: "Anchor-11" 0 0 basechar 0
AnchorPoint: "Anchor-10" 90 682 basechar 0
AnchorPoint: "Anchor-9" 136 682 basechar 0
AnchorPoint: "Anchor-8" 164 0 basechar 0
LayerCount: 2
Fore
SplineSet
135 769 m 0
 74 769 29 808 20 854 c 1
 45 859 l 1
 57 825 88 801 135 801 c 0
 182 801 214 825 226 859 c 1
 251 854 l 1
 242 808 197 769 135 769 c 0
154 0 m 1
 119 0 l 1
 119 682 l 1
 154 682 l 1
 154 0 l 1
EndSplineSet
Substitution2: "'c2sc' Capitals to Small Capitals lookup 23 subtable" ibreve.sc
Substitution2: "'aalt' Access All Alternates lookup 0 subtable" ibreve.sc
Position2: "'cpsp' Capital Spacing lookup 0 subtable" dx=5 dy=0 dh=10 dv=0
EndChar
StartChar: ibreve
Encoding: 301 301 481
Width: 261
GlyphClass: 2
Flags: MW
HStem: 0 21G<114 148 114 114> 500 20G<114 148 148 148> 660 31<106.5 153.5 106.5 161>
VStem: 114 34<0 520 0 520>
AnchorPoint: "Anchor-14" 0 0 basechar 0
AnchorPoint: "Anchor-13" 0 0 basechar 0
AnchorPoint: "Anchor-12" 133 760 basechar 0
AnchorPoint: "Anchor-11" 158 0 basechar 0
AnchorPoint: "Anchor-10" 131 0 basechar 0
LayerCount: 2
Back
Fore
SplineSet
130 660 m 0
 69 660 24 699 15 754 c 1
 40 760 l 1
 52 716 83 691 130 691 c 0
 177 691 209 716 221 760 c 1
 246 754 l 1
 237 699 192 660 130 660 c 0
148 520 m 1
 148 0 l 1
 114 0 l 1
 114 520 l 1
 148 520 l 1
EndSplineSet
Substitution2: "'smcp' Lowercase to Small Capitals lookup 27 subtable" ibreve.sc
Substitution2: "'aalt' Access All Alternates lookup 0 subtable" ibreve.sc
EndChar
StartChar: Iogonek
Encoding: 302 302 133
Width: 273
GlyphClass: 2
Flags: MW
HStem: -208 33<76.5 108> -202 21G<153 153> 0 21G<154 154> 662 20G<119 154 154 154>
VStem: -3 36<-137 -94.5> 119 35<9 682 0 682>
AnchorPoint: "Anchor-14" 0 0 basechar 0
AnchorPoint: "Anchor-13" 0 0 basechar 0
AnchorPoint: "Anchor-12" 136 682 basechar 0
AnchorPoint: "Anchor-11" 164 0 basechar 0
AnchorPoint: "Anchor-10" 137 0 basechar 0
LayerCount: 2
Back
Fore
SplineSet
100 -175 m 0xbc
 118 -175 135 -173 156 -169 c 1xbc
 153 -202 l 1x7c
 133 -206 118 -208 98 -208 c 0
 28 -208 -3 -170 -3 -123 c 0
 -3 -66 39 -27 119 9 c 1
 119 682 l 1
 154 682 l 1
 154 0 l 1
 75 -37 33 -66 33 -121 c 0
 33 -153 53 -175 100 -175 c 0xbc
EndSplineSet
Substitution2: "'c2sc' Capitals to Small Capitals lookup 26 subtable" iogonek.sc
Substitution2: "'aalt' Access All Alternates lookup 0 subtable" iogonek.sc
Position2: "'cpsp' Capital Spacing lookup 0 subtable" dx=5 dy=0 dh=10 dv=0
EndChar

StartChar: iogonek
Encoding: 303 303 186
Width: 261
GlyphClass: 2
Flags: MW
HStem: -208 33<73.5 102> -202 21G<147 147> 0 21G<148 148> 500 20G<114 148 148 148> 679 55<121.5 139.5>
VStem: -9 36<-137 -94.5> 102 57<699.5 714> 114 34<9 520 0 520>
AnchorPoint: "Anchor-11" 0 0 basechar 0
AnchorPoint: "Anchor-10" 0 0 basechar 0
AnchorPoint: "Anchor-9" 131 520 basechar 0
AnchorPoint: "Anchor-8" 158 0 basechar 0
LayerCount: 2
Fore
SplineSet
130 734 m 0xbe
 149 734 159 721 159 707 c 0
 159 692 149 679 130 679 c 0
 113 679 102 692 102 707 c 0
 102 721 113 734 130 734 c 0xbe
27 -121 m 0
 27 -153 50 -175 97 -175 c 0
 115 -175 129 -173 150 -169 c 1xbd
 147 -202 l 1x7d
 127 -206 112 -208 92 -208 c 0
 22 -208 -9 -170 -9 -123 c 0
 -9 -66 33 -27 114 9 c 1
 114 520 l 1
 148 520 l 1
 148 0 l 1xbd
 69 -37 27 -66 27 -121 c 0
EndSplineSet
Substitution2: "'smcp' Lowercase to Small Capitals lookup 24 subtable" iogonek.sc
Substitution2: "'aalt' Access All Alternates lookup 0 subtable" iogonek.sc
EndChar
StartChar: Idotaccent
Encoding: 304 304 127
Width: 273
GlyphClass: 2
Flags: MW
HStem: 0 21G<119 154 119 119> 662 20G<119 154 154 154> 805 55<126.5 144.5>
VStem: 107 57<825.5 840> 119 35<0 682 0 682>
AnchorPoint: "Anchor-14" 0 0 basechar 0
AnchorPoint: "Anchor-13" 0 0 basechar 0
AnchorPoint: "Anchor-12" 138 860 basechar 0
AnchorPoint: "Anchor-11" 164 0 basechar 0
AnchorPoint: "Anchor-10" 137 0 basechar 0
LayerCount: 2
Back
Fore
SplineSet
135 860 m 0xf0
 154 860 164 847 164 833 c 0
 164 818 154 805 135 805 c 0
 118 805 107 818 107 833 c 0
 107 847 118 860 135 860 c 0xf0
154 682 m 1xe8
 154 0 l 1
 119 0 l 1
 119 682 l 1
 154 682 l 1xe8
EndSplineSet
Substitution2: "'c2sc' Capitals to Small Capitals lookup 26 subtable" i.sc.loclTRK
Substitution2: "'aalt' Access All Alternates lookup 0 subtable" i.sc.loclTRK
Position2: "'cpsp' Capital Spacing lookup 0 subtable" dx=5 dy=0 dh=10 dv=0
EndChar
StartChar: dotlessi
Encoding: 305 305 479
Width: 261
GlyphClass: 2
Flags: MW
HStem: 0 21G<114 148 114 114> 500 20G<114 148 148 148>
VStem: 114 34<0 520 0 520>
AnchorPoint: "Anchor-14" 0 0 basechar 0
AnchorPoint: "Anchor-13" 0 0 basechar 0
AnchorPoint: "Anchor-12" 131 520 basechar 0
AnchorPoint: "Anchor-11" 158 0 basechar 0
AnchorPoint: "Anchor-10" 131 0 basechar 0
LayerCount: 2
Back
Fore
SplineSet
148 520 m 1
 148 0 l 1
 114 0 l 1
 114 520 l 1
 148 520 l 1
EndSplineSet
Substitution2: "'smcp' Lowercase to Small Capitals lookup 27 subtable" dotlessi.sc
Substitution2: "'aalt' Access All Alternates lookup 0 subtable" dotlessi.sc
EndChar

StartChar: IJ
Encoding: 306 306 44
Width: 553
GlyphClass: 2
Flags: MW
HStem: 0 21G<119 154 119 119> 662 20G<119 154 154 154 406 441 441 441>
VStem: 119 35<0 682> 406 35<91 682>
AnchorPoint: "Anchor-11" 0 0 basechar 0
AnchorPoint: "Anchor-10" 90 682 basechar 0
AnchorPoint: "Anchor-9" 421 682 basechar 0
AnchorPoint: "Anchor-8" 164 0 basechar 0
LayerCount: 2
Fore
SplineSet
154 0 m 1
 119 0 l 1
 119 682 l 1
 154 682 l 1
 154 0 l 1
441 89 m 2
 441 -17 414 -57 302 -106 c 1
 292 -80 l 1
 383 -37 406 -2 406 91 c 2
 406 682 l 1
 441 682 l 1
 441 89 l 2
EndSplineSet
Substitution2: "'c2sc' Capitals to Small Capitals lookup 23 subtable" ij.sc
Substitution2: "'aalt' Access All Alternates lookup 0 subtable" ij.sc
Position2: "'cpsp' Capital Spacing lookup 0 subtable" dx=5 dy=0 dh=10 dv=0
EndChar
StartChar: ij
Encoding: 307 307 492
Width: 523
GlyphClass: 2
Flags: MW
HStem: -197 21G<288 288> 0 21G<114 148 114 114> 500 20G<114 148 148 148 376 410 410 410> 679 55<121.5 139.5 382.5 400.5>
VStem: 102 57<699.5 714> 114 34<0 520 0 520> 363 57<699.5 714> 376 34<10 520>
AnchorPoint: "Anchor-14" 0 0 basechar 0
AnchorPoint: "Anchor-13" 0 0 basechar 0
AnchorPoint: "Anchor-12" 392 654 basechar 0
AnchorPoint: "Anchor-11" 158 0 basechar 0
AnchorPoint: "Anchor-10" 393 -194 basechar 0
LayerCount: 2
Back
Fore
SplineSet
130 734 m 0xfa
 149 734 159 721 159 707 c 0
 159 692 149 679 130 679 c 0
 113 679 102 692 102 707 c 0
 102 721 113 734 130 734 c 0xfa
391 734 m 0
 410 734 420 721 420 707 c 0
 420 692 410 679 391 679 c 0
 374 679 363 692 363 707 c 0
 363 721 374 734 391 734 c 0
148 520 m 1xf5
 148 0 l 1
 114 0 l 1
 114 520 l 1
 148 520 l 1xf5
410 520 m 1
 410 10 l 2
 410 -124 370 -156 288 -197 c 1
 278 -172 l 1
 347 -136 376 -107 376 10 c 2
 376 520 l 1
 410 520 l 1
EndSplineSet
Substitution2: "'smcp' Lowercase to Small Capitals lookup 27 subtable" ij.sc
Substitution2: "'aalt' Access All Alternates lookup 0 subtable" ij.sc
EndChar
StartChar: Jcircumflex
Encoding: 308 308 138
Width: 281
GlyphClass: 2
Flags: MW
HStem: 662 20G<133 168 168 168>
VStem: 133 35<91 682>
AnchorPoint: "Anchor-14" 0 0 basechar 0
AnchorPoint: "Anchor-13" 234 734 basechar 0
AnchorPoint: "Anchor-12" 147 879 basechar 0
AnchorPoint: "Anchor-11" 0 0 basechar 0
AnchorPoint: "Anchor-10" 0 0 basechar 0
LayerCount: 2
Back
Fore
SplineSet
266 765 m 1
 148 844 l 1
 30 765 l 1
 13 784 l 1
 139 879 l 1
 158 879 l 1
 282 784 l 1
 266 765 l 1
168 682 m 1
 168 89 l 2
 168 -17 141 -57 29 -106 c 1
 19 -80 l 1
 110 -37 133 -2 133 91 c 2
 133 682 l 1
 168 682 l 1
EndSplineSet
Substitution2: "'c2sc' Capitals to Small Capitals lookup 26 subtable" jcircumflex.sc
Substitution2: "'aalt' Access All Alternates lookup 0 subtable" jcircumflex.sc
Position2: "'cpsp' Capital Spacing lookup 0 subtable" dx=5 dy=0 dh=10 dv=0
EndChar
StartChar: jcircumflex
Encoding: 309 309 501
Width: 262
GlyphClass: 2
Flags: MW
HStem: -197 21G<27 27> 500 20G<115 149 149 149>
VStem: 115 34<10 520>
AnchorPoint: "Anchor-14" 0 0 basechar 0
AnchorPoint: "Anchor-13" 0 0 basechar 0
AnchorPoint: "Anchor-12" 133 770 basechar 0
AnchorPoint: "Anchor-11" 0 0 basechar 0
AnchorPoint: "Anchor-10" 132 -194 basechar 0
LayerCount: 2
Back
Fore
SplineSet
13 650 m 1
 -4 670 l 1
 121 770 l 1
 140 770 l 1
 265 670 l 1
 249 650 l 1
 130 735 l 1
 13 650 l 1
149 520 m 1
 149 10 l 2
 149 -124 109 -156 27 -197 c 1
 17 -172 l 1
 86 -136 115 -107 115 10 c 2
 115 520 l 1
 149 520 l 1
EndSplineSet
Substitution2: "'smcp' Lowercase to Small Capitals lookup 27 subtable" jcircumflex.sc
Substitution2: "'aalt' Access All Alternates lookup 0 subtable" jcircumflex.sc
EndChar

StartChar: Kcommaaccent
Encoding: 310 310 57
Width: 518
GlyphClass: 2
Flags: MW
HStem: 0 21G<119 154 119 119 475 475 475 518> 662 20G<119 154 154 154 460 502 502 502>
VStem: 119 35<0 682> 265 68<-131 -114>
AnchorPoint: "Anchor-11" 301 0 basechar 0
AnchorPoint: "Anchor-10" 0 0 basechar 0
AnchorPoint: "Anchor-9" 292 682 basechar 0
AnchorPoint: "Anchor-8" 0 0 basechar 0
LayerCount: 2
Fore
SplineSet
154 0 m 1
 119 0 l 1
 119 682 l 1
 154 682 l 1
 154 0 l 1
201 367 m 1
 518 0 l 1
 475 0 l 1
 157 367 l 1
 460 682 l 1
 502 682 l 1
 201 367 l 1
299 -90 m 0
 321 -90 333 -105 333 -123 c 0
 333 -139 328 -149 314 -181 c 2
 275 -267 l 1
 251 -267 l 1
 285 -154 l 1
 269 -148 265 -139 265 -123 c 0
 265 -105 278 -90 299 -90 c 0
EndSplineSet
Substitution2: "'c2sc' Capitals to Small Capitals lookup 23 subtable" kcommaaccent.sc
Substitution2: "'aalt' Access All Alternates lookup 0 subtable" kcommaaccent.sc
Position2: "'cpsp' Capital Spacing lookup 0 subtable" dx=5 dy=0 dh=10 dv=0
EndChar

StartChar: kcommaaccent
Encoding: 311 311 192
Width: 472
GlyphClass: 2
Flags: MW
HStem: 0 21G<114 148 114 114 416 416 416 458> 500 20G<392 434 434 434> 714 20G<114 114> 719 20G<148 148>
VStem: 114 34<0 734 734 734> 233 68<-131 -114>
AnchorPoint: "Anchor-11" 267 0 basechar 0
AnchorPoint: "Anchor-10" 0 0 basechar 0
AnchorPoint: "Anchor-9" 0 0 basechar 0
AnchorPoint: "Anchor-8" 0 0 basechar 0
LayerCount: 2
Fore
SplineSet
148 0 m 1xd8
 114 0 l 1
 114 734 l 1xec
 148 739 l 1
 148 0 l 1xd8
196 286 m 1
 458 0 l 1
 416 0 l 1
 154 284 l 1
 392 520 l 1
 434 520 l 1
 196 286 l 1
267 -90 m 0
 289 -90 301 -105 301 -123 c 0
 301 -139 296 -149 282 -181 c 2
 243 -267 l 1
 219 -267 l 1
 253 -154 l 1
 237 -148 233 -139 233 -123 c 0
 233 -105 246 -90 267 -90 c 0
EndSplineSet
Substitution2: "'smcp' Lowercase to Small Capitals lookup 24 subtable" kcommaaccent.sc
Substitution2: "'aalt' Access All Alternates lookup 0 subtable" kcommaaccent.sc
EndChar
StartChar: kgreenlandic
Encoding: 312 312 509
Width: 472
GlyphClass: 2
Flags: MW
HStem: 0 21G<114 148 114 114 416 416 416 458> 500 20G<114 148 148 148 391 434 434 434>
VStem: 114 34<0 520 0 520>
LayerCount: 2
Back
Fore
SplineSet
148 520 m 1
 148 0 l 1
 114 0 l 1
 114 520 l 1
 148 520 l 1
434 520 m 1
 196 276 l 1
 458 0 l 1
 416 0 l 1
 154 274 l 1
 391 520 l 1
 434 520 l 1
EndSplineSet
Substitution2: "'smcp' Lowercase to Small Capitals lookup 27 subtable" kgreenlandic.sc
Substitution2: "'aalt' Access All Alternates lookup 0 subtable" kgreenlandic.sc
EndChar

StartChar: Lacute
Encoding: 313 313 59
Width: 458
GlyphClass: 2
Flags: MW
HStem: 0 33<154 436> 662 20G<119 154 154 154>
VStem: 119 35<33 33 33 682>
AnchorPoint: "Anchor-11" 281 0 basechar 0
AnchorPoint: "Anchor-10" 0 0 basechar 0
AnchorPoint: "Anchor-9" 137 682 basechar 0
AnchorPoint: "Anchor-8" 0 0 basechar 0
LayerCount: 2
Fore
SplineSet
240 837 m 1
 54 761 l 1
 44 783 l 1
 222 872 l 1
 240 837 l 1
154 33 m 1
 442 33 l 1
 436 0 l 1
 119 0 l 1
 119 682 l 1
 154 682 l 1
 154 33 l 1
EndSplineSet
Substitution2: "'c2sc' Capitals to Small Capitals lookup 23 subtable" lacute.sc
Substitution2: "'aalt' Access All Alternates lookup 0 subtable" lacute.sc
Position2: "'cpsp' Capital Spacing lookup 0 subtable" dx=5 dy=0 dh=10 dv=0
EndChar

StartChar: lacute
Encoding: 314 314 195
Width: 278
GlyphClass: 2
Flags: MW
HStem: -10 31<174.5 197.5> 714 20G<109 109> 719 20G<143 143>
VStem: 109 34<80 734 734 734>
AnchorPoint: "Anchor-11" 130 0 basechar 0
AnchorPoint: "Anchor-10" 0 0 basechar 0
AnchorPoint: "Anchor-9" 0 0 basechar 0
AnchorPoint: "Anchor-8" 0 0 basechar 0
LayerCount: 2
Fore
SplineSet
228 887 m 1xb0
 42 811 l 1
 32 833 l 1
 210 922 l 1
 228 887 l 1xb0
143 79 m 2
 143 40 156 21 193 21 c 0
 205 21 217 24 229 29 c 1
 239 1 l 1
 226 -5 207 -10 188 -10 c 0
 139 -10 109 17 109 80 c 2
 109 734 l 1xd0
 143 739 l 1
 143 79 l 2
EndSplineSet
Substitution2: "'smcp' Lowercase to Small Capitals lookup 24 subtable" lacute.sc
Substitution2: "'aalt' Access All Alternates lookup 0 subtable" lacute.sc
EndChar

StartChar: Lcommaaccent
Encoding: 315 315 61
Width: 458
GlyphClass: 2
Flags: MW
HStem: 0 33<154 436> 662 20G<119 154 154 154>
VStem: 119 35<33 33 33 682> 245 68<-131 -114>
AnchorPoint: "Anchor-11" 281 0 basechar 0
AnchorPoint: "Anchor-10" 0 0 basechar 0
AnchorPoint: "Anchor-9" 137 682 basechar 0
AnchorPoint: "Anchor-8" 0 0 basechar 0
LayerCount: 2
Fore
SplineSet
154 33 m 1
 442 33 l 1
 436 0 l 1
 119 0 l 1
 119 682 l 1
 154 682 l 1
 154 33 l 1
279 -90 m 0
 301 -90 313 -105 313 -123 c 0
 313 -139 308 -149 294 -181 c 2
 255 -267 l 1
 231 -267 l 1
 265 -154 l 1
 249 -148 245 -139 245 -123 c 0
 245 -105 258 -90 279 -90 c 0
EndSplineSet
Substitution2: "'c2sc' Capitals to Small Capitals lookup 23 subtable" lcommaaccent.sc
Substitution2: "'aalt' Access All Alternates lookup 0 subtable" lcommaaccent.sc
Position2: "'cpsp' Capital Spacing lookup 0 subtable" dx=5 dy=0 dh=10 dv=0
EndChar
StartChar: lcommaaccent
Encoding: 316 316 519
Width: 278
GlyphClass: 2
Flags: MW
HStem: -10 31<175 198 175 198> 714 20G<109 109> 719 20G<143 143>
VStem: 109 34<77 78 78 734 734 734> 145 68<-131 -114>
AnchorPoint: "Anchor-14" 264 375 basechar 0
AnchorPoint: "Anchor-13" 171 734 basechar 0
AnchorPoint: "Anchor-12" 126 734 basechar 0
AnchorPoint: "Anchor-11" 0 0 basechar 0
AnchorPoint: "Anchor-10" 179 0 basechar 0
LayerCount: 2
Back
Fore
SplineSet
189 -10 m 0xb0
 142 -10 109 16 109 77 c 2
 109 734 l 1xd0
 143 739 l 1
 143 78 l 2
 143 40 159 21 191 21 c 0
 205 21 217 24 229 29 c 1
 239 1 l 1
 226 -5 207 -10 189 -10 c 0xb0
179 -90 m 0xa8
 201 -90 213 -105 213 -123 c 0
 213 -139 208 -149 194 -181 c 2
 155 -267 l 1
 131 -267 l 1
 165 -154 l 1
 152 -148 145 -139 145 -123 c 0
 145 -105 159 -90 179 -90 c 0xa8
EndSplineSet
Substitution2: "'smcp' Lowercase to Small Capitals lookup 27 subtable" lcommaaccent.sc
Substitution2: "'aalt' Access All Alternates lookup 0 subtable" lcommaaccent.sc
EndChar

StartChar: Lcaron
Encoding: 317 317 60
Width: 458
GlyphClass: 2
Flags: MW
HStem: 0 33<154 436> 662 20G<119 154 154 154 287 287> 666 20G<251 251>
VStem: 119 35<33 33 33 682>
AnchorPoint: "Anchor-11" 281 0 basechar 0
AnchorPoint: "Anchor-10" 0 0 basechar 0
AnchorPoint: "Anchor-9" 137 682 basechar 0
AnchorPoint: "Anchor-8" 0 0 basechar 0
LayerCount: 2
Fore
SplineSet
287 682 m 1xd0
 256 532 l 1
 233 535 l 1
 251 686 l 1xb0
 287 682 l 1xd0
154 33 m 1
 442 33 l 1
 436 0 l 1
 119 0 l 1
 119 682 l 1
 154 682 l 1xd0
 154 33 l 1
EndSplineSet
Substitution2: "'c2sc' Capitals to Small Capitals lookup 23 subtable" lcaron.sc
Substitution2: "'aalt' Access All Alternates lookup 0 subtable" lcaron.sc
Position2: "'cpsp' Capital Spacing lookup 0 subtable" dx=5 dy=0 dh=10 dv=0
EndChar
StartChar: lcaron
Encoding: 318 318 517
Width: 278
GlyphClass: 2
Flags: MW
HStem: -10 31<175 198 175 198> 714 20G<109 109 266 266> 718 20G<230 230> 719 20G<143 143>
VStem: 109 34<77 78 78 734 734 734>
AnchorPoint: "Anchor-14" 264 375 basechar 0
AnchorPoint: "Anchor-13" 171 734 basechar 0
AnchorPoint: "Anchor-12" 126 734 basechar 0
AnchorPoint: "Anchor-11" 0 0 basechar 0
AnchorPoint: "Anchor-10" 179 0 basechar 0
LayerCount: 2
Back
Fore
SplineSet
189 -10 m 0x98
 142 -10 109 16 109 77 c 2
 109 734 l 1xc8
 143 739 l 1
 143 78 l 2
 143 40 159 21 191 21 c 0
 205 21 217 24 229 29 c 1
 239 1 l 1
 226 -5 207 -10 189 -10 c 0x98
230 738 m 1xa8
 266 734 l 1xc8
 235 584 l 1
 212 587 l 1
 230 738 l 1xa8
EndSplineSet
Substitution2: "'smcp' Lowercase to Small Capitals lookup 27 subtable" lcaron.sc
Substitution2: "'aalt' Access All Alternates lookup 0 subtable" lcaron.sc
EndChar

StartChar: Ldot
Encoding: 319 319 62
Width: 458
GlyphClass: 2
Flags: MW
HStem: 0 33<154 436> 328 55<345.5 363.5> 662 20G<119 154 154 154>
VStem: 119 35<33 33 33 682> 326 57<348.5 363>
AnchorPoint: "Anchor-11" 281 0 basechar 0
AnchorPoint: "Anchor-10" 0 0 basechar 0
AnchorPoint: "Anchor-9" 137 682 basechar 0
AnchorPoint: "Anchor-8" 0 0 basechar 0
LayerCount: 2
Fore
SplineSet
154 33 m 1
 442 33 l 1
 436 0 l 1
 119 0 l 1
 119 682 l 1
 154 682 l 1
 154 33 l 1
354 383 m 0
 373 383 383 370 383 356 c 0
 383 341 373 328 354 328 c 0
 337 328 326 341 326 356 c 0
 326 370 337 383 354 383 c 0
EndSplineSet
Ligature2: "Ligature Substitution lookup 29 subtable" L periodcentered
Substitution2: "'c2sc' Capitals to Small Capitals lookup 23 subtable" ldot.sc
Substitution2: "'aalt' Access All Alternates lookup 0 subtable" ldot.sc
Position2: "'cpsp' Capital Spacing lookup 0 subtable" dx=5 dy=0 dh=10 dv=0
EndChar

StartChar: ldot
Encoding: 320 320 198
Width: 280
GlyphClass: 2
Flags: MW
HStem: -10 31<174.5 197.5> 347 55<253.5 271.5> 714 20G<109 109> 719 20G<143 143>
VStem: 109 34<80 734 734 734> 234 57<367.5 382>
AnchorPoint: "Anchor-11" 130 0 basechar 0
AnchorPoint: "Anchor-10" 0 0 basechar 0
AnchorPoint: "Anchor-9" 0 0 basechar 0
AnchorPoint: "Anchor-8" 0 0 basechar 0
LayerCount: 2
Fore
SplineSet
143 79 m 2xd8
 143 40 156 21 193 21 c 0
 205 21 217 24 229 29 c 1
 239 1 l 1
 226 -5 207 -10 188 -10 c 0
 139 -10 109 17 109 80 c 2
 109 734 l 1xe8
 143 739 l 1
 143 79 l 2xd8
262 402 m 0xdc
 281 402 291 389 291 375 c 0
 291 360 281 347 262 347 c 0
 245 347 234 360 234 375 c 0
 234 389 245 402 262 402 c 0xdc
EndSplineSet
Ligature2: "Ligature Substitution lookup 29 subtable" l periodcentered
Substitution2: "'smcp' Lowercase to Small Capitals lookup 24 subtable" ldot.sc
Substitution2: "'aalt' Access All Alternates lookup 0 subtable" ldot.sc
EndChar
StartChar: Lslash
Encoding: 321 321 154
Width: 469
GlyphClass: 2
Flags: MW
HStem: 0 33<160 443> 662 20G<125 160 160 160>
VStem: 125 35<33 33 33 298 298 298 353 682>
AnchorPoint: "Anchor-14" 361 356 basechar 0
AnchorPoint: "Anchor-13" 190 682 basechar 0
AnchorPoint: "Anchor-12" 143 682 basechar 0
AnchorPoint: "Anchor-11" 0 0 basechar 0
AnchorPoint: "Anchor-10" 288 0 basechar 0
LayerCount: 2
Back
Fore
SplineSet
160 33 m 1
 449 33 l 1
 443 0 l 1
 125 0 l 1
 125 298 l 1
 55 255 l 1
 41 279 l 1
 125 331 l 1
 125 682 l 1
 160 682 l 1
 160 353 l 1
 356 476 l 1
 371 452 l 1
 160 320 l 1
 160 33 l 1
EndSplineSet
Substitution2: "'c2sc' Capitals to Small Capitals lookup 26 subtable" lslash.sc
Substitution2: "'aalt' Access All Alternates lookup 0 subtable" lslash.sc
Position2: "'cpsp' Capital Spacing lookup 0 subtable" dx=5 dy=0 dh=10 dv=0
EndChar
StartChar: lslash
Encoding: 322 322 528
Width: 290
GlyphClass: 2
Flags: MW
HStem: -10 31<182 205 182 205> 714 20G<116 116> 719 20G<150 150>
VStem: 116 34<77 78 78 337 337 337 391 734 734 734>
AnchorPoint: "Anchor-14" 271 375 basechar 0
AnchorPoint: "Anchor-13" 178 734 basechar 0
AnchorPoint: "Anchor-12" 133 734 basechar 0
AnchorPoint: "Anchor-11" 0 0 basechar 0
AnchorPoint: "Anchor-10" 186 0 basechar 0
LayerCount: 2
Back
Fore
SplineSet
198 21 m 0xb0
 212 21 224 24 236 29 c 1
 246 1 l 1
 233 -5 214 -10 196 -10 c 0
 149 -10 116 16 116 77 c 2
 116 337 l 1
 53 299 l 1
 39 322 l 1
 116 370 l 1
 116 734 l 1xd0
 150 739 l 1
 150 391 l 1
 253 455 l 1
 267 430 l 1
 150 358 l 1
 150 78 l 2
 150 40 166 21 198 21 c 0xb0
EndSplineSet
Substitution2: "'smcp' Lowercase to Small Capitals lookup 27 subtable" lslash.sc
Substitution2: "'aalt' Access All Alternates lookup 0 subtable" lslash.sc
EndChar

StartChar: Nacute
Encoding: 323 323 66
Width: 665
GlyphClass: 2
Flags: MW
HStem: 0 39<517 517 517 547 503 517> 643 39<148 148>
VStem: 119 34<0 430 0 682> 513 34<237 682>
AnchorPoint: "Anchor-11" 333 0 basechar 0
AnchorPoint: "Anchor-10" 0 0 basechar 0
AnchorPoint: "Anchor-9" 340 682 basechar 0
AnchorPoint: "Anchor-8" 0 0 basechar 0
LayerCount: 2
Fore
SplineSet
443 837 m 1
 257 761 l 1
 247 783 l 1
 425 872 l 1
 443 837 l 1
547 0 m 1
 503 0 l 1
 148 643 l 1
 151 603 153 550 153 430 c 2
 153 0 l 1
 119 0 l 1
 119 682 l 1
 163 682 l 1
 517 39 l 1
 515 78 513 146 513 237 c 2
 513 682 l 1
 547 682 l 1
 547 0 l 1
EndSplineSet
Substitution2: "'c2sc' Capitals to Small Capitals lookup 23 subtable" nacute.sc
Substitution2: "'locl' Localized Forms in Latin lookup 7 subtable" Nacute.loclPLK
AlternateSubs2: "'aalt' Access All Alternates lookup 1 subtable" Nacute.loclPLK nacute.sc
Position2: "'cpsp' Capital Spacing lookup 0 subtable" dx=5 dy=0 dh=10 dv=0
EndChar
StartChar: nacute
Encoding: 324 324 537
Width: 582
GlyphClass: 2
Flags: MW
HStem: 0 21G<114 148 114 114 440 474 440 440> 500 20G<114 143 143 143> 501 30<292.5 366.5>
VStem: 114 34<0 382 0 520> 440 34<0 366 366 371 0 412>
AnchorPoint: "Anchor-14" 0 0 basechar 0
AnchorPoint: "Anchor-13" 0 0 basechar 0
AnchorPoint: "Anchor-12" 297 769 basechar 0
AnchorPoint: "Anchor-11" 0 0 basechar 0
AnchorPoint: "Anchor-10" 289 0 basechar 0
LayerCount: 2
Back
Fore
SplineSet
385 734 m 1xb8
 201 650 l 1
 189 673 l 1
 369 769 l 1
 385 734 l 1xb8
333 531 m 0
 427 531 474 472 474 371 c 2
 474 0 l 1
 440 0 l 1
 440 366 l 2
 440 458 403 501 330 501 c 0xb8
 250 501 196 452 148 382 c 1
 148 0 l 1
 114 0 l 1
 114 520 l 1
 143 520 l 1xd8
 147 423 l 1
 192 487 252 531 333 531 c 0
EndSplineSet
Substitution2: "'smcp' Lowercase to Small Capitals lookup 27 subtable" nacute.sc
Substitution2: "'locl' Localized Forms in Latin lookup 7 subtable" nacute.loclPLK
AlternateSubs2: "'aalt' Access All Alternates lookup 1 subtable" nacute.loclPLK nacute.sc
EndChar
StartChar: Ncommaaccent
Encoding: 325 325 165
Width: 665
GlyphClass: 2
Flags: MW
HStem: 0 39<517 517 517 547 503 517> 643 39<148 148>
VStem: 119 34<0 430 0 682> 297 68<-131 -114> 513 34<237 682 0 682>
AnchorPoint: "Anchor-14" 0 0 basechar 0
AnchorPoint: "Anchor-13" 0 0 basechar 0
AnchorPoint: "Anchor-12" 340 682 basechar 0
AnchorPoint: "Anchor-11" 0 0 basechar 0
AnchorPoint: "Anchor-10" 333 0 basechar 0
LayerCount: 2
Back
Fore
SplineSet
547 682 m 1
 547 0 l 1
 503 0 l 1
 148 643 l 1
 151 603 153 550 153 430 c 2
 153 0 l 1
 119 0 l 1
 119 682 l 1
 163 682 l 1
 517 39 l 1
 515 78 513 146 513 237 c 2
 513 682 l 1
 547 682 l 1
331 -90 m 0
 353 -90 365 -105 365 -123 c 0
 365 -139 360 -149 346 -181 c 2
 307 -267 l 1
 283 -267 l 1
 317 -154 l 1
 304 -148 297 -139 297 -123 c 0
 297 -105 311 -90 331 -90 c 0
EndSplineSet
Substitution2: "'c2sc' Capitals to Small Capitals lookup 26 subtable" ncommaaccent.sc
Substitution2: "'aalt' Access All Alternates lookup 0 subtable" ncommaaccent.sc
Position2: "'cpsp' Capital Spacing lookup 0 subtable" dx=5 dy=0 dh=10 dv=0
EndChar
StartChar: ncommaaccent
Encoding: 326 326 542
Width: 582
GlyphClass: 2
Flags: MW
HStem: 0 21G<114 148 114 114 440 474 440 440> 500 20G<114 143 143 143> 501 30<292.5 366.5>
VStem: 114 34<0 382 0 520> 255 68<-131 -114> 440 34<0 366 366 371 0 412>
AnchorPoint: "Anchor-14" 0 0 basechar 0
AnchorPoint: "Anchor-13" 0 0 basechar 0
AnchorPoint: "Anchor-12" 297 520 basechar 0
AnchorPoint: "Anchor-11" 0 0 basechar 0
AnchorPoint: "Anchor-10" 289 0 basechar 0
LayerCount: 2
Back
Fore
SplineSet
333 531 m 0xb4
 427 531 474 472 474 371 c 2
 474 0 l 1
 440 0 l 1
 440 366 l 2
 440 458 403 501 330 501 c 0xb4
 250 501 196 452 148 382 c 1
 148 0 l 1
 114 0 l 1
 114 520 l 1
 143 520 l 1xd4
 147 423 l 1
 192 487 252 531 333 531 c 0xb4
289 -90 m 0xbc
 311 -90 323 -105 323 -123 c 0
 323 -139 318 -149 304 -181 c 2
 265 -267 l 1
 241 -267 l 1
 275 -154 l 1
 262 -148 255 -139 255 -123 c 0
 255 -105 269 -90 289 -90 c 0xbc
EndSplineSet
Substitution2: "'smcp' Lowercase to Small Capitals lookup 27 subtable" ncommaaccent.sc
Substitution2: "'aalt' Access All Alternates lookup 0 subtable" ncommaaccent.sc
EndChar
StartChar: Ncaron
Encoding: 327 327 163
Width: 665
GlyphClass: 2
Flags: MW
HStem: 0 39<517 517 517 547 503 517> 643 39<148 148>
VStem: 119 34<0 430 0 682> 513 34<237 682 0 682>
AnchorPoint: "Anchor-14" 0 0 basechar 0
AnchorPoint: "Anchor-13" 0 0 basechar 0
AnchorPoint: "Anchor-12" 342 873 basechar 0
AnchorPoint: "Anchor-11" 0 0 basechar 0
AnchorPoint: "Anchor-10" 333 0 basechar 0
LayerCount: 2
Back
Fore
SplineSet
458 873 m 1
 474 853 l 1
 350 758 l 1
 331 758 l 1
 205 853 l 1
 222 873 l 1
 340 793 l 1
 458 873 l 1
547 682 m 1
 547 0 l 1
 503 0 l 1
 148 643 l 1
 151 603 153 550 153 430 c 2
 153 0 l 1
 119 0 l 1
 119 682 l 1
 163 682 l 1
 517 39 l 1
 515 78 513 146 513 237 c 2
 513 682 l 1
 547 682 l 1
EndSplineSet
Substitution2: "'c2sc' Capitals to Small Capitals lookup 26 subtable" ncaron.sc
Substitution2: "'aalt' Access All Alternates lookup 0 subtable" ncaron.sc
Position2: "'cpsp' Capital Spacing lookup 0 subtable" dx=5 dy=0 dh=10 dv=0
EndChar
StartChar: ncaron
Encoding: 328 328 540
Width: 582
GlyphClass: 2
Flags: MW
HStem: 0 21G<114 148 114 114 440 474 440 440> 500 20G<114 143 143 143> 501 30<292.5 366.5> 718 20G<162 162 431 431>
VStem: 114 34<0 382 0 520> 440 34<0 366 366 371 0 412>
AnchorPoint: "Anchor-14" 0 0 basechar 0
AnchorPoint: "Anchor-13" 0 0 basechar 0
AnchorPoint: "Anchor-12" 299 758 basechar 0
AnchorPoint: "Anchor-11" 0 0 basechar 0
AnchorPoint: "Anchor-10" 289 0 basechar 0
LayerCount: 2
Back
Fore
SplineSet
307 637 m 1xbc
 288 637 l 1
 162 738 l 1
 179 758 l 1
 297 673 l 1
 415 758 l 1
 431 738 l 1
 307 637 l 1xbc
333 531 m 0
 427 531 474 472 474 371 c 2
 474 0 l 1
 440 0 l 1
 440 366 l 2
 440 458 403 501 330 501 c 0xbc
 250 501 196 452 148 382 c 1
 148 0 l 1
 114 0 l 1
 114 520 l 1
 143 520 l 1xdc
 147 423 l 1
 192 487 252 531 333 531 c 0
EndSplineSet
Substitution2: "'smcp' Lowercase to Small Capitals lookup 27 subtable" ncaron.sc
Substitution2: "'aalt' Access All Alternates lookup 0 subtable" ncaron.sc
EndChar

StartChar: napostrophe
Encoding: 329 329 203
Width: 582
GlyphClass: 2
Flags: MW
HStem: 0 21G<114 148 114 114 440 474 440 440> 500 20G<114 143 143 143> 501 30<292.5 366.5> 719 20G<104.5 126>
VStem: 81 68<698 715> 114 34<0 382 0 520> 440 34<0 366 366 371 0 412>
AnchorPoint: "Anchor-11" 289 0 basechar 0
AnchorPoint: "Anchor-10" 104 520 basechar 0
AnchorPoint: "Anchor-9" 297 520 basechar 0
AnchorPoint: "Anchor-8" 0 0 basechar 0
LayerCount: 2
Fore
SplineSet
149 706 m 0xba
 149 690 142 682 130 648 c 2
 97 556 l 1
 74 556 l 1
 101 675 l 1
 85 681 81 690 81 706 c 0
 81 724 94 739 115 739 c 0
 137 739 149 724 149 706 c 0xba
333 531 m 0
 427 531 474 472 474 371 c 2
 474 0 l 1
 440 0 l 1
 440 366 l 2
 440 458 403 501 330 501 c 0xb6
 250 501 196 452 148 382 c 1
 148 0 l 1
 114 0 l 1
 114 520 l 1
 143 520 l 1xd6
 147 423 l 1xb6
 193 487 252 531 333 531 c 0
EndSplineSet
Substitution2: "'smcp' Lowercase to Small Capitals lookup 24 subtable" napostrophe.sc
Substitution2: "'aalt' Access All Alternates lookup 0 subtable" napostrophe.sc
EndChar
StartChar: Eng
Encoding: 330 330 169
Width: 665
GlyphClass: 2
Flags: MW
HStem: -200 31<421.5 458.5 421.5 470.5> 0 21G<119 153 119 119 503 511 503 503> 643 39<148 148>
VStem: 119 34<0 430 0 682> 513 34<237 682>
AnchorPoint: "Anchor-14" 0 0 basechar 0
AnchorPoint: "Anchor-13" 0 0 basechar 0
AnchorPoint: "Anchor-12" 340 682 basechar 0
AnchorPoint: "Anchor-11" 0 0 basechar 0
AnchorPoint: "Anchor-10" 333 0 basechar 0
LayerCount: 2
Back
Fore
SplineSet
547 -80 m 2
 547 -161 502 -200 439 -200 c 0
 398 -200 367 -184 347 -168 c 1
 363 -145 l 1
 383 -158 404 -169 439 -169 c 0
 478 -169 511 -147 511 -79 c 2
 511 0 l 1
 503 0 l 1
 148 643 l 1
 151 603 153 550 153 430 c 2
 153 0 l 1
 119 0 l 1
 119 682 l 1
 163 682 l 1
 517 39 l 1
 515 78 513 146 513 237 c 2
 513 682 l 1
 547 682 l 1
 547 -80 l 2
EndSplineSet
Substitution2: "'ss01' Style Set 1 lookup 33 subtable" Eng.ss01
Substitution2: "'salt' Stylistic Alternatives lookup 32 subtable" Eng.ss01
Substitution2: "'c2sc' Capitals to Small Capitals lookup 26 subtable" eng.sc
AlternateSubs2: "'aalt' Access All Alternates lookup 1 subtable" eng.sc Eng.ss01
Position2: "'cpsp' Capital Spacing lookup 0 subtable" dx=5 dy=0 dh=10 dv=0
EndChar
StartChar: eng
Encoding: 331 331 547
Width: 582
GlyphClass: 2
Flags: MW
HStem: -200 30<349.5 387 349.5 398> 0 21G<114 148 114 114> 500 20G<114 143 143 143> 501 30<292.5 366.5>
VStem: 114 34<0 382 0 520> 440 34<-80 366 366 371>
AnchorPoint: "Anchor-14" 0 0 basechar 0
AnchorPoint: "Anchor-13" 0 0 basechar 0
AnchorPoint: "Anchor-12" 297 520 basechar 0
AnchorPoint: "Anchor-11" 0 0 basechar 0
AnchorPoint: "Anchor-10" 292 -194 basechar 0
LayerCount: 2
Back
Fore
SplineSet
474 -80 m 2xdc
 474 -161 429 -200 367 -200 c 0
 325 -200 295 -184 274 -168 c 1
 291 -146 l 1
 310 -159 332 -170 367 -170 c 0
 407 -170 440 -148 440 -80 c 2
 440 366 l 2
 440 458 403 501 330 501 c 0xdc
 250 501 196 452 148 382 c 1
 148 0 l 1
 114 0 l 1
 114 520 l 1
 143 520 l 1xec
 147 423 l 1
 192 487 252 531 333 531 c 0
 427 531 474 472 474 371 c 2
 474 -80 l 2xdc
EndSplineSet
Substitution2: "'smcp' Lowercase to Small Capitals lookup 27 subtable" eng.sc
Substitution2: "'aalt' Access All Alternates lookup 0 subtable" eng.sc
EndChar

StartChar: Omacron
Encoding: 332 332 78
Width: 690
GlyphClass: 2
Flags: MW
HStem: -10 32<276 418 276 428.5> 660 33<275.5 415.5> 808 32<222 440 222 440>
VStem: 74 36<234.5 446 234.5 452> 222 218<808 840 808 840> 580 36<235 447.5>
AnchorPoint: "Anchor-11" 0 0 basechar 0
AnchorPoint: "Anchor-10" 104 682 basechar 0
AnchorPoint: "Anchor-9" 331 682 basechar 0
AnchorPoint: "Anchor-8" 0 0 basechar 0
LayerCount: 2
Fore
SplineSet
222 808 m 1
 222 840 l 1
 440 840 l 1
 440 808 l 1
 222 808 l 1
345 693 m 0
 507 693 616 571 616 340 c 0
 616 118 512 -10 345 -10 c 0
 184 -10 74 114 74 339 c 0
 74 565 185 693 345 693 c 0
345 660 m 0
 206 660 110 553 110 339 c 0
 110 130 207 22 345 22 c 0
 491 22 580 130 580 340 c 0
 580 555 486 660 345 660 c 0
EndSplineSet
Substitution2: "'c2sc' Capitals to Small Capitals lookup 23 subtable" omacron.sc
Substitution2: "'aalt' Access All Alternates lookup 0 subtable" omacron.sc
Position2: "'cpsp' Capital Spacing lookup 0 subtable" dx=5 dy=0 dh=10 dv=0
EndChar

StartChar: omacron
Encoding: 333 333 215
Width: 562
GlyphClass: 2
Flags: MW
HStem: -10 31<226 335 226 345.5> 500 31<228 337> 682 32<173 391 173 391>
VStem: 69 36<182.5 338.5 182.5 345> 173 218<682 714 682 714> 458 35<183 339.5>
AnchorPoint: "Anchor-11" 0 0 basechar 0
AnchorPoint: "Anchor-10" 0 0 basechar 0
AnchorPoint: "Anchor-9" 282 520 basechar 0
AnchorPoint: "Anchor-8" 0 0 basechar 0
LayerCount: 2
Fore
SplineSet
173 682 m 1
 173 714 l 1
 391 714 l 1
 391 682 l 1
 173 682 l 1
282 531 m 0
 412 531 493 436 493 262 c 0
 493 90 410 -10 281 -10 c 0
 149 -10 69 91 69 259 c 0
 69 431 153 531 282 531 c 0
282 500 m 0
 174 500 105 418 105 259 c 0
 105 106 171 21 281 21 c 0
 389 21 458 104 458 262 c 0
 458 417 392 500 282 500 c 0
EndSplineSet
Substitution2: "'smcp' Lowercase to Small Capitals lookup 24 subtable" omacron.sc
Substitution2: "'aalt' Access All Alternates lookup 0 subtable" omacron.sc
EndChar
StartChar: Obreve
Encoding: 334 334 180
Width: 690
GlyphClass: 2
Flags: MW
HStem: -10 32<276 418 276 428.5> 660 33<275.5 415.5> 769 32<321.5 368.5 321.5 376>
VStem: 74 36<234.5 446 234.5 452> 580 36<235 447.5>
AnchorPoint: "Anchor-14" 0 0 basechar 0
AnchorPoint: "Anchor-13" 537 682 basechar 0
AnchorPoint: "Anchor-12" 348 859 basechar 0
AnchorPoint: "Anchor-11" 431 0 basechar 0
AnchorPoint: "Anchor-10" 345 0 basechar 0
LayerCount: 2
Back
Fore
SplineSet
345 769 m 0
 284 769 239 808 230 854 c 1
 255 859 l 1
 267 825 298 801 345 801 c 0
 392 801 424 825 436 859 c 1
 461 854 l 1
 452 808 407 769 345 769 c 0
345 693 m 0
 507 693 616 571 616 340 c 0
 616 118 512 -10 345 -10 c 0
 184 -10 74 114 74 339 c 0
 74 565 185 693 345 693 c 0
345 660 m 0
 206 660 110 553 110 339 c 0
 110 130 207 22 345 22 c 0
 491 22 580 130 580 340 c 0
 580 555 486 660 345 660 c 0
EndSplineSet
Substitution2: "'c2sc' Capitals to Small Capitals lookup 26 subtable" obreve.sc
Substitution2: "'aalt' Access All Alternates lookup 0 subtable" obreve.sc
Position2: "'cpsp' Capital Spacing lookup 0 subtable" dx=5 dy=0 dh=10 dv=0
EndChar

StartChar: OE
Encoding: 338 338 82
Width: 852
GlyphClass: 2
Flags: MW
HStem: -10 32<271 346.5> 0 22<402 403 271 810 402 402> 0 32<466 810 466 810> 343 31<596 760 596 760> 650 32<469 800 469 469> 660 22<270.5 804> 660 33<270.5 347.5 260 400.5>
VStem: 74 36<234.5 446 234.5 452> 560 36<343 343 343 374 343 452>
LayerCount: 2
Fore
SplineSet
810 0 m 1x3980
 402 0 l 1x3980
 381 -7 358 -10 335 -10 c 0
 184 -10 74 114 74 339 c 0
 74 565 185 693 335 693 c 0x9380
 360 693 385 689 407 682 c 1
 804 682 l 1
 800 650 l 1
 469 650 l 1
 545 600 590 507 596 374 c 1
 760 374 l 1
 760 343 l 1
 596 343 l 1
 595 187 547 82 466 32 c 1
 810 32 l 1
 810 0 l 1x3980
110 339 m 0x5580
 110 130 207 22 335 22 c 0
 471 22 560 130 560 349 c 0
 560 555 466 660 335 660 c 0
 206 660 110 553 110 339 c 0x5580
EndSplineSet
Substitution2: "'c2sc' Capitals to Small Capitals lookup 23 subtable" oe.sc
Substitution2: "'aalt' Access All Alternates lookup 0 subtable" oe.sc
Position2: "'cpsp' Capital Spacing lookup 0 subtable" dx=5 dy=0 dh=10 dv=0
EndChar
StartChar: oe
Encoding: 339 339 595
Width: 919
GlyphClass: 2
Flags: MW
HStem: -10 31<226 328.5 622.5 702> 243 29<494 821 493 853 494 494> 500 31<228 330.5 217.5 337 617.5 716.5>
VStem: 69 36<182.5 338.5 182.5 345> 458 35<272 272 272 339.5> 821 34<275.5 295 295 355.5>
AnchorPoint: "Anchor-14" 0 0 basechar 0
AnchorPoint: "Anchor-13" 0 0 basechar 0
AnchorPoint: "Anchor-12" 476 520 basechar 0
AnchorPoint: "Anchor-11" 0 0 basechar 0
AnchorPoint: "Anchor-10" 480 0 basechar 0
LayerCount: 2
Back
Fore
SplineSet
855 283 m 0
 855 268 854 252 853 243 c 1
 494 243 l 1
 500 89 573 21 672 21 c 0
 732 21 770 41 815 76 c 1
 834 52 l 1
 787 13 739 -10 671 -10 c 0
 574 -10 505 48 475 142 c 1
 444 48 376 -10 281 -10 c 0
 149 -10 69 91 69 259 c 0
 69 431 153 531 282 531 c 0
 379 531 447 474 477 379 c 1
 506 472 571 531 660 531 c 0
 791 531 855 432 855 283 c 0
821 272 m 1
 821 295 l 2
 821 416 771 500 662 500 c 0
 573 500 498 431 493 272 c 1
 821 272 l 1
281 21 m 0
 389 21 458 104 458 262 c 0
 458 417 392 500 282 500 c 0
 174 500 105 418 105 259 c 0
 105 106 171 21 281 21 c 0
EndSplineSet
Substitution2: "'smcp' Lowercase to Small Capitals lookup 27 subtable" oe.sc
Substitution2: "'aalt' Access All Alternates lookup 0 subtable" oe.sc
EndChar
StartChar: racute
Encoding: 341 341 608
Width: 364
GlyphClass: 2
Flags: MW
HStem: 0 21G<114 148 114 114> 500 20 500 31<259 305.5> 505 20G<350 350>
VStem: 114 34<0 331 0 520>
AnchorPoint: "Anchor-14" 0 0 basechar 0
AnchorPoint: "Anchor-13" 0 0 basechar 0
AnchorPoint: "Anchor-12" 230 769 basechar 0
AnchorPoint: "Anchor-11" 0 0 basechar 0
AnchorPoint: "Anchor-10" 130 0 basechar 0
LayerCount: 2
Back
Fore
SplineSet
318 734 m 1xa8
 134 650 l 1
 122 673 l 1
 302 769 l 1
 318 734 l 1xa8
298 531 m 0
 321 531 338 528 350 525 c 1x98
 343 494 l 1
 330 498 314 500 297 500 c 0xa8
 220 500 179 444 148 331 c 1
 148 0 l 1
 114 0 l 1
 114 520 l 1
 143 520 l 1xc8
 145 396 l 1
 173 486 220 531 298 531 c 0
EndSplineSet
Substitution2: "'smcp' Lowercase to Small Capitals lookup 27 subtable" racute.sc
Substitution2: "'aalt' Access All Alternates lookup 0 subtable" racute.sc
EndChar

StartChar: Rcommaaccent
Encoding: 342 342 89
Width: 579
GlyphClass: 2
Flags: MW
HStem: 0 21G<119 154 119 119 496 540 496 496> 318 32<154 281 281 313 154 281> 651 31<154 271 154 154>
VStem: 119 35<0 318 0 350 350 651> 269 68<-131 -114> 468 37<449.5 550>
AnchorPoint: "Anchor-11" 305 0 basechar 0
AnchorPoint: "Anchor-10" 0 0 basechar 0
AnchorPoint: "Anchor-9" 291 682 basechar 0
AnchorPoint: "Anchor-8" 0 0 basechar 0
LayerCount: 2
Fore
SplineSet
540 0 m 1
 496 0 l 1
 313 318 l 1
 154 318 l 1
 154 0 l 1
 119 0 l 1
 119 682 l 1
 274 682 l 2
 434 682 505 618 505 502 c 0
 505 396 443 345 350 324 c 1
 540 0 l 1
281 350 m 2
 399 350 468 397 468 502 c 0
 468 598 415 651 271 651 c 2
 154 651 l 1
 154 350 l 1
 281 350 l 2
303 -90 m 0
 325 -90 337 -105 337 -123 c 0
 337 -139 332 -149 318 -181 c 2
 279 -267 l 1
 255 -267 l 1
 289 -154 l 1
 273 -148 269 -139 269 -123 c 0
 269 -105 282 -90 303 -90 c 0
EndSplineSet
Substitution2: "'c2sc' Capitals to Small Capitals lookup 23 subtable" rcommaaccent.sc
Substitution2: "'aalt' Access All Alternates lookup 0 subtable" rcommaaccent.sc
Position2: "'cpsp' Capital Spacing lookup 0 subtable" dx=5 dy=0 dh=10 dv=0
EndChar
StartChar: rcommaaccent
Encoding: 343 343 611
Width: 364
GlyphClass: 2
Flags: MW
HStem: 0 21G<114 148 114 114> 500 20 500 31<259 305.5> 505 20G<350 350>
VStem: 95 68<-131 -114> 114 34<0 331 0 520>
AnchorPoint: "Anchor-14" 0 0 basechar 0
AnchorPoint: "Anchor-13" 0 0 basechar 0
AnchorPoint: "Anchor-12" 230 520 basechar 0
AnchorPoint: "Anchor-11" 0 0 basechar 0
AnchorPoint: "Anchor-10" 130 0 basechar 0
LayerCount: 2
Back
Fore
SplineSet
298 531 m 0xa4
 321 531 338 528 350 525 c 1x94
 343 494 l 1
 330 498 314 500 297 500 c 0xa4
 220 500 179 444 148 331 c 1
 148 0 l 1
 114 0 l 1
 114 520 l 1
 143 520 l 1xc4
 145 396 l 1
 173 486 220 531 298 531 c 0xa4
129 -90 m 0xa8
 151 -90 163 -105 163 -123 c 0
 163 -139 158 -149 144 -181 c 2
 105 -267 l 1
 81 -267 l 1
 115 -154 l 1
 102 -148 95 -139 95 -123 c 0
 95 -105 109 -90 129 -90 c 0xa8
EndSplineSet
Substitution2: "'smcp' Lowercase to Small Capitals lookup 27 subtable" rcommaaccent.sc
Substitution2: "'aalt' Access All Alternates lookup 0 subtable" rcommaaccent.sc
EndChar

StartChar: rcaron
Encoding: 345 345 225
Width: 364
GlyphClass: 2
Flags: MW
HStem: 0 21G<114 148 114 114> 500 20 500 31<259 305.5> 505 20G<350 350> 721 20G<99 99 368 368>
VStem: 114 34<0 332 0 520>
AnchorPoint: "Anchor-11" 130 0 basechar 0
AnchorPoint: "Anchor-10" 0 0 basechar 0
AnchorPoint: "Anchor-9" 230 520 basechar 0
AnchorPoint: "Anchor-8" 0 0 basechar 0
LayerCount: 2
Fore
SplineSet
225 640 m 1xac
 99 741 l 1
 116 761 l 1
 234 676 l 1
 352 761 l 1
 368 741 l 1
 244 640 l 1
 225 640 l 1xac
145 396 m 1
 173 486 220 531 298 531 c 0xac
 321 531 338 528 350 525 c 1x9c
 343 494 l 1
 330 498 314 500 297 500 c 0xac
 220 500 179 444 148 332 c 1
 148 0 l 1
 114 0 l 1
 114 520 l 1
 143 520 l 1xcc
 145 396 l 1
EndSplineSet
Substitution2: "'smcp' Lowercase to Small Capitals lookup 24 subtable" rcaron.sc
Substitution2: "'aalt' Access All Alternates lookup 0 subtable" rcaron.sc
EndChar
StartChar: Sacute
Encoding: 346 346 236
Width: 535
GlyphClass: 2
Flags: MW
HStem: -10 32<214.5 309.5 214.5 320> 660 33<218.5 299.5>
VStem: 75 36<492.5 570 492.5 577.5> 436 35<133 229.5>
AnchorPoint: "Anchor-14" 0 0 basechar 0
AnchorPoint: "Anchor-13" 0 0 basechar 0
AnchorPoint: "Anchor-12" 270 872 basechar 0
AnchorPoint: "Anchor-11" 0 0 basechar 0
AnchorPoint: "Anchor-10" 262 0 basechar 0
LayerCount: 2
Back
Fore
SplineSet
348 872 m 1
 366 837 l 1
 180 761 l 1
 170 783 l 1
 348 872 l 1
265 693 m 0
 350 693 400 665 450 620 c 1
 428 596 l 1
 378 641 333 660 266 660 c 0
 171 660 111 608 111 532 c 0
 111 453 155 419 277 382 c 0
 410 342 471 297 471 184 c 0
 471 68 383 -10 257 -10 c 0
 167 -10 104 23 48 73 c 1
 71 97 l 1
 120 52 173 22 256 22 c 0
 363 22 436 84 436 182 c 0
 436 277 390 313 264 352 c 0
 126 395 75 440 75 532 c 0
 75 623 150 693 265 693 c 0
EndSplineSet
Substitution2: "'c2sc' Capitals to Small Capitals lookup 26 subtable" sacute.sc
Substitution2: "'locl' Localized Forms in Latin lookup 7 subtable" Sacute.loclPLK
AlternateSubs2: "'aalt' Access All Alternates lookup 1 subtable" Sacute.loclPLK sacute.sc
Position2: "'cpsp' Capital Spacing lookup 0 subtable" dx=5 dy=0 dh=10 dv=0
EndChar
StartChar: Scircumflex
Encoding: 348 348 241
Width: 535
GlyphClass: 2
Flags: MW
HStem: -10 32<214.5 309.5 214.5 320> 660 33<218.5 299.5>
VStem: 75 36<492.5 570 492.5 577.5> 436 35<133 229.5>
AnchorPoint: "Anchor-14" 0 0 basechar 0
AnchorPoint: "Anchor-13" 354 734 basechar 0
AnchorPoint: "Anchor-12" 267 879 basechar 0
AnchorPoint: "Anchor-11" 0 0 basechar 0
AnchorPoint: "Anchor-10" 262 0 basechar 0
LayerCount: 2
Back
Fore
SplineSet
386 765 m 1
 268 844 l 1
 150 765 l 1
 133 784 l 1
 259 879 l 1
 278 879 l 1
 402 784 l 1
 386 765 l 1
265 693 m 0
 350 693 400 665 450 620 c 1
 428 596 l 1
 378 641 333 660 266 660 c 0
 171 660 111 608 111 532 c 0
 111 453 155 419 277 382 c 0
 410 342 471 297 471 184 c 0
 471 68 383 -10 257 -10 c 0
 167 -10 104 23 48 73 c 1
 71 97 l 1
 120 52 173 22 256 22 c 0
 363 22 436 84 436 182 c 0
 436 277 390 313 264 352 c 0
 126 395 75 440 75 532 c 0
 75 623 150 693 265 693 c 0
EndSplineSet
Substitution2: "'c2sc' Capitals to Small Capitals lookup 26 subtable" scircumflex.sc
Substitution2: "'aalt' Access All Alternates lookup 0 subtable" scircumflex.sc
Position2: "'cpsp' Capital Spacing lookup 0 subtable" dx=5 dy=0 dh=10 dv=0
EndChar

StartChar: Scedilla
Encoding: 350 350 93
Width: 535
GlyphClass: 2
Flags: MW
HStem: -218 30<254 283 254 292> -198 21G<195 195> -93 23 -10 32<242 242 268 268> 660 33<218.5 299.5>
VStem: 75 36<492.5 570 492.5 577.5> 239.5 28.5 326 33<-156.5 -124> 436 35<133 229.5>
AnchorPoint: "Anchor-11" 262 0 basechar 0
AnchorPoint: "Anchor-10" 0 0 basechar 0
AnchorPoint: "Anchor-9" 269 682 basechar 0
AnchorPoint: "Anchor-8" 0 0 basechar 0
LayerCount: 2
Fore
SplineSet
471 184 m 0x7f80
 471 71 388 -5 268 -10 c 1
 268 -70 l 1
 331 -74 359 -99 359 -140 c 0
 359 -189 317 -218 267 -218 c 0xbf80
 235 -218 212 -209 195 -198 c 1x7f80
 209 -173 l 1
 222 -182 241 -188 267 -188 c 0xbf80
 299 -188 326 -173 326 -140 c 0
 326 -108 299 -94 237 -93 c 1
 242 -10 l 1
 160 -6 101 26 48 73 c 1
 71 97 l 1
 120 52 173 22 256 22 c 0
 363 22 436 84 436 182 c 0
 436 277 390 313 264 352 c 0
 126 395 75 440 75 532 c 0
 75 623 150 693 265 693 c 0
 350 693 400 665 450 620 c 1
 428 596 l 1
 378 641 333 660 266 660 c 0
 171 660 111 608 111 532 c 0
 111 453 155 419 277 382 c 0
 410 342 471 297 471 184 c 0x7f80
EndSplineSet
Substitution2: "'c2sc' Capitals to Small Capitals lookup 23 subtable" scedilla.sc
Substitution2: "'locl' Localized Forms in Latin lookup 5 subtable" Scommaaccent
Substitution2: "'locl' Localized Forms in Latin lookup 4 subtable" Scommaaccent
AlternateSubs2: "'aalt' Access All Alternates lookup 1 subtable" Scommaaccent scedilla.sc
Position2: "'cpsp' Capital Spacing lookup 0 subtable" dx=5 dy=0 dh=10 dv=0
EndChar

StartChar: scedilla
Encoding: 351 351 230
Width: 461
GlyphClass: 2
Flags: MW
HStem: -218 30<225 254 225 263> -198 21G<166 166> -93 23 -10 31<213 213 239 239> 500 31<195 260.5>
VStem: 68 35<370 430 370 438.5> 210.5 28.5 297 33<-156.5 -124> 368 35<98 170.5>
AnchorPoint: "Anchor-11" 230 0 basechar 0
AnchorPoint: "Anchor-10" 0 0 basechar 0
AnchorPoint: "Anchor-9" 236 520 basechar 0
AnchorPoint: "Anchor-8" 0 0 basechar 0
LayerCount: 2
Fore
SplineSet
403 136 m 0x7f80
 403 51 335 -6 239 -10 c 1
 239 -70 l 1
 302 -74 330 -99 330 -140 c 0
 330 -189 288 -218 238 -218 c 0xbf80
 206 -218 183 -209 166 -198 c 1x7f80
 180 -173 l 1
 193 -182 212 -188 238 -188 c 0xbf80
 270 -188 297 -173 297 -140 c 0
 297 -108 270 -94 208 -93 c 1
 213 -10 l 1
 139 -6 90 21 48 56 c 1
 69 79 l 1
 115 42 158 21 228 21 c 0
 308 21 368 61 368 135 c 0
 368 206 336 232 223 263 c 1
 113 292 68 327 68 400 c 0
 68 477 139 531 231 531 c 0
 293 531 341 512 390 473 c 1
 370 450 l 1
 325 484 288 500 233 500 c 0
 157 500 103 461 103 399 c 0
 103 341 140 316 239 290 c 0
 357 258 403 223 403 136 c 0x7f80
EndSplineSet
Substitution2: "'smcp' Lowercase to Small Capitals lookup 24 subtable" scedilla.sc
Substitution2: "'locl' Localized Forms in Latin lookup 5 subtable" scommaaccent
Substitution2: "'locl' Localized Forms in Latin lookup 4 subtable" scommaaccent
AlternateSubs2: "'aalt' Access All Alternates lookup 1 subtable" scommaaccent scedilla.sc
EndChar

StartChar: scaron
Encoding: 353 353 229
Width: 461
GlyphClass: 2
Flags: MW
HStem: -10 31<193 268 193 279> 500 31<195 260.5> 721 20G<105 105 374 374>
VStem: 68 35<370 430 370 438.5> 368 35<98 170.5>
AnchorPoint: "Anchor-11" 230 0 basechar 0
AnchorPoint: "Anchor-10" 0 0 basechar 0
AnchorPoint: "Anchor-9" 236 520 basechar 0
AnchorPoint: "Anchor-8" 0 0 basechar 0
LayerCount: 2
Fore
SplineSet
374 741 m 1
 250 640 l 1
 231 640 l 1
 105 741 l 1
 122 761 l 1
 240 676 l 1
 358 761 l 1
 374 741 l 1
231 531 m 0
 293 531 341 512 390 473 c 1
 370 450 l 1
 325 484 288 500 233 500 c 0
 157 500 103 461 103 399 c 0
 103 341 140 316 239 290 c 0
 357 258 403 223 403 136 c 0
 403 48 330 -10 228 -10 c 0
 145 -10 93 19 48 56 c 1
 69 79 l 1
 115 42 158 21 228 21 c 0
 308 21 368 61 368 135 c 0
 368 206 336 232 223 263 c 1
 113 292 68 327 68 400 c 0
 68 477 139 531 231 531 c 0
EndSplineSet
Substitution2: "'smcp' Lowercase to Small Capitals lookup 24 subtable" scaron.sc
Substitution2: "'aalt' Access All Alternates lookup 0 subtable" scaron.sc
EndChar

StartChar: Tcedilla
Encoding: 354 354 99
Width: 480
GlyphClass: 2
Flags: MW
HStem: -218 30<243 272 243 280.5> -198 21G<184 184> -93 23 0 21G<222 232 222 222> 649 33<15 222 15 470 257 257 257 464>
VStem: 222 35<0 649> 315 33<-156.5 -124>
AnchorPoint: "Anchor-11" 240 0 basechar 0
AnchorPoint: "Anchor-10" 0 0 basechar 0
AnchorPoint: "Anchor-9" 231 682 basechar 0
AnchorPoint: "Anchor-8" 0 0 basechar 0
LayerCount: 2
Fore
SplineSet
257 -70 m 1x7e
 320 -74 348 -99 348 -140 c 0
 348 -189 305 -218 256 -218 c 0xbe
 224 -218 201 -209 184 -198 c 1x7e
 198 -173 l 1
 211 -182 230 -188 256 -188 c 0xbe
 288 -188 315 -173 315 -140 c 0
 315 -108 288 -94 226 -93 c 1
 232 0 l 1
 222 0 l 1
 222 649 l 1
 15 649 l 1
 15 682 l 1
 470 682 l 1
 464 649 l 1
 257 649 l 1
 257 -70 l 1x7e
EndSplineSet
Substitution2: "'c2sc' Capitals to Small Capitals lookup 23 subtable" tcedilla.sc
Substitution2: "'locl' Localized Forms in Latin lookup 5 subtable" uni021A
Substitution2: "'locl' Localized Forms in Latin lookup 4 subtable" uni021A
AlternateSubs2: "'aalt' Access All Alternates lookup 1 subtable" uni021A tcedilla.sc
Position2: "'cpsp' Capital Spacing lookup 0 subtable" dx=5 dy=0 dh=10 dv=0
EndChar
StartChar: uni0162
Encoding: 354 354 250
Width: 480
GlyphClass: 2
Flags: MW
HStem: -218 30<243 272 243 280.5> -198 21G<184 184> -93 23 0 21G<222 232 222 222> 649 33<15 222 15 470 257 257 257 464>
VStem: 222 35<0 649> 315 33<-156.5 -124>
AnchorPoint: "Anchor-14" 240 348 basechar 0
AnchorPoint: "Anchor-13" 0 0 basechar 0
AnchorPoint: "Anchor-12" 240 682 basechar 0
AnchorPoint: "Anchor-11" 0 0 basechar 0
AnchorPoint: "Anchor-10" 240 0 basechar 0
LayerCount: 2
Back
Fore
SplineSet
257 -70 m 1x7e
 320 -74 348 -99 348 -140 c 0
 348 -189 305 -218 256 -218 c 0xbe
 224 -218 201 -209 184 -198 c 1x7e
 198 -173 l 1
 211 -182 230 -188 256 -188 c 0xbe
 288 -188 315 -173 315 -140 c 0
 315 -108 288 -94 226 -93 c 1
 232 0 l 1
 222 0 l 1
 222 649 l 1
 15 649 l 1
 15 682 l 1
 470 682 l 1
 464 649 l 1
 257 649 l 1
 257 -70 l 1x7e
EndSplineSet
Substitution2: "'c2sc' Capitals to Small Capitals lookup 26 subtable" uni0163.sc
Substitution2: "'locl' Localized Forms in Latin lookup 5 subtable" uni021A
Substitution2: "'locl' Localized Forms in Latin lookup 4 subtable" uni021A
AlternateSubs2: "'aalt' Access All Alternates lookup 1 subtable" uni021A uni0163.sc
Position2: "'cpsp' Capital Spacing lookup 0 subtable" dx=5 dy=0 dh=10 dv=0
EndChar
StartChar: uni0163
Encoding: 355 355 642
Width: 327
GlyphClass: 2
Flags: MW
HStem: -218 30<217 246 217 255> -198 21G<158 158> -93 23 -10 31<231 231> -9 30<205 205> 491 29<24 109 24 109 143 280>
VStem: 109 34<119 121 121 491 520 650 650 650> 202.5 28.5 289 33<-156.5 -124>
AnchorPoint: "Anchor-14" 158 260 basechar 0
AnchorPoint: "Anchor-13" 158 736 basechar 0
AnchorPoint: "Anchor-12" 126 650 basechar 0
AnchorPoint: "Anchor-11" 0 0 basechar 0
AnchorPoint: "Anchor-10" 243 -218 basechar 0
LayerCount: 2
Back
Fore
SplineSet
231 -70 m 1x7780
 294 -74 322 -99 322 -140 c 0
 322 -189 280 -218 230 -218 c 0xb780
 198 -218 175 -209 158 -198 c 1x7780
 172 -173 l 1
 185 -182 204 -188 230 -188 c 0
 262 -188 289 -173 289 -140 c 0
 289 -108 262 -94 200 -93 c 1
 205 -9 l 1xaf80
 146 -1 109 42 109 119 c 2
 109 491 l 1
 24 491 l 1
 24 520 l 1
 109 520 l 1
 109 650 l 1
 143 653 l 1
 143 520 l 1
 285 520 l 1
 280 491 l 1
 143 491 l 1
 143 121 l 2
 143 55 172 21 230 21 c 0
 263 21 291 31 317 46 c 1
 332 20 l 1
 304 2 271 -9 231 -10 c 1
 231 -70 l 1x7780
EndSplineSet
Substitution2: "'smcp' Lowercase to Small Capitals lookup 27 subtable" uni0163.sc
Substitution2: "'locl' Localized Forms in Latin lookup 5 subtable" uni021B
Substitution2: "'locl' Localized Forms in Latin lookup 4 subtable" uni021B
AlternateSubs2: "'aalt' Access All Alternates lookup 1 subtable" uni021B uni0163.sc
EndChar
StartChar: Tcaron
Encoding: 356 356 249
Width: 480
GlyphClass: 2
Flags: MW
HStem: 0 21G<222 257 222 222> 649 33<15 222 15 470 257 464 257 257>
VStem: 222 35<0 649 0 649>
AnchorPoint: "Anchor-14" 240 348 basechar 0
AnchorPoint: "Anchor-13" 0 0 basechar 0
AnchorPoint: "Anchor-12" 242 873 basechar 0
AnchorPoint: "Anchor-11" 0 0 basechar 0
AnchorPoint: "Anchor-10" 240 0 basechar 0
LayerCount: 2
Back
Fore
SplineSet
358 873 m 1
 374 853 l 1
 250 758 l 1
 231 758 l 1
 105 853 l 1
 122 873 l 1
 240 793 l 1
 358 873 l 1
470 682 m 1
 464 649 l 1
 257 649 l 1
 257 0 l 1
 222 0 l 1
 222 649 l 1
 15 649 l 1
 15 682 l 1
 470 682 l 1
EndSplineSet
Substitution2: "'c2sc' Capitals to Small Capitals lookup 26 subtable" tcaron.sc
Substitution2: "'aalt' Access All Alternates lookup 0 subtable" tcaron.sc
Position2: "'cpsp' Capital Spacing lookup 0 subtable" dx=5 dy=0 dh=10 dv=0
EndChar

StartChar: Tbar
Encoding: 358 358 97
Width: 487
GlyphClass: 2
Flags: MW
HStem: 0 21G<222 257 222 222> 352 30<100 222 100 222 257 383> 649 33<15 222 15 470 257 464 257 257>
VStem: 222 35<0 352 0 352 382 649>
AnchorPoint: "Anchor-11" 240 0 basechar 0
AnchorPoint: "Anchor-10" 0 0 basechar 0
AnchorPoint: "Anchor-9" 231 682 basechar 0
AnchorPoint: "Anchor-8" 0 0 basechar 0
LayerCount: 2
Fore
SplineSet
257 649 m 1
 257 382 l 1
 383 382 l 1
 383 352 l 1
 257 352 l 1
 257 0 l 1
 222 0 l 1
 222 352 l 1
 100 352 l 1
 100 382 l 1
 222 382 l 1
 222 649 l 1
 15 649 l 1
 15 682 l 1
 470 682 l 1
 464 649 l 1
 257 649 l 1
EndSplineSet
Substitution2: "'c2sc' Capitals to Small Capitals lookup 23 subtable" tbar.sc
Substitution2: "'aalt' Access All Alternates lookup 0 subtable" tbar.sc
Position2: "'cpsp' Capital Spacing lookup 0 subtable" dx=5 dy=0 dh=10 dv=0
EndChar

StartChar: tbar
Encoding: 359 359 235
Width: 327
GlyphClass: 2
Flags: MW
HStem: -10 31<201 246.5 201 247.5> 315 30<25 109 25 109 143 274> 491 29<24 109 24 109 143 280>
VStem: 109 34<119 121 121 315 345 491 520 650 650 650>
AnchorPoint: "Anchor-11" 223 0 basechar 0
AnchorPoint: "Anchor-10" 0 0 basechar 0
AnchorPoint: "Anchor-9" 0 0 basechar 0
AnchorPoint: "Anchor-8" 0 0 basechar 0
LayerCount: 2
Fore
SplineSet
332 20 m 1
 303 2 268 -10 227 -10 c 0
 155 -10 109 33 109 119 c 2
 109 315 l 1
 25 315 l 1
 25 345 l 1
 109 345 l 1
 109 491 l 1
 24 491 l 1
 24 520 l 1
 109 520 l 1
 109 650 l 1
 143 653 l 1
 143 520 l 1
 285 520 l 1
 280 491 l 1
 143 491 l 1
 143 345 l 1
 279 345 l 1
 274 315 l 1
 143 315 l 1
 143 121 l 2
 143 55 172 21 230 21 c 0
 263 21 291 31 317 46 c 1
 332 20 l 1
EndSplineSet
Substitution2: "'smcp' Lowercase to Small Capitals lookup 24 subtable" tbar.sc
Substitution2: "'aalt' Access All Alternates lookup 0 subtable" tbar.sc
EndChar
StartChar: Utilde
Encoding: 360 360 289
Width: 644
GlyphClass: 2
Flags: MW
HStem: -10 32<259.5 386.5 259.5 396.5> 662 20G<109 144 144 144 500 536 536 536> 800 30<362 392.5 362 397> 843 30<252.5 280.5>
VStem: 109 35<209 212 212 682> 500 36<212 682>
AnchorPoint: "Anchor-14" 0 0 basechar 0
AnchorPoint: "Anchor-13" 546 682 basechar 0
AnchorPoint: "Anchor-12" 325 873 basechar 0
AnchorPoint: "Anchor-11" 408 0 basechar 0
AnchorPoint: "Anchor-10" 323 0 basechar 0
LayerCount: 2
Back
Fore
SplineSet
382 800 m 0
 333 800 297 843 264 843 c 0
 241 843 225 833 205 807 c 1
 184 819 l 1
 205 853 232 873 264 873 c 0xfc
 304 873 342 830 382 830 c 0
 403 830 418 841 440 873 c 1
 461 861 l 1
 439 817 412 800 382 800 c 0
536 682 m 1
 536 209 l 2
 536 81 470 -10 323 -10 c 0
 174 -10 109 81 109 209 c 2
 109 682 l 1
 144 682 l 1
 144 212 l 2
 144 99 196 22 323 22 c 0
 450 22 500 101 500 212 c 2
 500 682 l 1
 536 682 l 1
EndSplineSet
Substitution2: "'c2sc' Capitals to Small Capitals lookup 26 subtable" utilde.sc
Substitution2: "'aalt' Access All Alternates lookup 0 subtable" utilde.sc
Position2: "'cpsp' Capital Spacing lookup 0 subtable" dx=5 dy=0 dh=10 dv=0
EndChar

StartChar: utilde
Encoding: 361 361 249
Width: 577
GlyphClass: 2
Flags: MW
HStem: -10 31<223.5 299.5> 0 21G 500 20G<109 143 143 143 430 464 464 464> 674 30<325.5 356 325.5 362> 715 20G<424 424> 717 30<212 244>
VStem: 109 34<149 152 152 520> 430 34<139 520>
AnchorPoint: "Anchor-11" 0 0 basechar 0
AnchorPoint: "Anchor-10" 0 0 basechar 0
AnchorPoint: "Anchor-9" 286 520 basechar 0
AnchorPoint: "Anchor-8" 474 0 basechar 0
LayerCount: 2
Fore
SplineSet
349 674 m 0xbb
 293 674 261 717 227 717 c 0
 197 717 188 707 168 681 c 1
 147 693 l 1
 168 727 192 747 227 747 c 0xa7
 267 747 305 704 346 704 c 0xb7
 366 704 381 715 403 747 c 1xa7
 424 735 l 1
 402 691 375 674 349 674 c 0xbb
464 0 m 1x67
 434 0 l 1x67
 433 101 l 1
 399 40 342 -10 257 -10 c 0
 163 -10 109 46 109 149 c 2
 109 520 l 1
 143 520 l 1
 143 152 l 2
 143 61 185 21 262 21 c 0xa7
 339 21 390 70 430 139 c 1
 430 520 l 1
 464 520 l 1
 464 0 l 1x67
EndSplineSet
Substitution2: "'smcp' Lowercase to Small Capitals lookup 24 subtable" utilde.sc
Substitution2: "'aalt' Access All Alternates lookup 0 subtable" utilde.sc
EndChar
StartChar: Umacron
Encoding: 362 362 285
Width: 644
GlyphClass: 2
Flags: MW
HStem: -10 32<259.5 386.5 259.5 396.5> 662 20G<109 144 144 144 500 536 536 536> 808 32<214 432 214 432>
VStem: 109 35<209 212 212 682> 214 218<808 840 808 840> 500 36<212 682>
AnchorPoint: "Anchor-14" 0 0 basechar 0
AnchorPoint: "Anchor-13" 546 682 basechar 0
AnchorPoint: "Anchor-12" 325 840 basechar 0
AnchorPoint: "Anchor-11" 408 0 basechar 0
AnchorPoint: "Anchor-10" 323 0 basechar 0
LayerCount: 2
Back
Fore
SplineSet
432 808 m 1
 214 808 l 1
 214 840 l 1
 432 840 l 1
 432 808 l 1
536 682 m 1
 536 209 l 2
 536 81 470 -10 323 -10 c 0
 174 -10 109 81 109 209 c 2
 109 682 l 1
 144 682 l 1
 144 212 l 2
 144 99 196 22 323 22 c 0
 450 22 500 101 500 212 c 2
 500 682 l 1
 536 682 l 1
EndSplineSet
Substitution2: "'c2sc' Capitals to Small Capitals lookup 26 subtable" umacron.sc
Substitution2: "'aalt' Access All Alternates lookup 0 subtable" umacron.sc
Position2: "'cpsp' Capital Spacing lookup 0 subtable" dx=5 dy=0 dh=10 dv=0
EndChar

StartChar: umacron
Encoding: 363 363 246
Width: 577
GlyphClass: 2
Flags: MW
HStem: -10 31<223.5 299.5> 0 21G 500 20G<109 143 143 143 430 464 464 464> 682 32<177 395 177 395>
VStem: 109 34<149 152 152 520> 177 218<682 714 682 714> 430 34<139 520>
AnchorPoint: "Anchor-11" 0 0 basechar 0
AnchorPoint: "Anchor-10" 0 0 basechar 0
AnchorPoint: "Anchor-9" 286 520 basechar 0
AnchorPoint: "Anchor-8" 474 0 basechar 0
LayerCount: 2
Fore
SplineSet
177 682 m 1xbe
 177 714 l 1
 395 714 l 1
 395 682 l 1
 177 682 l 1xbe
464 0 m 1x7e
 434 0 l 1x7e
 433 101 l 1
 399 40 342 -10 257 -10 c 0
 163 -10 109 46 109 149 c 2
 109 520 l 1
 143 520 l 1
 143 152 l 2
 143 61 185 21 262 21 c 0xbe
 339 21 390 70 430 139 c 1
 430 520 l 1
 464 520 l 1
 464 0 l 1x7e
EndSplineSet
Substitution2: "'smcp' Lowercase to Small Capitals lookup 24 subtable" umacron.sc
Substitution2: "'aalt' Access All Alternates lookup 0 subtable" umacron.sc
EndChar

StartChar: Ubreve
Encoding: 364 364 103
Width: 644
GlyphClass: 2
Flags: MW
HStem: -10 32<259.5 386.5 259.5 396.5> 662 20G<109 144 144 144 500 536 536 536> 769 32<301.5 348.5 301.5 356>
VStem: 109 35<209 212 212 682> 500 36<212 682>
AnchorPoint: "Anchor-11" 0 0 basechar 0
AnchorPoint: "Anchor-10" 0 0 basechar 0
AnchorPoint: "Anchor-9" 325 682 basechar 0
AnchorPoint: "Anchor-8" 408 0 basechar 0
LayerCount: 2
Fore
SplineSet
325 769 m 0
 264 769 219 808 210 854 c 1
 235 859 l 1
 247 825 278 801 325 801 c 0
 372 801 404 825 416 859 c 1
 441 854 l 1
 432 808 387 769 325 769 c 0
536 209 m 2
 536 81 470 -10 323 -10 c 0
 173 -10 109 81 109 209 c 2
 109 682 l 1
 144 682 l 1
 144 212 l 2
 144 99 196 22 323 22 c 0
 450 22 500 101 500 212 c 2
 500 682 l 1
 536 682 l 1
 536 209 l 2
EndSplineSet
Substitution2: "'c2sc' Capitals to Small Capitals lookup 23 subtable" ubreve.sc
Substitution2: "'aalt' Access All Alternates lookup 0 subtable" ubreve.sc
Position2: "'cpsp' Capital Spacing lookup 0 subtable" dx=5 dy=0 dh=10 dv=0
EndChar
